<ttFont>
    <TTGlyph name="A" xMin="-10" yMin="0" xMax="734" yMax="705">
      <contour>
        <pt x="-10" y="0" on="1"/>
        <pt x="-10" y="56" on="1"/>
        <pt x="88" y="79" on="1"/>
        <pt x="327" y="705" on="1"/>
        <pt x="414" y="705" on="1"/>
        <pt x="638" y="79" on="1"/>
        <pt x="734" y="56" on="1"/>
        <pt x="734" y="0" on="1"/>
        <pt x="395" y="0" on="1"/>
        <pt x="395" y="56" on="1"/>
        <pt x="466" y="73" on="1"/>
        <pt x="423" y="193" on="1"/>
        <pt x="213" y="193" on="1"/>
        <pt x="168" y="76" on="1"/>
        <pt x="252" y="56" on="1"/>
        <pt x="252" y="0" on="1"/>
      </contour>
      <contour>
        <pt x="240" y="262" on="1"/>
        <pt x="398" y="262" on="1"/>
        <pt x="320" y="475" on="1"/>
      </contour>
    </TTGlyph>
    <TTGlyph name="AE" xMin="-14" yMin="0" xMax="994" yMax="700">
      <contour>
        <pt x="-14" y="0" on="1"/>
        <pt x="-14" y="56" on="1"/>
        <pt x="78" y="78" on="1"/>
        <pt x="510" y="700" on="1"/>
        <pt x="964" y="700" on="1"/>
        <pt x="964" y="495" on="1"/>
        <pt x="908" y="495" on="1"/>
        <pt x="868" y="623" on="1"/>
        <pt x="673" y="623" on="1"/>
        <pt x="673" y="388" on="1"/>
        <pt x="874" y="408" on="1"/>
        <pt x="874" y="309" on="1"/>
        <pt x="673" y="327" on="1"/>
        <pt x="673" y="77" on="1"/>
        <pt x="870" y="77" on="1"/>
        <pt x="938" y="216" on="1"/>
        <pt x="994" y="216" on="1"/>
        <pt x="964" y="0" on="1"/>
        <pt x="418" y="0" on="1"/>
        <pt x="418" y="56" on="1"/>
        <pt x="510" y="78" on="1"/>
        <pt x="510" y="227" on="1"/>
        <pt x="281" y="227" on="1"/>
        <pt x="179" y="77" on="1"/>
        <pt x="268" y="56" on="1"/>
        <pt x="268" y="0" on="1"/>
      </contour>
      <contour>
        <pt x="332" y="301" on="1"/>
        <pt x="510" y="301" on="1"/>
        <pt x="510" y="561" on="1"/>
      </contour>
    </TTGlyph>
    <TTGlyph name="Aacute" xMin="-10" yMin="0" xMax="734" yMax="925">
      <component glyphName="A" x="0" y="0" flags="0x204"/>
      <component glyphName="acute.case" x="298" y="21" flags="0x4"/>
    </TTGlyph>
    <TTGlyph name="Acircumflex" xMin="-10" yMin="0" xMax="734" yMax="909">
      <component glyphName="A" x="0" y="0" flags="0x204"/>
      <component glyphName="circumflex.case" x="196" y="21" flags="0x4"/>
    </TTGlyph>
    <TTGlyph name="Adieresis" xMin="-10" yMin="0" xMax="734" yMax="920">
      <component glyphName="A" x="0" y="0" flags="0x204"/>
      <component glyphName="dieresis.case" x="159" y="21" flags="0x4"/>
    </TTGlyph>
    <TTGlyph name="Agrave" xMin="-10" yMin="0" xMax="734" yMax="924">
      <component glyphName="A" x="0" y="0" flags="0x204"/>
      <component glyphName="grave.case" x="228" y="20" flags="0x4"/>
    </TTGlyph>
    <TTGlyph name="Aring" xMin="-10" yMin="0" xMax="734" yMax="932">
      <contour>
        <pt x="249" y="813" on="1"/>
        <pt x="249" y="837" on="0"/>
        <pt x="268" y="881" on="0"/>
        <pt x="300" y="913" on="0"/>
        <pt x="344" y="932" on="0"/>
        <pt x="368" y="932" on="1"/>
        <pt x="392" y="932" on="0"/>
        <pt x="436" y="913" on="0"/>
        <pt x="468" y="881" on="0"/>
        <pt x="487" y="837" on="0"/>
        <pt x="487" y="813" on="1"/>
        <pt x="487" y="788" on="0"/>
        <pt x="468" y="745" on="0"/>
        <pt x="436" y="712" on="0"/>
        <pt x="415" y="702" on="1"/>
        <pt x="638" y="79" on="1"/>
        <pt x="734" y="56" on="1"/>
        <pt x="734" y="0" on="1"/>
        <pt x="395" y="0" on="1"/>
        <pt x="395" y="56" on="1"/>
        <pt x="466" y="73" on="1"/>
        <pt x="423" y="193" on="1"/>
        <pt x="213" y="193" on="1"/>
        <pt x="168" y="76" on="1"/>
        <pt x="252" y="56" on="1"/>
        <pt x="252" y="0" on="1"/>
        <pt x="-10" y="0" on="1"/>
        <pt x="-10" y="56" on="1"/>
        <pt x="88" y="79" on="1"/>
        <pt x="325" y="700" on="1"/>
        <pt x="321" y="702" on="1"/>
        <pt x="300" y="712" on="0"/>
        <pt x="268" y="745" on="0"/>
        <pt x="249" y="788" on="0"/>
      </contour>
      <contour>
        <pt x="240" y="262" on="1"/>
        <pt x="398" y="262" on="1"/>
        <pt x="320" y="475" on="1"/>
      </contour>
      <contour>
        <pt x="411" y="813" on="1"/>
        <pt x="411" y="829" on="0"/>
        <pt x="385" y="856" on="0"/>
        <pt x="368" y="856" on="1"/>
        <pt x="351" y="856" on="0"/>
        <pt x="325" y="830" on="0"/>
        <pt x="325" y="813" on="1"/>
        <pt x="325" y="796" on="0"/>
        <pt x="351" y="770" on="0"/>
        <pt x="368" y="770" on="1"/>
        <pt x="385" y="770" on="0"/>
        <pt x="411" y="796" on="0"/>
      </contour>
    </TTGlyph>
    <TTGlyph name="Atilde" xMin="-10" yMin="0" xMax="734" yMax="906">
      <component glyphName="A" x="0" y="0" flags="0x204"/>
      <component glyphName="tilde.case" x="142" y="20" flags="0x4"/>
    </TTGlyph>
    <TTGlyph name="B" xMin="33" yMin="0" xMax="644" yMax="700">
      <contour>
        <pt x="33" y="0" on="1"/>
        <pt x="33" y="56" on="1"/>
        <pt x="125" y="78" on="1"/>
        <pt x="125" y="622" on="1"/>
        <pt x="33" y="644" on="1"/>
        <pt x="33" y="700" on="1"/>
        <pt x="339" y="700" on="1"/>
        <pt x="456" y="700" on="0"/>
        <pt x="594" y="619" on="0"/>
        <pt x="594" y="530" on="1"/>
        <pt x="594" y="476" on="0"/>
        <pt x="516" y="389" on="0"/>
        <pt x="463" y="376" on="1"/>
        <pt x="463" y="373" on="1"/>
        <pt x="546" y="358" on="0"/>
        <pt x="644" y="265" on="0"/>
        <pt x="644" y="197" on="1"/>
        <pt x="644" y="108" on="0"/>
        <pt x="492" y="0" on="0"/>
        <pt x="376" y="0" on="1"/>
      </contour>
      <contour>
        <pt x="288" y="71" on="1"/>
        <pt x="323" y="71" on="1"/>
        <pt x="478" y="71" on="0"/>
        <pt x="478" y="197" on="1"/>
        <pt x="478" y="258" on="0"/>
        <pt x="403" y="326" on="0"/>
        <pt x="328" y="326" on="1"/>
        <pt x="288" y="326" on="1"/>
      </contour>
      <contour>
        <pt x="288" y="399" on="1"/>
        <pt x="302" y="399" on="1"/>
        <pt x="355" y="399" on="0"/>
        <pt x="428" y="463" on="0"/>
        <pt x="428" y="521" on="1"/>
        <pt x="428" y="629" on="0"/>
        <pt x="296" y="629" on="1"/>
        <pt x="288" y="629" on="1"/>
      </contour>
    </TTGlyph>
    <TTGlyph name="C" xMin="43" yMin="-15" xMax="617" yMax="715">
      <contour>
        <pt x="43" y="350" on="1"/>
        <pt x="43" y="525" on="0"/>
        <pt x="230" y="715" on="0"/>
        <pt x="410" y="715" on="1"/>
        <pt x="458" y="715" on="0"/>
        <pt x="570" y="692" on="0"/>
        <pt x="605" y="676" on="1"/>
        <pt x="605" y="491" on="1"/>
        <pt x="549" y="491" on="1"/>
        <pt x="505" y="632" on="1"/>
        <pt x="471" y="638" on="0"/>
        <pt x="448" y="638" on="1"/>
        <pt x="323" y="638" on="0"/>
        <pt x="209" y="499" on="0"/>
        <pt x="209" y="350" on="1"/>
        <pt x="209" y="202" on="0"/>
        <pt x="317" y="62" on="0"/>
        <pt x="431" y="62" on="1"/>
        <pt x="455" y="62" on="0"/>
        <pt x="487" y="67" on="1"/>
        <pt x="561" y="218" on="1"/>
        <pt x="617" y="218" on="1"/>
        <pt x="591" y="34" on="1"/>
        <pt x="556" y="15" on="0"/>
        <pt x="447" y="-15" on="0"/>
        <pt x="393" y="-15" on="1"/>
        <pt x="225" y="-15" on="0"/>
        <pt x="43" y="176" on="0"/>
      </contour>
    </TTGlyph>
    <TTGlyph name="Ccedilla" xMin="43" yMin="-240" xMax="617" yMax="715">
      <contour>
        <pt x="209" y="-163" on="1"/>
        <pt x="249" y="-171" on="0"/>
        <pt x="259" y="-171" on="1"/>
        <pt x="288" y="-171" on="0"/>
        <pt x="323" y="-145" on="0"/>
        <pt x="323" y="-123" on="1"/>
        <pt x="323" y="-95" on="0"/>
        <pt x="289" y="-71" on="0"/>
        <pt x="255" y="-69" on="1"/>
        <pt x="273" y="0" on="1"/>
        <pt x="189" y="22" on="0"/>
        <pt x="134" y="80" on="1"/>
        <pt x="43" y="176" on="0"/>
        <pt x="43" y="350" on="1"/>
        <pt x="43" y="525" on="0"/>
        <pt x="230" y="715" on="0"/>
        <pt x="410" y="715" on="1"/>
        <pt x="458" y="715" on="0"/>
        <pt x="570" y="692" on="0"/>
        <pt x="605" y="676" on="1"/>
        <pt x="605" y="491" on="1"/>
        <pt x="549" y="491" on="1"/>
        <pt x="505" y="632" on="1"/>
        <pt x="471" y="638" on="0"/>
        <pt x="448" y="638" on="1"/>
        <pt x="323" y="638" on="0"/>
        <pt x="209" y="499" on="0"/>
        <pt x="209" y="350" on="1"/>
        <pt x="209" y="202" on="0"/>
        <pt x="317" y="62" on="0"/>
        <pt x="431" y="62" on="1"/>
        <pt x="455" y="62" on="0"/>
        <pt x="487" y="67" on="1"/>
        <pt x="561" y="218" on="1"/>
        <pt x="617" y="218" on="1"/>
        <pt x="591" y="34" on="1"/>
        <pt x="556" y="15" on="0"/>
        <pt x="447" y="-15" on="0"/>
        <pt x="393" y="-15" on="1"/>
        <pt x="361" y="-15" on="0"/>
        <pt x="333" y="-11" on="1"/>
        <pt x="328" y="-34" on="1"/>
        <pt x="382" y="-34" on="0"/>
        <pt x="448" y="-85" on="0"/>
        <pt x="448" y="-126" on="1"/>
        <pt x="448" y="-180" on="0"/>
        <pt x="361" y="-240" on="0"/>
        <pt x="286" y="-240" on="1"/>
        <pt x="264" y="-240" on="0"/>
        <pt x="209" y="-229" on="1"/>
      </contour>
    </TTGlyph>
    <TTGlyph name="D" xMin="33" yMin="0" xMax="708" yMax="700">
      <contour>
        <pt x="33" y="0" on="1"/>
        <pt x="33" y="56" on="1"/>
        <pt x="125" y="78" on="1"/>
        <pt x="125" y="622" on="1"/>
        <pt x="33" y="644" on="1"/>
        <pt x="33" y="700" on="1"/>
        <pt x="333" y="700" on="1"/>
        <pt x="515" y="700" on="0"/>
        <pt x="708" y="507" on="0"/>
        <pt x="708" y="350" on="1"/>
        <pt x="708" y="183" on="0"/>
        <pt x="504" y="0" on="0"/>
        <pt x="333" y="0" on="1"/>
      </contour>
      <contour>
        <pt x="288" y="77" on="1"/>
        <pt x="318" y="77" on="1"/>
        <pt x="427" y="77" on="0"/>
        <pt x="542" y="219" on="0"/>
        <pt x="542" y="350" on="1"/>
        <pt x="542" y="482" on="0"/>
        <pt x="427" y="623" on="0"/>
        <pt x="318" y="623" on="1"/>
        <pt x="288" y="623" on="1"/>
      </contour>
    </TTGlyph>
    <TTGlyph name="E" xMin="33" yMin="0" xMax="594" yMax="700">
      <contour>
        <pt x="33" y="0" on="1"/>
        <pt x="33" y="56" on="1"/>
        <pt x="125" y="78" on="1"/>
        <pt x="125" y="622" on="1"/>
        <pt x="33" y="644" on="1"/>
        <pt x="33" y="700" on="1"/>
        <pt x="564" y="700" on="1"/>
        <pt x="564" y="495" on="1"/>
        <pt x="505" y="495" on="1"/>
        <pt x="465" y="623" on="1"/>
        <pt x="288" y="623" on="1"/>
        <pt x="288" y="391" on="1"/>
        <pt x="474" y="408" on="1"/>
        <pt x="474" y="309" on="1"/>
        <pt x="288" y="324" on="1"/>
        <pt x="288" y="77" on="1"/>
        <pt x="467" y="77" on="1"/>
        <pt x="535" y="216" on="1"/>
        <pt x="594" y="216" on="1"/>
        <pt x="564" y="0" on="1"/>
      </contour>
    </TTGlyph>
    <TTGlyph name="Eacute" xMin="33" yMin="0" xMax="594" yMax="925">
      <component glyphName="E" x="0" y="0" flags="0x204"/>
      <component glyphName="acute.case" x="292" y="21" flags="0x4"/>
    </TTGlyph>
    <TTGlyph name="Ecircumflex" xMin="33" yMin="0" xMax="594" yMax="909">
      <component glyphName="E" x="0" y="0" flags="0x204"/>
      <component glyphName="circumflex.case" x="190" y="21" flags="0x4"/>
    </TTGlyph>
    <TTGlyph name="Edieresis" xMin="33" yMin="0" xMax="594" yMax="920">
      <component glyphName="E" x="0" y="0" flags="0x204"/>
      <component glyphName="dieresis.case" x="133" y="21" flags="0x4"/>
    </TTGlyph>
    <TTGlyph name="Egrave" xMin="33" yMin="0" xMax="594" yMax="924">
      <component glyphName="E" x="0" y="0" flags="0x204"/>
      <component glyphName="grave.case" x="212" y="20" flags="0x4"/>
    </TTGlyph>
    <TTGlyph name="Eth" xMin="33" yMin="0" xMax="708" yMax="700">
      <contour>
        <pt x="33" y="0" on="1"/>
        <pt x="33" y="56" on="1"/>
        <pt x="125" y="78" on="1"/>
        <pt x="125" y="313" on="1"/>
        <pt x="33" y="313" on="1"/>
        <pt x="33" y="390" on="1"/>
        <pt x="125" y="390" on="1"/>
        <pt x="125" y="622" on="1"/>
        <pt x="33" y="644" on="1"/>
        <pt x="33" y="700" on="1"/>
        <pt x="333" y="700" on="1"/>
        <pt x="515" y="700" on="0"/>
        <pt x="708" y="506" on="0"/>
        <pt x="708" y="350" on="1"/>
        <pt x="708" y="194" on="0"/>
        <pt x="515" y="0" on="0"/>
        <pt x="333" y="0" on="1"/>
      </contour>
      <contour>
        <pt x="288" y="77" on="1"/>
        <pt x="318" y="77" on="1"/>
        <pt x="431" y="77" on="0"/>
        <pt x="542" y="223" on="0"/>
        <pt x="542" y="350" on="1"/>
        <pt x="542" y="477" on="0"/>
        <pt x="430" y="623" on="0"/>
        <pt x="318" y="623" on="1"/>
        <pt x="288" y="623" on="1"/>
        <pt x="288" y="390" on="1"/>
        <pt x="451" y="390" on="1"/>
        <pt x="451" y="313" on="1"/>
        <pt x="288" y="313" on="1"/>
      </contour>
    </TTGlyph>
    <TTGlyph name="Euro" xMin="43" yMin="-15" xMax="663" yMax="715">
      <contour>
        <pt x="43" y="235" on="1"/>
        <pt x="43" y="292" on="1"/>
        <pt x="106" y="295" on="1"/>
        <pt x="104" y="331" on="0"/>
        <pt x="104" y="350" on="1"/>
        <pt x="104" y="377" on="1"/>
        <pt x="43" y="377" on="1"/>
        <pt x="43" y="434" on="1"/>
        <pt x="111" y="438" on="1"/>
        <pt x="134" y="573" on="0"/>
        <pt x="318" y="715" on="0"/>
        <pt x="472" y="715" on="1"/>
        <pt x="567" y="715" on="0"/>
        <pt x="651" y="676" on="1"/>
        <pt x="651" y="491" on="1"/>
        <pt x="594" y="491" on="1"/>
        <pt x="551" y="632" on="1"/>
        <pt x="518" y="638" on="0"/>
        <pt x="482" y="638" on="1"/>
        <pt x="391" y="638" on="0"/>
        <pt x="291" y="546" on="0"/>
        <pt x="276" y="447" on="1"/>
        <pt x="528" y="462" on="1"/>
        <pt x="499" y="377" on="1"/>
        <pt x="270" y="377" on="1"/>
        <pt x="270" y="350" on="1"/>
        <pt x="270" y="319" on="0"/>
        <pt x="271" y="304" on="1"/>
        <pt x="477" y="316" on="1"/>
        <pt x="449" y="235" on="1"/>
        <pt x="278" y="235" on="1"/>
        <pt x="311" y="62" on="0"/>
        <pt x="465" y="62" on="1"/>
        <pt x="500" y="62" on="0"/>
        <pt x="534" y="68" on="1"/>
        <pt x="607" y="218" on="1"/>
        <pt x="663" y="218" on="1"/>
        <pt x="636" y="34" on="1"/>
        <pt x="553" y="-15" on="0"/>
        <pt x="449" y="-15" on="1"/>
        <pt x="314" y="-15" on="0"/>
        <pt x="142" y="113" on="0"/>
        <pt x="114" y="235" on="1"/>
      </contour>
    </TTGlyph>
    <TTGlyph name="F" xMin="33" yMin="0" xMax="559" yMax="700">
      <contour>
        <pt x="33" y="0" on="1"/>
        <pt x="33" y="56" on="1"/>
        <pt x="125" y="78" on="1"/>
        <pt x="125" y="622" on="1"/>
        <pt x="33" y="644" on="1"/>
        <pt x="33" y="700" on="1"/>
        <pt x="559" y="700" on="1"/>
        <pt x="559" y="495" on="1"/>
        <pt x="503" y="495" on="1"/>
        <pt x="463" y="623" on="1"/>
        <pt x="288" y="623" on="1"/>
        <pt x="288" y="393" on="1"/>
        <pt x="474" y="408" on="1"/>
        <pt x="474" y="309" on="1"/>
        <pt x="288" y="323" on="1"/>
        <pt x="288" y="78" on="1"/>
        <pt x="400" y="56" on="1"/>
        <pt x="400" y="0" on="1"/>
      </contour>
    </TTGlyph>
    <TTGlyph name="G" xMin="42" yMin="-15" xMax="713" yMax="715">
      <contour>
        <pt x="429" y="715" on="1"/>
        <pt x="534" y="715" on="0"/>
        <pt x="624" y="676" on="1"/>
        <pt x="624" y="491" on="1"/>
        <pt x="568" y="491" on="1"/>
        <pt x="522" y="639" on="1"/>
        <pt x="495" y="643" on="0"/>
        <pt x="467" y="643" on="1"/>
        <pt x="346" y="643" on="0"/>
        <pt x="208" y="493" on="0"/>
        <pt x="208" y="350" on="1"/>
        <pt x="208" y="57" on="0"/>
        <pt x="447" y="57" on="1"/>
        <pt x="462" y="57" on="0"/>
        <pt x="476" y="58" on="1"/>
        <pt x="476" y="248" on="1"/>
        <pt x="362" y="283" on="1"/>
        <pt x="362" y="329" on="1"/>
        <pt x="713" y="329" on="1"/>
        <pt x="713" y="283" on="1"/>
        <pt x="639" y="248" on="1"/>
        <pt x="639" y="34" on="1"/>
        <pt x="619" y="24" on="0"/>
        <pt x="565" y="6" on="0"/>
        <pt x="503" y="-7" on="0"/>
        <pt x="439" y="-15" on="0"/>
        <pt x="409" y="-15" on="1"/>
        <pt x="232" y="-15" on="0"/>
        <pt x="42" y="175" on="0"/>
        <pt x="42" y="350" on="1"/>
        <pt x="42" y="525" on="0"/>
        <pt x="242" y="715" on="0"/>
      </contour>
    </TTGlyph>
    <TTGlyph name="H" xMin="33" yMin="0" xMax="792" yMax="700">
      <contour>
        <pt x="33" y="0" on="1"/>
        <pt x="33" y="56" on="1"/>
        <pt x="125" y="78" on="1"/>
        <pt x="125" y="622" on="1"/>
        <pt x="33" y="644" on="1"/>
        <pt x="33" y="700" on="1"/>
        <pt x="380" y="700" on="1"/>
        <pt x="380" y="644" on="1"/>
        <pt x="288" y="622" on="1"/>
        <pt x="288" y="392" on="1"/>
        <pt x="537" y="392" on="1"/>
        <pt x="537" y="622" on="1"/>
        <pt x="445" y="644" on="1"/>
        <pt x="445" y="700" on="1"/>
        <pt x="792" y="700" on="1"/>
        <pt x="792" y="644" on="1"/>
        <pt x="700" y="622" on="1"/>
        <pt x="700" y="78" on="1"/>
        <pt x="792" y="56" on="1"/>
        <pt x="792" y="0" on="1"/>
        <pt x="445" y="0" on="1"/>
        <pt x="445" y="56" on="1"/>
        <pt x="537" y="78" on="1"/>
        <pt x="537" y="315" on="1"/>
        <pt x="288" y="315" on="1"/>
        <pt x="288" y="78" on="1"/>
        <pt x="380" y="56" on="1"/>
        <pt x="380" y="0" on="1"/>
      </contour>
    </TTGlyph>
    <TTGlyph name="I" xMin="33" yMin="0" xMax="380" yMax="700">
      <contour>
        <pt x="33" y="0" on="1"/>
        <pt x="33" y="56" on="1"/>
        <pt x="125" y="78" on="1"/>
        <pt x="125" y="622" on="1"/>
        <pt x="33" y="644" on="1"/>
        <pt x="33" y="700" on="1"/>
        <pt x="380" y="700" on="1"/>
        <pt x="380" y="644" on="1"/>
        <pt x="288" y="622" on="1"/>
        <pt x="288" y="78" on="1"/>
        <pt x="380" y="56" on="1"/>
        <pt x="380" y="0" on="1"/>
      </contour>
    </TTGlyph>
    <TTGlyph name="Iacute" xMin="33" yMin="0" xMax="380" yMax="925">
      <component glyphName="I" x="0" y="0" flags="0x204"/>
      <component glyphName="acute.case" x="136" y="21" flags="0x4"/>
    </TTGlyph>
    <TTGlyph name="Icircumflex" xMin="29" yMin="0" xMax="389" yMax="909">
      <component glyphName="I" x="0" y="0" flags="0x204"/>
      <component glyphName="circumflex.case" x="34" y="21" flags="0x4"/>
    </TTGlyph>
    <TTGlyph name="Idieresis" xMin="20" yMin="0" xMax="399" yMax="920">
      <component glyphName="I" x="0" y="0" flags="0x204"/>
      <component glyphName="dieresis.case" x="-2" y="21" flags="0x4"/>
    </TTGlyph>
    <TTGlyph name="Igrave" xMin="33" yMin="0" xMax="380" yMax="924">
      <component glyphName="I" x="0" y="0" flags="0x204"/>
      <component glyphName="grave.case" x="86" y="20" flags="0x4"/>
    </TTGlyph>
    <TTGlyph name="J" xMin="4" yMin="-163" xMax="372" yMax="700">
      <contour>
        <pt x="4" y="-103" on="1"/>
        <pt x="117" y="-23" on="0"/>
        <pt x="117" y="150" on="1"/>
        <pt x="117" y="622" on="1"/>
        <pt x="25" y="644" on="1"/>
        <pt x="25" y="700" on="1"/>
        <pt x="372" y="700" on="1"/>
        <pt x="372" y="644" on="1"/>
        <pt x="280" y="622" on="1"/>
        <pt x="280" y="150" on="1"/>
        <pt x="280" y="45" on="0"/>
        <pt x="141" y="-129" on="0"/>
        <pt x="63" y="-163" on="1"/>
      </contour>
    </TTGlyph>
    <TTGlyph name="K" xMin="33" yMin="0" xMax="770" yMax="700">
      <contour>
        <pt x="33" y="0" on="1"/>
        <pt x="33" y="56" on="1"/>
        <pt x="125" y="78" on="1"/>
        <pt x="125" y="622" on="1"/>
        <pt x="33" y="644" on="1"/>
        <pt x="33" y="700" on="1"/>
        <pt x="380" y="700" on="1"/>
        <pt x="380" y="644" on="1"/>
        <pt x="288" y="622" on="1"/>
        <pt x="288" y="78" on="1"/>
        <pt x="380" y="56" on="1"/>
        <pt x="380" y="0" on="1"/>
      </contour>
      <contour>
        <pt x="310" y="349" on="1"/>
        <pt x="526" y="624" on="1"/>
        <pt x="465" y="644" on="1"/>
        <pt x="465" y="700" on="1"/>
        <pt x="725" y="700" on="1"/>
        <pt x="725" y="644" on="1"/>
        <pt x="630" y="622" on="1"/>
        <pt x="462" y="413" on="1"/>
        <pt x="676" y="98" on="1"/>
        <pt x="770" y="56" on="1"/>
        <pt x="770" y="0" on="1"/>
        <pt x="538" y="0" on="1"/>
      </contour>
    </TTGlyph>
    <TTGlyph name="L" xMin="33" yMin="0" xMax="594" yMax="700">
      <contour>
        <pt x="33" y="0" on="1"/>
        <pt x="33" y="56" on="1"/>
        <pt x="125" y="78" on="1"/>
        <pt x="125" y="622" on="1"/>
        <pt x="33" y="644" on="1"/>
        <pt x="33" y="700" on="1"/>
        <pt x="380" y="700" on="1"/>
        <pt x="380" y="644" on="1"/>
        <pt x="288" y="622" on="1"/>
        <pt x="288" y="77" on="1"/>
        <pt x="470" y="77" on="1"/>
        <pt x="538" y="216" on="1"/>
        <pt x="594" y="216" on="1"/>
        <pt x="564" y="0" on="1"/>
      </contour>
    </TTGlyph>
    <TTGlyph name="M" xMin="16" yMin="-5" xMax="1008" yMax="700">
      <contour>
        <pt x="16" y="0" on="1"/>
        <pt x="16" y="56" on="1"/>
        <pt x="111" y="79" on="1"/>
        <pt x="142" y="623" on="1"/>
        <pt x="54" y="644" on="1"/>
        <pt x="56" y="700" on="1"/>
        <pt x="304" y="700" on="1"/>
        <pt x="510" y="223" on="1"/>
        <pt x="724" y="700" on="1"/>
        <pt x="966" y="700" on="1"/>
        <pt x="966" y="644" on="1"/>
        <pt x="877" y="623" on="1"/>
        <pt x="912" y="78" on="1"/>
        <pt x="1008" y="56" on="1"/>
        <pt x="1008" y="0" on="1"/>
        <pt x="657" y="0" on="1"/>
        <pt x="657" y="56" on="1"/>
        <pt x="745" y="77" on="1"/>
        <pt x="718" y="497" on="1"/>
        <pt x="494" y="-5" on="1"/>
        <pt x="429" y="-5" on="1"/>
        <pt x="212" y="500" on="1"/>
        <pt x="189" y="77" on="1"/>
        <pt x="278" y="56" on="1"/>
        <pt x="278" y="0" on="1"/>
      </contour>
    </TTGlyph>
    <TTGlyph name="N" xMin="33" yMin="0" xMax="809" yMax="700">
      <contour>
        <pt x="33" y="0" on="1"/>
        <pt x="33" y="56" on="1"/>
        <pt x="125" y="78" on="1"/>
        <pt x="125" y="622" on="1"/>
        <pt x="33" y="644" on="1"/>
        <pt x="33" y="700" on="1"/>
        <pt x="205" y="700" on="1"/>
        <pt x="634" y="230" on="1"/>
        <pt x="634" y="622" on="1"/>
        <pt x="542" y="644" on="1"/>
        <pt x="542" y="700" on="1"/>
        <pt x="809" y="700" on="1"/>
        <pt x="809" y="644" on="1"/>
        <pt x="717" y="622" on="1"/>
        <pt x="717" y="0" on="1"/>
        <pt x="620" y="0" on="1"/>
        <pt x="205" y="454" on="1"/>
        <pt x="205" y="78" on="1"/>
        <pt x="297" y="56" on="1"/>
        <pt x="297" y="0" on="1"/>
      </contour>
    </TTGlyph>
    <TTGlyph name="Ntilde" xMin="33" yMin="0" xMax="809" yMax="906">
      <component glyphName="N" x="0" y="0" flags="0x204"/>
      <component glyphName="tilde.case" x="204" y="20" flags="0x4"/>
    </TTGlyph>
    <TTGlyph name="O" xMin="42" yMin="-15" xMax="732" yMax="715">
      <contour>
        <pt x="42" y="350" on="1"/>
        <pt x="42" y="512" on="0"/>
        <pt x="221" y="715" on="0"/>
        <pt x="387" y="715" on="1"/>
        <pt x="551" y="715" on="0"/>
        <pt x="732" y="515" on="0"/>
        <pt x="732" y="350" on="1"/>
        <pt x="732" y="186" on="0"/>
        <pt x="551" y="-15" on="0"/>
        <pt x="387" y="-15" on="1"/>
        <pt x="223" y="-15" on="0"/>
        <pt x="42" y="184" on="0"/>
      </contour>
      <contour>
        <pt x="387" y="54" on="1"/>
        <pt x="474" y="54" on="0"/>
        <pt x="564" y="209" on="0"/>
        <pt x="564" y="350" on="1"/>
        <pt x="564" y="491" on="0"/>
        <pt x="473" y="646" on="0"/>
        <pt x="387" y="646" on="1"/>
        <pt x="300" y="646" on="0"/>
        <pt x="210" y="491" on="0"/>
        <pt x="210" y="350" on="1"/>
        <pt x="210" y="209" on="0"/>
        <pt x="299" y="54" on="0"/>
      </contour>
    </TTGlyph>
    <TTGlyph name="OE" xMin="42" yMin="-15" xMax="1053" yMax="715">
      <contour>
        <pt x="42" y="350" on="1"/>
        <pt x="42" y="512" on="0"/>
        <pt x="219" y="715" on="0"/>
        <pt x="377" y="715" on="1"/>
        <pt x="437" y="715" on="0"/>
        <pt x="547" y="663" on="0"/>
        <pt x="584" y="619" on="1"/>
        <pt x="584" y="700" on="1"/>
        <pt x="1023" y="700" on="1"/>
        <pt x="1023" y="495" on="1"/>
        <pt x="967" y="495" on="1"/>
        <pt x="929" y="623" on="1"/>
        <pt x="724" y="623" on="1"/>
        <pt x="724" y="388" on="1"/>
        <pt x="933" y="408" on="1"/>
        <pt x="933" y="309" on="1"/>
        <pt x="724" y="327" on="1"/>
        <pt x="724" y="77" on="1"/>
        <pt x="928" y="77" on="1"/>
        <pt x="997" y="216" on="1"/>
        <pt x="1053" y="216" on="1"/>
        <pt x="1023" y="0" on="1"/>
        <pt x="584" y="0" on="1"/>
        <pt x="584" y="80" on="1"/>
        <pt x="505" y="-15" on="0"/>
        <pt x="377" y="-15" on="1"/>
        <pt x="291" y="-15" on="0"/>
        <pt x="159" y="42" on="0"/>
        <pt x="81" y="143" on="0"/>
        <pt x="42" y="273" on="0"/>
      </contour>
      <contour>
        <pt x="210" y="350" on="1"/>
        <pt x="210" y="219" on="0"/>
        <pt x="303" y="54" on="0"/>
        <pt x="387" y="54" on="1"/>
        <pt x="478" y="54" on="0"/>
        <pt x="594" y="217" on="0"/>
        <pt x="594" y="340" on="1"/>
        <pt x="594" y="478" on="0"/>
        <pt x="482" y="646" on="0"/>
        <pt x="387" y="646" on="1"/>
        <pt x="300" y="646" on="0"/>
        <pt x="210" y="483" on="0"/>
      </contour>
    </TTGlyph>
    <TTGlyph name="Oacute" xMin="42" yMin="-15" xMax="732" yMax="925">
      <component glyphName="O" x="0" y="0" flags="0x204"/>
      <component glyphName="acute.case" x="354" y="21" flags="0x4"/>
    </TTGlyph>
    <TTGlyph name="Ocircumflex" xMin="42" yMin="-15" xMax="732" yMax="909">
      <component glyphName="O" x="0" y="0" flags="0x204"/>
      <component glyphName="circumflex.case" x="212" y="21" flags="0x4"/>
    </TTGlyph>
    <TTGlyph name="Odieresis" xMin="42" yMin="-15" xMax="732" yMax="920">
      <component glyphName="O" x="0" y="0" flags="0x204"/>
      <component glyphName="dieresis.case" x="175" y="21" flags="0x4"/>
    </TTGlyph>
    <TTGlyph name="Ograve" xMin="42" yMin="-15" xMax="732" yMax="924">
      <component glyphName="O" x="0" y="0" flags="0x204"/>
      <component glyphName="grave.case" x="244" y="20" flags="0x4"/>
    </TTGlyph>
    <TTGlyph name="Oslash" xMin="42" yMin="-40" xMax="732" yMax="739">
      <contour>
        <pt x="130" y="-40" on="1"/>
        <pt x="175" y="46" on="1"/>
        <pt x="152" y="63" on="0"/>
        <pt x="132" y="84" on="1"/>
        <pt x="42" y="184" on="0"/>
        <pt x="42" y="350" on="1"/>
        <pt x="42" y="512" on="0"/>
        <pt x="221" y="715" on="0"/>
        <pt x="387" y="715" on="1"/>
        <pt x="460" y="715" on="0"/>
        <pt x="518" y="695" on="1"/>
        <pt x="541" y="739" on="1"/>
        <pt x="612" y="739" on="1"/>
        <pt x="575" y="669" on="1"/>
        <pt x="612" y="647" on="0"/>
        <pt x="641" y="615" on="1"/>
        <pt x="732" y="515" on="0"/>
        <pt x="732" y="350" on="1"/>
        <pt x="732" y="186" on="0"/>
        <pt x="551" y="-15" on="0"/>
        <pt x="387" y="-15" on="1"/>
        <pt x="298" y="-15" on="0"/>
        <pt x="231" y="14" on="1"/>
        <pt x="203" y="-40" on="1"/>
      </contour>
      <contour>
        <pt x="387" y="54" on="1"/>
        <pt x="474" y="54" on="0"/>
        <pt x="564" y="209" on="0"/>
        <pt x="564" y="350" on="1"/>
        <pt x="564" y="487" on="0"/>
        <pt x="520" y="564" on="1"/>
        <pt x="277" y="100" on="1"/>
        <pt x="319" y="54" on="0"/>
      </contour>
      <contour>
        <pt x="387" y="646" on="1"/>
        <pt x="300" y="646" on="0"/>
        <pt x="210" y="491" on="0"/>
        <pt x="210" y="350" on="1"/>
        <pt x="210" y="237" on="0"/>
        <pt x="238" y="165" on="1"/>
        <pt x="476" y="617" on="1"/>
        <pt x="439" y="646" on="0"/>
      </contour>
    </TTGlyph>
    <TTGlyph name="Otilde" xMin="42" yMin="-15" xMax="732" yMax="906">
      <component glyphName="O" x="0" y="0" flags="0x204"/>
      <component glyphName="tilde.case" x="158" y="20" flags="0x4"/>
    </TTGlyph>
    <TTGlyph name="P" xMin="33" yMin="0" xMax="621" yMax="700">
      <contour>
        <pt x="33" y="0" on="1"/>
        <pt x="33" y="56" on="1"/>
        <pt x="125" y="78" on="1"/>
        <pt x="125" y="622" on="1"/>
        <pt x="33" y="644" on="1"/>
        <pt x="33" y="700" on="1"/>
        <pt x="316" y="700" on="1"/>
        <pt x="461" y="700" on="0"/>
        <pt x="621" y="599" on="0"/>
        <pt x="621" y="481" on="1"/>
        <pt x="621" y="421" on="0"/>
        <pt x="570" y="332" on="0"/>
        <pt x="482" y="281" on="0"/>
        <pt x="376" y="256" on="0"/>
        <pt x="314" y="256" on="1"/>
        <pt x="288" y="256" on="1"/>
        <pt x="288" y="78" on="1"/>
        <pt x="410" y="56" on="1"/>
        <pt x="410" y="0" on="1"/>
      </contour>
      <contour>
        <pt x="288" y="329" on="1"/>
        <pt x="309" y="329" on="1"/>
        <pt x="370" y="329" on="0"/>
        <pt x="455" y="406" on="0"/>
        <pt x="455" y="481" on="1"/>
        <pt x="455" y="553" on="0"/>
        <pt x="376" y="627" on="0"/>
        <pt x="316" y="627" on="1"/>
        <pt x="288" y="627" on="1"/>
      </contour>
    </TTGlyph>
    <TTGlyph name="Q" xMin="42" yMin="-140" xMax="755" yMax="715">
      <contour>
        <pt x="42" y="350" on="1"/>
        <pt x="42" y="512" on="0"/>
        <pt x="221" y="715" on="0"/>
        <pt x="387" y="715" on="1"/>
        <pt x="551" y="715" on="0"/>
        <pt x="732" y="515" on="0"/>
        <pt x="732" y="350" on="1"/>
        <pt x="732" y="184" on="0"/>
        <pt x="641" y="84" on="1"/>
        <pt x="598" y="37" on="0"/>
        <pt x="538" y="13" on="1"/>
        <pt x="573" y="-17" on="0"/>
        <pt x="622" y="-37" on="1"/>
        <pt x="679" y="-60" on="0"/>
        <pt x="755" y="-68" on="1"/>
        <pt x="718" y="-140" on="1"/>
        <pt x="496" y="-139" on="0"/>
        <pt x="360" y="-14" on="1"/>
        <pt x="215" y="-7" on="0"/>
        <pt x="132" y="84" on="1"/>
        <pt x="42" y="184" on="0"/>
      </contour>
      <contour>
        <pt x="387" y="54" on="1"/>
        <pt x="474" y="54" on="0"/>
        <pt x="564" y="209" on="0"/>
        <pt x="564" y="350" on="1"/>
        <pt x="564" y="491" on="0"/>
        <pt x="473" y="646" on="0"/>
        <pt x="387" y="646" on="1"/>
        <pt x="300" y="646" on="0"/>
        <pt x="210" y="491" on="0"/>
        <pt x="210" y="350" on="1"/>
        <pt x="210" y="209" on="0"/>
        <pt x="299" y="54" on="0"/>
      </contour>
    </TTGlyph>
    <TTGlyph name="R" xMin="33" yMin="0" xMax="725" yMax="700">
      <contour>
        <pt x="33" y="0" on="1"/>
        <pt x="33" y="56" on="1"/>
        <pt x="125" y="78" on="1"/>
        <pt x="125" y="622" on="1"/>
        <pt x="33" y="644" on="1"/>
        <pt x="33" y="700" on="1"/>
        <pt x="346" y="700" on="1"/>
        <pt x="485" y="700" on="0"/>
        <pt x="624" y="599" on="0"/>
        <pt x="624" y="506" on="1"/>
        <pt x="624" y="443" on="0"/>
        <pt x="552" y="349" on="0"/>
        <pt x="489" y="330" on="1"/>
        <pt x="629" y="77" on="1"/>
        <pt x="725" y="53" on="1"/>
        <pt x="725" y="0" on="1"/>
        <pt x="482" y="0" on="1"/>
        <pt x="323" y="303" on="1"/>
        <pt x="288" y="303" on="1"/>
        <pt x="288" y="78" on="1"/>
        <pt x="375" y="56" on="1"/>
        <pt x="375" y="0" on="1"/>
      </contour>
      <contour>
        <pt x="288" y="373" on="1"/>
        <pt x="317" y="373" on="1"/>
        <pt x="387" y="373" on="0"/>
        <pt x="461" y="445" on="0"/>
        <pt x="461" y="506" on="1"/>
        <pt x="461" y="561" on="0"/>
        <pt x="385" y="627" on="0"/>
        <pt x="316" y="627" on="1"/>
        <pt x="288" y="627" on="1"/>
      </contour>
    </TTGlyph>
    <TTGlyph name="S" xMin="49" yMin="-15" xMax="563" yMax="715">
      <contour>
        <pt x="49" y="32" on="1"/>
        <pt x="49" y="216" on="1"/>
        <pt x="105" y="216" on="1"/>
        <pt x="156" y="76" on="1"/>
        <pt x="198" y="61" on="0"/>
        <pt x="261" y="61" on="1"/>
        <pt x="329" y="61" on="0"/>
        <pt x="428" y="109" on="0"/>
        <pt x="428" y="156" on="1"/>
        <pt x="428" y="167" on="0"/>
        <pt x="423" y="187" on="0"/>
        <pt x="411" y="205" on="0"/>
        <pt x="399" y="220" on="0"/>
        <pt x="375" y="237" on="0"/>
        <pt x="357" y="248" on="0"/>
        <pt x="322" y="266" on="0"/>
        <pt x="278" y="287" on="1"/>
        <pt x="242" y="304" on="1"/>
        <pt x="143" y="352" on="0"/>
        <pt x="57" y="457" on="0"/>
        <pt x="57" y="534" on="1"/>
        <pt x="57" y="616" on="0"/>
        <pt x="193" y="715" on="0"/>
        <pt x="301" y="715" on="1"/>
        <pt x="422" y="715" on="0"/>
        <pt x="519" y="684" on="1"/>
        <pt x="519" y="500" on="1"/>
        <pt x="463" y="500" on="1"/>
        <pt x="414" y="634" on="1"/>
        <pt x="373" y="643" on="0"/>
        <pt x="335" y="643" on="1"/>
        <pt x="276" y="643" on="0"/>
        <pt x="192" y="602" on="0"/>
        <pt x="192" y="563" on="1"/>
        <pt x="192" y="528" on="0"/>
        <pt x="259" y="481" on="0"/>
        <pt x="345" y="443" on="1"/>
        <pt x="365" y="434" on="1"/>
        <pt x="467" y="388" on="0"/>
        <pt x="563" y="276" on="0"/>
        <pt x="563" y="196" on="1"/>
        <pt x="563" y="121" on="0"/>
        <pt x="488" y="26" on="0"/>
        <pt x="366" y="-15" on="0"/>
        <pt x="288" y="-15" on="1"/>
        <pt x="164" y="-15" on="0"/>
      </contour>
    </TTGlyph>
    <TTGlyph name="T" xMin="22" yMin="0" xMax="637" yMax="700">
      <contour>
        <pt x="22" y="488" on="1"/>
        <pt x="22" y="700" on="1"/>
        <pt x="637" y="700" on="1"/>
        <pt x="637" y="488" on="1"/>
        <pt x="576" y="488" on="1"/>
        <pt x="535" y="623" on="1"/>
        <pt x="411" y="623" on="1"/>
        <pt x="411" y="78" on="1"/>
        <pt x="503" y="56" on="1"/>
        <pt x="503" y="0" on="1"/>
        <pt x="156" y="0" on="1"/>
        <pt x="156" y="56" on="1"/>
        <pt x="248" y="78" on="1"/>
        <pt x="248" y="623" on="1"/>
        <pt x="123" y="623" on="1"/>
        <pt x="82" y="488" on="1"/>
      </contour>
    </TTGlyph>
    <TTGlyph name="Thorn" xMin="33" yMin="0" xMax="624" yMax="700">
      <contour>
        <pt x="33" y="0" on="1"/>
        <pt x="33" y="56" on="1"/>
        <pt x="125" y="78" on="1"/>
        <pt x="125" y="622" on="1"/>
        <pt x="33" y="644" on="1"/>
        <pt x="33" y="700" on="1"/>
        <pt x="380" y="700" on="1"/>
        <pt x="380" y="644" on="1"/>
        <pt x="288" y="622" on="1"/>
        <pt x="288" y="551" on="1"/>
        <pt x="346" y="551" on="1"/>
        <pt x="479" y="551" on="0"/>
        <pt x="624" y="451" on="0"/>
        <pt x="624" y="350" on="1"/>
        <pt x="624" y="248" on="0"/>
        <pt x="479" y="147" on="0"/>
        <pt x="346" y="147" on="1"/>
        <pt x="288" y="147" on="1"/>
        <pt x="288" y="78" on="1"/>
        <pt x="380" y="56" on="1"/>
        <pt x="380" y="0" on="1"/>
      </contour>
      <contour>
        <pt x="288" y="217" on="1"/>
        <pt x="301" y="217" on="1"/>
        <pt x="458" y="217" on="0"/>
        <pt x="458" y="350" on="1"/>
        <pt x="458" y="420" on="0"/>
        <pt x="377" y="478" on="0"/>
        <pt x="301" y="478" on="1"/>
        <pt x="288" y="478" on="1"/>
      </contour>
    </TTGlyph>
    <TTGlyph name="U" xMin="5" yMin="-15" xMax="766" yMax="700">
      <contour>
        <pt x="5" y="644" on="1"/>
        <pt x="5" y="700" on="1"/>
        <pt x="352" y="700" on="1"/>
        <pt x="352" y="644" on="1"/>
        <pt x="260" y="622" on="1"/>
        <pt x="260" y="262" on="1"/>
        <pt x="260" y="70" on="0"/>
        <pt x="419" y="70" on="1"/>
        <pt x="497" y="70" on="0"/>
        <pt x="592" y="167" on="0"/>
        <pt x="592" y="262" on="1"/>
        <pt x="592" y="622" on="1"/>
        <pt x="500" y="644" on="1"/>
        <pt x="500" y="700" on="1"/>
        <pt x="766" y="700" on="1"/>
        <pt x="766" y="644" on="1"/>
        <pt x="674" y="622" on="1"/>
        <pt x="674" y="262" on="1"/>
        <pt x="674" y="128" on="0"/>
        <pt x="513" y="-15" on="0"/>
        <pt x="390" y="-15" on="1"/>
        <pt x="262" y="-15" on="0"/>
        <pt x="97" y="128" on="0"/>
        <pt x="97" y="262" on="1"/>
        <pt x="97" y="622" on="1"/>
      </contour>
    </TTGlyph>
    <TTGlyph name="Uacute" xMin="5" yMin="-15" xMax="766" yMax="925">
      <component glyphName="U" x="0" y="0" flags="0x204"/>
      <component glyphName="acute.case" x="358" y="21" flags="0x4"/>
    </TTGlyph>
    <TTGlyph name="Ucircumflex" xMin="5" yMin="-15" xMax="766" yMax="909">
      <component glyphName="U" x="0" y="0" flags="0x204"/>
      <component glyphName="circumflex.case" x="256" y="21" flags="0x4"/>
    </TTGlyph>
    <TTGlyph name="Udieresis" xMin="5" yMin="-15" xMax="766" yMax="920">
      <component glyphName="U" x="0" y="0" flags="0x204"/>
      <component glyphName="dieresis.case" x="219" y="21" flags="0x4"/>
    </TTGlyph>
    <TTGlyph name="Ugrave" xMin="5" yMin="-15" xMax="766" yMax="924">
      <component glyphName="U" x="0" y="0" flags="0x204"/>
      <component glyphName="grave.case" x="308" y="20" flags="0x4"/>
    </TTGlyph>
    <TTGlyph name="V" xMin="-7" yMin="-7" xMax="718" yMax="700">
      <contour>
        <pt x="-7" y="644" on="1"/>
        <pt x="-7" y="700" on="1"/>
        <pt x="339" y="700" on="1"/>
        <pt x="339" y="644" on="1"/>
        <pt x="257" y="627" on="1"/>
        <pt x="408" y="213" on="1"/>
        <pt x="545" y="622" on="1"/>
        <pt x="466" y="644" on="1"/>
        <pt x="466" y="700" on="1"/>
        <pt x="718" y="700" on="1"/>
        <pt x="718" y="644" on="1"/>
        <pt x="626" y="622" on="1"/>
        <pt x="408" y="-7" on="1"/>
        <pt x="311" y="-7" on="1"/>
        <pt x="82" y="622" on="1"/>
      </contour>
    </TTGlyph>
    <TTGlyph name="W" xMin="-10" yMin="-7" xMax="1046" yMax="700">
      <contour>
        <pt x="-10" y="644" on="1"/>
        <pt x="-10" y="700" on="1"/>
        <pt x="334" y="700" on="1"/>
        <pt x="334" y="644" on="1"/>
        <pt x="250" y="626" on="1"/>
        <pt x="375" y="260" on="1"/>
        <pt x="497" y="700" on="1"/>
        <pt x="630" y="700" on="1"/>
        <pt x="778" y="259" on="1"/>
        <pt x="875" y="622" on="1"/>
        <pt x="794" y="644" on="1"/>
        <pt x="794" y="700" on="1"/>
        <pt x="1046" y="700" on="1"/>
        <pt x="1046" y="644" on="1"/>
        <pt x="954" y="622" on="1"/>
        <pt x="784" y="-7" on="1"/>
        <pt x="687" y="-7" on="1"/>
        <pt x="519" y="499" on="1"/>
        <pt x="376" y="-7" on="1"/>
        <pt x="285" y="-7" on="1"/>
        <pt x="77" y="623" on="1"/>
      </contour>
    </TTGlyph>
    <TTGlyph name="X" xMin="7" yMin="0" xMax="747" yMax="700">
      <contour>
        <pt x="7" y="0" on="1"/>
        <pt x="7" y="56" on="1"/>
        <pt x="99" y="78" on="1"/>
        <pt x="287" y="338" on="1"/>
        <pt x="102" y="621" on="1"/>
        <pt x="10" y="644" on="1"/>
        <pt x="10" y="700" on="1"/>
        <pt x="347" y="700" on="1"/>
        <pt x="347" y="644" on="1"/>
        <pt x="289" y="631" on="1"/>
        <pt x="410" y="447" on="1"/>
        <pt x="534" y="624" on="1"/>
        <pt x="470" y="644" on="1"/>
        <pt x="470" y="700" on="1"/>
        <pt x="716" y="700" on="1"/>
        <pt x="716" y="644" on="1"/>
        <pt x="624" y="622" on="1"/>
        <pt x="453" y="387" on="1"/>
        <pt x="662" y="76" on="1"/>
        <pt x="747" y="56" on="1"/>
        <pt x="747" y="0" on="1"/>
        <pt x="410" y="0" on="1"/>
        <pt x="410" y="56" on="1"/>
        <pt x="468" y="67" on="1"/>
        <pt x="330" y="275" on="1"/>
        <pt x="189" y="76" on="1"/>
        <pt x="253" y="56" on="1"/>
        <pt x="253" y="0" on="1"/>
      </contour>
    </TTGlyph>
    <TTGlyph name="Y" xMin="-9" yMin="0" xMax="706" yMax="700">
      <contour>
        <pt x="-9" y="644" on="1"/>
        <pt x="-9" y="700" on="1"/>
        <pt x="319" y="700" on="1"/>
        <pt x="319" y="644" on="1"/>
        <pt x="254" y="631" on="1"/>
        <pt x="397" y="421" on="1"/>
        <pt x="525" y="624" on="1"/>
        <pt x="451" y="644" on="1"/>
        <pt x="451" y="700" on="1"/>
        <pt x="706" y="700" on="1"/>
        <pt x="706" y="644" on="1"/>
        <pt x="614" y="622" on="1"/>
        <pt x="434" y="336" on="1"/>
        <pt x="434" y="78" on="1"/>
        <pt x="526" y="56" on="1"/>
        <pt x="526" y="0" on="1"/>
        <pt x="179" y="0" on="1"/>
        <pt x="179" y="56" on="1"/>
        <pt x="271" y="78" on="1"/>
        <pt x="271" y="337" on="1"/>
        <pt x="72" y="624" on="1"/>
      </contour>
    </TTGlyph>
    <TTGlyph name="Yacute" xMin="-9" yMin="0" xMax="706" yMax="925">
      <component glyphName="Y" x="0" y="0" flags="0x204"/>
      <component glyphName="acute.case" x="319" y="21" flags="0x4"/>
    </TTGlyph>
    <TTGlyph name="Z" xMin="42" yMin="0" xMax="632" yMax="700">
      <contour>
        <pt x="42" y="0" on="1"/>
        <pt x="42" y="62" on="1"/>
        <pt x="402" y="623" on="1"/>
        <pt x="151" y="623" on="1"/>
        <pt x="108" y="480" on="1"/>
        <pt x="51" y="480" on="1"/>
        <pt x="51" y="700" on="1"/>
        <pt x="609" y="700" on="1"/>
        <pt x="609" y="638" on="1"/>
        <pt x="250" y="77" on="1"/>
        <pt x="507" y="77" on="1"/>
        <pt x="577" y="216" on="1"/>
        <pt x="632" y="216" on="1"/>
        <pt x="603" y="0" on="1"/>
      </contour>
    </TTGlyph>
    <TTGlyph name="a" xMin="30" yMin="-15" xMax="566" yMax="515">
      <contour>
        <pt x="30" y="124" on="1"/>
        <pt x="30" y="211" on="0"/>
        <pt x="173" y="302" on="0"/>
        <pt x="333" y="302" on="1"/>
        <pt x="333" y="332" on="1"/>
        <pt x="333" y="362" on="0"/>
        <pt x="332" y="389" on="0"/>
        <pt x="324" y="427" on="0"/>
        <pt x="309" y="443" on="0"/>
        <pt x="279" y="456" on="0"/>
        <pt x="257" y="456" on="1"/>
        <pt x="130" y="346" on="1"/>
        <pt x="62" y="385" on="0"/>
        <pt x="62" y="467" on="1"/>
        <pt x="92" y="480" on="1"/>
        <pt x="111" y="488" on="0"/>
        <pt x="221" y="515" on="0"/>
        <pt x="273" y="515" on="1"/>
        <pt x="488" y="515" on="0"/>
        <pt x="488" y="343" on="1"/>
        <pt x="488" y="75" on="1"/>
        <pt x="566" y="75" on="1"/>
        <pt x="566" y="32" on="1"/>
        <pt x="561" y="27" on="0"/>
        <pt x="543" y="11" on="0"/>
        <pt x="483" y="-15" on="0"/>
        <pt x="451" y="-15" on="1"/>
        <pt x="375" y="-15" on="0"/>
        <pt x="338" y="36" on="1"/>
        <pt x="271" y="-15" on="0"/>
        <pt x="192" y="-15" on="1"/>
        <pt x="123" y="-15" on="0"/>
        <pt x="30" y="55" on="0"/>
      </contour>
      <contour>
        <pt x="191" y="133" on="1"/>
        <pt x="191" y="104" on="0"/>
        <pt x="230" y="70" on="0"/>
        <pt x="258" y="70" on="1"/>
        <pt x="303" y="70" on="0"/>
        <pt x="333" y="103" on="1"/>
        <pt x="333" y="240" on="1"/>
        <pt x="277" y="240" on="0"/>
        <pt x="191" y="181" on="0"/>
      </contour>
    </TTGlyph>
    <TTGlyph name="aacute" xMin="30" yMin="-15" xMax="566" yMax="767">
      <component glyphName="a" x="0" y="0" flags="0x204"/>
      <component glyphName="acute" x="172" y="0" flags="0x4"/>
    </TTGlyph>
    <TTGlyph name="acircumflex" xMin="30" yMin="-15" xMax="566" yMax="766">
      <component glyphName="a" x="0" y="0" flags="0x204"/>
      <component glyphName="circumflex" x="127" y="0" flags="0x4"/>
    </TTGlyph>
    <TTGlyph name="acute" xMin="78" yMin="564" xMax="297" yMax="767">
      <contour>
        <pt x="78" y="591" on="1"/>
        <pt x="179" y="767" on="1"/>
        <pt x="251" y="755" on="0"/>
        <pt x="297" y="715" on="1"/>
        <pt x="138" y="564" on="1"/>
      </contour>
    </TTGlyph>
    <TTGlyph name="acute.case" xMin="-12" yMin="728" xMax="231" yMax="904">
      <contour>
        <pt x="-12" y="776" on="1"/>
        <pt x="136" y="904" on="1"/>
        <pt x="162" y="896" on="0"/>
        <pt x="218" y="839" on="0"/>
        <pt x="231" y="809" on="1"/>
        <pt x="27" y="728" on="1"/>
      </contour>
    </TTGlyph>
    <TTGlyph name="adieresis" xMin="30" yMin="-15" xMax="566" yMax="767">
      <component glyphName="a" x="0" y="0" flags="0x204"/>
      <component glyphName="dieresis" x="76" y="0" flags="0x4"/>
    </TTGlyph>
    <TTGlyph name="ae" xMin="31" yMin="-15" xMax="814" yMax="515">
      <contour>
        <pt x="31" y="124" on="1"/>
        <pt x="31" y="211" on="0"/>
        <pt x="174" y="302" on="0"/>
        <pt x="334" y="302" on="1"/>
        <pt x="334" y="332" on="1"/>
        <pt x="334" y="362" on="0"/>
        <pt x="333" y="389" on="0"/>
        <pt x="325" y="427" on="0"/>
        <pt x="310" y="443" on="0"/>
        <pt x="280" y="456" on="0"/>
        <pt x="258" y="456" on="1"/>
        <pt x="131" y="346" on="1"/>
        <pt x="62" y="386" on="0"/>
        <pt x="62" y="467" on="1"/>
        <pt x="92" y="480" on="1"/>
        <pt x="111" y="488" on="0"/>
        <pt x="222" y="515" on="0"/>
        <pt x="274" y="515" on="1"/>
        <pt x="382" y="515" on="0"/>
        <pt x="434" y="450" on="1"/>
        <pt x="499" y="515" on="0"/>
        <pt x="594" y="515" on="1"/>
        <pt x="673" y="515" on="0"/>
        <pt x="775" y="435" on="0"/>
        <pt x="814" y="317" on="0"/>
        <pt x="814" y="241" on="1"/>
        <pt x="490" y="241" on="1"/>
        <pt x="496" y="162" on="0"/>
        <pt x="586" y="60" on="0"/>
        <pt x="657" y="60" on="1"/>
        <pt x="710" y="60" on="0"/>
        <pt x="772" y="83" on="1"/>
        <pt x="787" y="26" on="1"/>
        <pt x="694" y="-15" on="0"/>
        <pt x="612" y="-15" on="1"/>
        <pt x="554" y="-15" on="0"/>
        <pt x="434" y="32" on="0"/>
        <pt x="400" y="87" on="1"/>
        <pt x="361" y="41" on="0"/>
        <pt x="252" y="-15" on="0"/>
        <pt x="193" y="-15" on="1"/>
        <pt x="124" y="-15" on="0"/>
        <pt x="31" y="55" on="0"/>
      </contour>
      <contour>
        <pt x="192" y="133" on="1"/>
        <pt x="192" y="104" on="0"/>
        <pt x="231" y="70" on="0"/>
        <pt x="259" y="70" on="1"/>
        <pt x="304" y="70" on="0"/>
        <pt x="334" y="103" on="1"/>
        <pt x="334" y="240" on="1"/>
        <pt x="278" y="240" on="0"/>
        <pt x="192" y="181" on="0"/>
      </contour>
      <contour>
        <pt x="490" y="298" on="1"/>
        <pt x="656" y="311" on="1"/>
        <pt x="656" y="340" on="0"/>
        <pt x="653" y="379" on="0"/>
        <pt x="641" y="426" on="0"/>
        <pt x="612" y="450" on="0"/>
        <pt x="589" y="450" on="1"/>
        <pt x="547" y="450" on="0"/>
        <pt x="490" y="356" on="0"/>
      </contour>
    </TTGlyph>
    <TTGlyph name="agrave" xMin="30" yMin="-15" xMax="566" yMax="767">
      <component glyphName="a" x="0" y="0" flags="0x204"/>
      <component glyphName="grave" x="230" y="0" flags="0x4"/>
    </TTGlyph>
    <TTGlyph name="ampersand" xMin="36" yMin="-15" xMax="773" yMax="715">
      <contour>
        <pt x="36" y="166" on="1"/>
        <pt x="36" y="292" on="0"/>
        <pt x="188" y="365" on="1"/>
        <pt x="140" y="419" on="0"/>
        <pt x="98" y="504" on="0"/>
        <pt x="98" y="554" on="1"/>
        <pt x="98" y="629" on="0"/>
        <pt x="207" y="715" on="0"/>
        <pt x="304" y="715" on="1"/>
        <pt x="399" y="715" on="0"/>
        <pt x="508" y="624" on="0"/>
        <pt x="508" y="558" on="1"/>
        <pt x="508" y="450" on="0"/>
        <pt x="362" y="372" on="1"/>
        <pt x="510" y="226" on="1"/>
        <pt x="528" y="269" on="0"/>
        <pt x="536" y="323" on="1"/>
        <pt x="476" y="345" on="1"/>
        <pt x="476" y="400" on="1"/>
        <pt x="691" y="400" on="1"/>
        <pt x="691" y="345" on="1"/>
        <pt x="606" y="323" on="1"/>
        <pt x="594" y="242" on="0"/>
        <pt x="562" y="176" on="1"/>
        <pt x="662" y="81" on="1"/>
        <pt x="773" y="55" on="1"/>
        <pt x="773" y="0" on="1"/>
        <pt x="565" y="0" on="1"/>
        <pt x="491" y="71" on="1"/>
        <pt x="407" y="-15" on="0"/>
        <pt x="279" y="-15" on="1"/>
        <pt x="164" y="-15" on="0"/>
        <pt x="36" y="79" on="0"/>
      </contour>
      <contour>
        <pt x="173" y="173" on="1"/>
        <pt x="173" y="121" on="0"/>
        <pt x="239" y="60" on="0"/>
        <pt x="294" y="60" on="1"/>
        <pt x="384" y="60" on="0"/>
        <pt x="442" y="118" on="1"/>
        <pt x="241" y="310" on="1"/>
        <pt x="173" y="252" on="0"/>
      </contour>
      <contour>
        <pt x="226" y="565" on="1"/>
        <pt x="226" y="543" on="0"/>
        <pt x="244" y="502" on="0"/>
        <pt x="261" y="481" on="1"/>
        <pt x="310" y="428" on="1"/>
        <pt x="380" y="484" on="0"/>
        <pt x="380" y="562" on="1"/>
        <pt x="380" y="602" on="0"/>
        <pt x="338" y="648" on="0"/>
        <pt x="302" y="648" on="1"/>
        <pt x="268" y="648" on="0"/>
        <pt x="226" y="604" on="0"/>
      </contour>
    </TTGlyph>
    <TTGlyph name="aring" xMin="30" yMin="-15" xMax="566" yMax="805">
      <component glyphName="a" x="0" y="0" flags="0x204"/>
      <component glyphName="ring" x="149" y="0" flags="0x4"/>
    </TTGlyph>
    <TTGlyph name="asciicircum" xMin="56" yMin="267" xMax="547" yMax="715">
      <contour>
        <pt x="56" y="267" on="1"/>
        <pt x="266" y="715" on="1"/>
        <pt x="336" y="715" on="1"/>
        <pt x="547" y="267" on="1"/>
        <pt x="452" y="267" on="1"/>
        <pt x="300" y="601" on="1"/>
        <pt x="150" y="267" on="1"/>
      </contour>
    </TTGlyph>
    <TTGlyph name="asciitilde" xMin="44" yMin="269" xMax="512" yMax="444">
      <contour>
        <pt x="44" y="282" on="1"/>
        <pt x="62" y="444" on="0"/>
        <pt x="179" y="444" on="1"/>
        <pt x="221" y="444" on="0"/>
        <pt x="344" y="373" on="0"/>
        <pt x="372" y="373" on="1"/>
        <pt x="424" y="373" on="0"/>
        <pt x="433" y="444" on="1"/>
        <pt x="512" y="432" on="1"/>
        <pt x="503" y="364" on="0"/>
        <pt x="429" y="269" on="0"/>
        <pt x="368" y="269" on="1"/>
        <pt x="326" y="269" on="0"/>
        <pt x="203" y="340" on="0"/>
        <pt x="175" y="340" on="1"/>
        <pt x="153" y="340" on="0"/>
        <pt x="127" y="313" on="0"/>
        <pt x="123" y="269" on="1"/>
      </contour>
    </TTGlyph>
    <TTGlyph name="asterisk" xMin="44" yMin="387" xMax="433" yMax="760">
      <contour>
        <pt x="44" y="583" on="1"/>
        <pt x="76" y="681" on="1"/>
        <pt x="209" y="612" on="1"/>
        <pt x="186" y="760" on="1"/>
        <pt x="290" y="760" on="1"/>
        <pt x="267" y="612" on="1"/>
        <pt x="401" y="680" on="1"/>
        <pt x="433" y="583" on="1"/>
        <pt x="286" y="555" on="1"/>
        <pt x="390" y="449" on="1"/>
        <pt x="307" y="388" on="1"/>
        <pt x="238" y="520" on="1"/>
        <pt x="169" y="387" on="1"/>
        <pt x="84" y="452" on="1"/>
        <pt x="191" y="556" on="1"/>
      </contour>
    </TTGlyph>
    <TTGlyph name="at" xMin="52" yMin="-110" xMax="878" yMax="715">
      <contour>
        <pt x="52" y="287" on="1"/>
        <pt x="52" y="472" on="0"/>
        <pt x="313" y="715" on="0"/>
        <pt x="507" y="715" on="1"/>
        <pt x="672" y="715" on="0"/>
        <pt x="878" y="539" on="0"/>
        <pt x="878" y="402" on="1"/>
        <pt x="878" y="269" on="0"/>
        <pt x="673" y="99" on="0"/>
        <pt x="530" y="99" on="1"/>
        <pt x="484" y="99" on="0"/>
        <pt x="484" y="137" on="1"/>
        <pt x="484" y="145" on="0"/>
        <pt x="488" y="168" on="0"/>
        <pt x="490" y="175" on="1"/>
        <pt x="493" y="182" on="1"/>
        <pt x="423" y="99" on="0"/>
        <pt x="344" y="99" on="1"/>
        <pt x="297" y="99" on="0"/>
        <pt x="251" y="165" on="0"/>
        <pt x="251" y="221" on="1"/>
        <pt x="251" y="350" on="0"/>
        <pt x="424" y="535" on="0"/>
        <pt x="538" y="535" on="1"/>
        <pt x="628" y="535" on="0"/>
        <pt x="703" y="496" on="1"/>
        <pt x="620" y="174" on="1"/>
        <pt x="698" y="194" on="0"/>
        <pt x="794" y="321" on="0"/>
        <pt x="794" y="410" on="1"/>
        <pt x="794" y="516" on="0"/>
        <pt x="631" y="650" on="0"/>
        <pt x="509" y="650" on="1"/>
        <pt x="420" y="650" on="0"/>
        <pt x="265" y="565" on="0"/>
        <pt x="165" y="396" on="0"/>
        <pt x="165" y="286" on="1"/>
        <pt x="165" y="132" on="0"/>
        <pt x="362" y="-42" on="0"/>
        <pt x="508" y="-42" on="1"/>
        <pt x="605" y="-42" on="0"/>
        <pt x="694" y="-5" on="1"/>
        <pt x="714" y="-51" on="1"/>
        <pt x="613" y="-110" on="0"/>
        <pt x="482" y="-110" on="1"/>
        <pt x="289" y="-110" on="0"/>
        <pt x="52" y="98" on="0"/>
      </contour>
      <contour>
        <pt x="386" y="213" on="1"/>
        <pt x="386" y="175" on="0"/>
        <pt x="407" y="175" on="1"/>
        <pt x="431" y="175" on="0"/>
        <pt x="502" y="254" on="0"/>
        <pt x="524" y="301" on="1"/>
        <pt x="570" y="480" on="1"/>
        <pt x="560" y="482" on="0"/>
        <pt x="550" y="482" on="1"/>
        <pt x="506" y="482" on="0"/>
        <pt x="429" y="396" on="0"/>
        <pt x="386" y="273" on="0"/>
      </contour>
    </TTGlyph>
    <TTGlyph name="atilde" xMin="30" yMin="-15" xMax="566" yMax="747">
      <component glyphName="a" x="0" y="0" flags="0x204"/>
      <component glyphName="tilde" x="54" y="2" flags="0x4"/>
    </TTGlyph>
    <TTGlyph name="b" xMin="-18" yMin="-15" xMax="573" yMax="800">
      <contour>
        <pt x="-18" y="709" on="1"/>
        <pt x="-18" y="762" on="1"/>
        <pt x="142" y="800" on="1"/>
        <pt x="221" y="800" on="1"/>
        <pt x="221" y="464" on="1"/>
        <pt x="283" y="515" on="0"/>
        <pt x="365" y="515" on="1"/>
        <pt x="458" y="515" on="0"/>
        <pt x="573" y="392" on="0"/>
        <pt x="573" y="269" on="1"/>
        <pt x="573" y="178" on="0"/>
        <pt x="480" y="46" on="0"/>
        <pt x="343" y="-15" on="0"/>
        <pt x="264" y="-15" on="1"/>
        <pt x="150" y="-15" on="0"/>
        <pt x="67" y="36" on="1"/>
        <pt x="67" y="709" on="1"/>
      </contour>
      <contour>
        <pt x="221" y="53" on="1"/>
        <pt x="233" y="51" on="0"/>
        <pt x="255" y="51" on="1"/>
        <pt x="323" y="51" on="0"/>
        <pt x="414" y="161" on="0"/>
        <pt x="414" y="265" on="1"/>
        <pt x="414" y="430" on="0"/>
        <pt x="313" y="430" on="1"/>
        <pt x="274" y="430" on="0"/>
        <pt x="221" y="400" on="1"/>
      </contour>
    </TTGlyph>
    <TTGlyph name="backslash" xMin="28" yMin="0" xMax="433" yMax="700">
      <contour>
        <pt x="28" y="700" on="1"/>
        <pt x="122" y="700" on="1"/>
        <pt x="433" y="0" on="1"/>
        <pt x="338" y="0" on="1"/>
      </contour>
    </TTGlyph>
    <TTGlyph name="bar" xMin="81" yMin="-240" xMax="176" yMax="760">
      <contour>
        <pt x="81" y="-240" on="1"/>
        <pt x="81" y="760" on="1"/>
        <pt x="176" y="760" on="1"/>
        <pt x="176" y="-240" on="1"/>
      </contour>
    </TTGlyph>
    <TTGlyph name="braceleft" xMin="-31" yMin="-128" xMax="318" yMax="760">
      <contour>
        <pt x="-31" y="288" on="1"/>
        <pt x="-31" y="345" on="1"/>
        <pt x="25" y="348" on="0"/>
        <pt x="87" y="394" on="0"/>
        <pt x="87" y="450" on="1"/>
        <pt x="87" y="617" on="1"/>
        <pt x="87" y="686" on="0"/>
        <pt x="160" y="760" on="0"/>
        <pt x="231" y="760" on="1"/>
        <pt x="318" y="760" on="1"/>
        <pt x="318" y="702" on="1"/>
        <pt x="288" y="702" on="1"/>
        <pt x="245" y="702" on="0"/>
        <pt x="206" y="650" on="0"/>
        <pt x="206" y="597" on="1"/>
        <pt x="206" y="441" on="1"/>
        <pt x="206" y="336" on="0"/>
        <pt x="134" y="318" on="1"/>
        <pt x="134" y="317" on="1"/>
        <pt x="206" y="298" on="0"/>
        <pt x="206" y="193" on="1"/>
        <pt x="206" y="35" on="1"/>
        <pt x="206" y="-70" on="0"/>
        <pt x="288" y="-70" on="1"/>
        <pt x="318" y="-70" on="1"/>
        <pt x="318" y="-128" on="1"/>
        <pt x="231" y="-128" on="1"/>
        <pt x="162" y="-128" on="0"/>
        <pt x="87" y="-50" on="0"/>
        <pt x="87" y="16" on="1"/>
        <pt x="87" y="182" on="1"/>
        <pt x="87" y="240" on="0"/>
        <pt x="26" y="285" on="0"/>
      </contour>
    </TTGlyph>
    <TTGlyph name="braceright" xMin="56" yMin="-128" xMax="405" yMax="760">
      <contour>
        <pt x="405" y="288" on="1"/>
        <pt x="348" y="285" on="0"/>
        <pt x="287" y="240" on="0"/>
        <pt x="287" y="182" on="1"/>
        <pt x="287" y="16" on="1"/>
        <pt x="287" y="-50" on="0"/>
        <pt x="212" y="-128" on="0"/>
        <pt x="143" y="-128" on="1"/>
        <pt x="56" y="-128" on="1"/>
        <pt x="56" y="-70" on="1"/>
        <pt x="86" y="-70" on="1"/>
        <pt x="168" y="-70" on="0"/>
        <pt x="168" y="35" on="1"/>
        <pt x="168" y="193" on="1"/>
        <pt x="168" y="298" on="0"/>
        <pt x="240" y="317" on="1"/>
        <pt x="240" y="318" on="1"/>
        <pt x="168" y="336" on="0"/>
        <pt x="168" y="441" on="1"/>
        <pt x="168" y="597" on="1"/>
        <pt x="168" y="650" on="0"/>
        <pt x="129" y="702" on="0"/>
        <pt x="86" y="702" on="1"/>
        <pt x="56" y="702" on="1"/>
        <pt x="56" y="760" on="1"/>
        <pt x="143" y="760" on="1"/>
        <pt x="214" y="760" on="0"/>
        <pt x="287" y="686" on="0"/>
        <pt x="287" y="617" on="1"/>
        <pt x="287" y="450" on="1"/>
        <pt x="287" y="394" on="0"/>
        <pt x="349" y="348" on="0"/>
        <pt x="405" y="345" on="1"/>
      </contour>
    </TTGlyph>
    <TTGlyph name="bracketleft" xMin="82" yMin="-128" xMax="295" yMax="760">
      <contour>
        <pt x="82" y="-128" on="1"/>
        <pt x="82" y="760" on="1"/>
        <pt x="295" y="760" on="1"/>
        <pt x="295" y="695" on="1"/>
        <pt x="201" y="695" on="1"/>
        <pt x="201" y="-63" on="1"/>
        <pt x="295" y="-63" on="1"/>
        <pt x="295" y="-128" on="1"/>
      </contour>
    </TTGlyph>
    <TTGlyph name="bracketright" xMin="27" yMin="-128" xMax="240" yMax="760">
      <contour>
        <pt x="27" y="-63" on="1"/>
        <pt x="121" y="-63" on="1"/>
        <pt x="121" y="695" on="1"/>
        <pt x="27" y="695" on="1"/>
        <pt x="27" y="760" on="1"/>
        <pt x="240" y="760" on="1"/>
        <pt x="240" y="-128" on="1"/>
        <pt x="27" y="-128" on="1"/>
      </contour>
    </TTGlyph>
    <TTGlyph name="brokenbar" xMin="84" yMin="-240" xMax="159" yMax="760">
      <contour>
        <pt x="84" y="160" on="1"/>
        <pt x="159" y="160" on="1"/>
        <pt x="159" y="-240" on="1"/>
        <pt x="84" y="-240" on="1"/>
      </contour>
      <contour>
        <pt x="84" y="360" on="1"/>
        <pt x="84" y="760" on="1"/>
        <pt x="159" y="760" on="1"/>
        <pt x="159" y="360" on="1"/>
      </contour>
    </TTGlyph>
    <TTGlyph name="bullet" xMin="55" yMin="195" xMax="379" yMax="519">
      <contour>
        <pt x="55" y="359" on="1"/>
        <pt x="55" y="423" on="0"/>
        <pt x="151" y="519" on="0"/>
        <pt x="219" y="519" on="1"/>
        <pt x="284" y="519" on="0"/>
        <pt x="379" y="425" on="0"/>
        <pt x="379" y="359" on="1"/>
        <pt x="379" y="295" on="0"/>
        <pt x="284" y="195" on="0"/>
        <pt x="219" y="195" on="1"/>
        <pt x="151" y="195" on="0"/>
        <pt x="55" y="295" on="0"/>
      </contour>
    </TTGlyph>
    <TTGlyph name="c" xMin="34" yMin="-15" xMax="473" yMax="515">
      <contour>
        <pt x="34" y="252" on="1"/>
        <pt x="34" y="368" on="0"/>
        <pt x="187" y="515" on="0"/>
        <pt x="291" y="515" on="1"/>
        <pt x="378" y="515" on="0"/>
        <pt x="462" y="473" on="1"/>
        <pt x="459" y="390" on="0"/>
        <pt x="389" y="351" on="1"/>
        <pt x="303" y="450" on="1"/>
        <pt x="297" y="450" on="1"/>
        <pt x="255" y="438" on="0"/>
        <pt x="191" y="339" on="0"/>
        <pt x="191" y="250" on="1"/>
        <pt x="190" y="150" on="0"/>
        <pt x="236" y="100" on="1"/>
        <pt x="279" y="59" on="0"/>
        <pt x="348" y="59" on="1"/>
        <pt x="377" y="59" on="0"/>
        <pt x="432" y="69" on="0"/>
        <pt x="461" y="78" on="1"/>
        <pt x="473" y="19" on="1"/>
        <pt x="392" y="-15" on="0"/>
        <pt x="307" y="-15" on="1"/>
        <pt x="194" y="-15" on="0"/>
        <pt x="34" y="129" on="0"/>
      </contour>
    </TTGlyph>
    <TTGlyph name="caron" xMin="5" yMin="591" xMax="345" yMax="795">
      <contour>
        <pt x="5" y="771" on="1"/>
        <pt x="72" y="795" on="1"/>
        <pt x="174" y="683" on="1"/>
        <pt x="277" y="795" on="1"/>
        <pt x="345" y="771" on="1"/>
        <pt x="228" y="591" on="1"/>
        <pt x="120" y="591" on="1"/>
      </contour>
    </TTGlyph>
    <TTGlyph name="caron.case" xMin="-5" yMin="752" xMax="355" yMax="898">
      <contour>
        <pt x="-5" y="874" on="1"/>
        <pt x="62" y="898" on="1"/>
        <pt x="174" y="834" on="1"/>
        <pt x="287" y="898" on="1"/>
        <pt x="355" y="874" on="1"/>
        <pt x="229" y="752" on="1"/>
        <pt x="120" y="752" on="1"/>
      </contour>
    </TTGlyph>
    <TTGlyph name="ccedilla" xMin="34" yMin="-240" xMax="473" yMax="515">
      <contour>
        <pt x="136" y="-163" on="1"/>
        <pt x="176" y="-171" on="0"/>
        <pt x="186" y="-171" on="1"/>
        <pt x="215" y="-171" on="0"/>
        <pt x="250" y="-145" on="0"/>
        <pt x="250" y="-123" on="1"/>
        <pt x="250" y="-95" on="0"/>
        <pt x="216" y="-71" on="0"/>
        <pt x="182" y="-69" on="1"/>
        <pt x="201" y="4" on="1"/>
        <pt x="154" y="21" on="0"/>
        <pt x="114" y="57" on="1"/>
        <pt x="34" y="129" on="0"/>
        <pt x="34" y="252" on="1"/>
        <pt x="34" y="368" on="0"/>
        <pt x="187" y="515" on="0"/>
        <pt x="291" y="515" on="1"/>
        <pt x="378" y="515" on="0"/>
        <pt x="462" y="473" on="1"/>
        <pt x="459" y="390" on="0"/>
        <pt x="389" y="351" on="1"/>
        <pt x="303" y="450" on="1"/>
        <pt x="297" y="450" on="1"/>
        <pt x="255" y="438" on="0"/>
        <pt x="191" y="339" on="0"/>
        <pt x="191" y="250" on="1"/>
        <pt x="190" y="150" on="0"/>
        <pt x="236" y="100" on="1"/>
        <pt x="279" y="59" on="0"/>
        <pt x="348" y="59" on="1"/>
        <pt x="377" y="59" on="0"/>
        <pt x="432" y="69" on="0"/>
        <pt x="461" y="78" on="1"/>
        <pt x="473" y="19" on="1"/>
        <pt x="392" y="-15" on="0"/>
        <pt x="307" y="-15" on="1"/>
        <pt x="283" y="-15" on="0"/>
        <pt x="260" y="-12" on="1"/>
        <pt x="255" y="-34" on="1"/>
        <pt x="309" y="-34" on="0"/>
        <pt x="375" y="-85" on="0"/>
        <pt x="375" y="-126" on="1"/>
        <pt x="375" y="-180" on="0"/>
        <pt x="288" y="-240" on="0"/>
        <pt x="213" y="-240" on="1"/>
        <pt x="191" y="-240" on="0"/>
        <pt x="136" y="-229" on="1"/>
      </contour>
    </TTGlyph>
    <TTGlyph name="cedilla" xMin="60" yMin="-240" xMax="299" yMax="9">
      <contour>
        <pt x="60" y="-163" on="1"/>
        <pt x="100" y="-171" on="0"/>
        <pt x="110" y="-171" on="1"/>
        <pt x="139" y="-171" on="0"/>
        <pt x="174" y="-145" on="0"/>
        <pt x="174" y="-123" on="1"/>
        <pt x="174" y="-95" on="0"/>
        <pt x="140" y="-71" on="0"/>
        <pt x="106" y="-69" on="1"/>
        <pt x="127" y="9" on="1"/>
        <pt x="189" y="9" on="1"/>
        <pt x="179" y="-34" on="1"/>
        <pt x="233" y="-34" on="0"/>
        <pt x="299" y="-85" on="0"/>
        <pt x="299" y="-126" on="1"/>
        <pt x="299" y="-180" on="0"/>
        <pt x="212" y="-240" on="0"/>
        <pt x="137" y="-240" on="1"/>
        <pt x="115" y="-240" on="0"/>
        <pt x="60" y="-229" on="1"/>
      </contour>
    </TTGlyph>
    <TTGlyph name="cent" xMin="42" yMin="-140" xMax="481" yMax="648">
      <contour>
        <pt x="261" y="511" on="1"/>
        <pt x="261" y="648" on="1"/>
        <pt x="334" y="648" on="1"/>
        <pt x="334" y="514" on="1"/>
        <pt x="370" y="512" on="0"/>
        <pt x="446" y="492" on="0"/>
        <pt x="480" y="473" on="1"/>
        <pt x="480" y="441" on="0"/>
        <pt x="451" y="371" on="0"/>
        <pt x="422" y="348" on="1"/>
        <pt x="335" y="450" on="1"/>
        <pt x="335" y="450" on="1"/>
        <pt x="334" y="450" on="1"/>
        <pt x="334" y="60" on="1"/>
        <pt x="370" y="59" on="0"/>
        <pt x="434" y="68" on="0"/>
        <pt x="469" y="78" on="1"/>
        <pt x="481" y="19" on="1"/>
        <pt x="407" y="-12" on="0"/>
        <pt x="334" y="-15" on="1"/>
        <pt x="334" y="-140" on="1"/>
        <pt x="261" y="-140" on="1"/>
        <pt x="261" y="-10" on="1"/>
        <pt x="213" y="-3" on="0"/>
        <pt x="132" y="40" on="0"/>
        <pt x="74" y="106" on="0"/>
        <pt x="42" y="195" on="0"/>
        <pt x="42" y="250" on="1"/>
        <pt x="42" y="304" on="0"/>
        <pt x="73" y="394" on="0"/>
        <pt x="131" y="461" on="0"/>
        <pt x="211" y="503" on="0"/>
      </contour>
      <contour>
        <pt x="199" y="250" on="1"/>
        <pt x="199" y="129" on="0"/>
        <pt x="261" y="85" on="1"/>
        <pt x="261" y="431" on="1"/>
        <pt x="199" y="392" on="0"/>
      </contour>
    </TTGlyph>
    <TTGlyph name="circumflex" xMin="-9" yMin="562" xMax="332" yMax="766">
      <contour>
        <pt x="-9" y="586" on="1"/>
        <pt x="106" y="766" on="1"/>
        <pt x="215" y="766" on="1"/>
        <pt x="332" y="586" on="1"/>
        <pt x="264" y="562" on="1"/>
        <pt x="161" y="687" on="1"/>
        <pt x="59" y="562" on="1"/>
      </contour>
    </TTGlyph>
    <TTGlyph name="circumflex.case" xMin="-5" yMin="743" xMax="355" yMax="888">
      <contour>
        <pt x="-5" y="767" on="1"/>
        <pt x="120" y="888" on="1"/>
        <pt x="229" y="888" on="1"/>
        <pt x="355" y="767" on="1"/>
        <pt x="287" y="743" on="1"/>
        <pt x="174" y="806" on="1"/>
        <pt x="62" y="743" on="1"/>
      </contour>
    </TTGlyph>
    <TTGlyph name="colon" xMin="57" yMin="-16" xMax="228" yMax="488">
      <contour>
        <pt x="57" y="70" on="1"/>
        <pt x="57" y="104" on="0"/>
        <pt x="108" y="155" on="0"/>
        <pt x="143" y="155" on="1"/>
        <pt x="178" y="155" on="0"/>
        <pt x="228" y="105" on="0"/>
        <pt x="228" y="70" on="1"/>
        <pt x="228" y="37" on="0"/>
        <pt x="178" y="-16" on="0"/>
        <pt x="143" y="-16" on="1"/>
        <pt x="108" y="-16" on="0"/>
        <pt x="57" y="37" on="0"/>
      </contour>
      <contour>
        <pt x="57" y="403" on="1"/>
        <pt x="57" y="437" on="0"/>
        <pt x="108" y="488" on="0"/>
        <pt x="143" y="488" on="1"/>
        <pt x="178" y="488" on="0"/>
        <pt x="228" y="438" on="0"/>
        <pt x="228" y="403" on="1"/>
        <pt x="228" y="370" on="0"/>
        <pt x="178" y="317" on="0"/>
        <pt x="143" y="317" on="1"/>
        <pt x="108" y="317" on="0"/>
        <pt x="57" y="370" on="0"/>
      </contour>
    </TTGlyph>
    <TTGlyph name="comma" xMin="25" yMin="-177" xMax="222" yMax="141">
      <contour>
        <pt x="25" y="-135" on="1"/>
        <pt x="84" y="-74" on="0"/>
        <pt x="118" y="-5" on="1"/>
        <pt x="37" y="46" on="1"/>
        <pt x="37" y="87" on="0"/>
        <pt x="92" y="141" on="0"/>
        <pt x="129" y="141" on="1"/>
        <pt x="174" y="141" on="0"/>
        <pt x="222" y="90" on="0"/>
        <pt x="222" y="43" on="1"/>
        <pt x="222" y="-15" on="0"/>
        <pt x="125" y="-143" on="0"/>
        <pt x="72" y="-177" on="1"/>
      </contour>
    </TTGlyph>
    <TTGlyph name="copyright" xMin="47" yMin="-10" xMax="782" yMax="725">
      <contour>
        <pt x="415" y="725" on="1"/>
        <pt x="490" y="725" on="0"/>
        <pt x="624" y="666" on="0"/>
        <pt x="724" y="566" on="0"/>
        <pt x="782" y="432" on="0"/>
        <pt x="782" y="357" on="1"/>
        <pt x="782" y="282" on="0"/>
        <pt x="724" y="149" on="0"/>
        <pt x="625" y="49" on="0"/>
        <pt x="491" y="-10" on="0"/>
        <pt x="415" y="-10" on="1"/>
        <pt x="339" y="-10" on="0"/>
        <pt x="205" y="48" on="0"/>
        <pt x="105" y="148" on="0"/>
        <pt x="47" y="281" on="0"/>
        <pt x="47" y="357" on="1"/>
        <pt x="47" y="433" on="0"/>
        <pt x="105" y="567" on="0"/>
        <pt x="205" y="667" on="0"/>
        <pt x="339" y="725" on="0"/>
      </contour>
      <contour>
        <pt x="415" y="55" on="1"/>
        <pt x="478" y="55" on="0"/>
        <pt x="589" y="103" on="0"/>
        <pt x="670" y="185" on="0"/>
        <pt x="717" y="295" on="0"/>
        <pt x="717" y="357" on="1"/>
        <pt x="717" y="420" on="0"/>
        <pt x="670" y="530" on="0"/>
        <pt x="588" y="613" on="0"/>
        <pt x="478" y="660" on="0"/>
        <pt x="415" y="660" on="1"/>
        <pt x="353" y="660" on="0"/>
        <pt x="243" y="612" on="0"/>
        <pt x="161" y="529" on="0"/>
        <pt x="113" y="419" on="0"/>
        <pt x="113" y="357" on="1"/>
        <pt x="113" y="295" on="0"/>
        <pt x="161" y="185" on="0"/>
        <pt x="243" y="103" on="0"/>
        <pt x="353" y="55" on="0"/>
      </contour>
      <contour>
        <pt x="217" y="357" on="1"/>
        <pt x="217" y="463" on="0"/>
        <pt x="329" y="576" on="0"/>
        <pt x="438" y="576" on="1"/>
        <pt x="503" y="576" on="0"/>
        <pt x="554" y="553" on="1"/>
        <pt x="554" y="442" on="1"/>
        <pt x="507" y="442" on="1"/>
        <pt x="483" y="519" on="1"/>
        <pt x="475" y="520" on="0"/>
        <pt x="464" y="521" on="0"/>
        <pt x="460" y="521" on="1"/>
        <pt x="328" y="521" on="0"/>
        <pt x="328" y="357" on="1"/>
        <pt x="328" y="193" on="0"/>
        <pt x="457" y="193" on="1"/>
        <pt x="474" y="193" on="1"/>
        <pt x="515" y="278" on="1"/>
        <pt x="562" y="278" on="1"/>
        <pt x="546" y="167" on="1"/>
        <pt x="491" y="138" on="0"/>
        <pt x="427" y="138" on="1"/>
        <pt x="327" y="138" on="0"/>
        <pt x="217" y="252" on="0"/>
      </contour>
    </TTGlyph>
    <TTGlyph name="currency" xMin="58" yMin="109" xMax="554" yMax="606">
      <contour>
        <pt x="58" y="176" on="1"/>
        <pt x="128" y="246" on="1"/>
        <pt x="95" y="295" on="0"/>
        <pt x="95" y="359" on="1"/>
        <pt x="95" y="417" on="0"/>
        <pt x="127" y="470" on="1"/>
        <pt x="58" y="540" on="1"/>
        <pt x="125" y="606" on="1"/>
        <pt x="194" y="538" on="1"/>
        <pt x="243" y="569" on="0"/>
        <pt x="306" y="569" on="1"/>
        <pt x="367" y="569" on="0"/>
        <pt x="418" y="536" on="1"/>
        <pt x="487" y="605" on="1"/>
        <pt x="554" y="539" on="1"/>
        <pt x="485" y="470" on="1"/>
        <pt x="517" y="414" on="0"/>
        <pt x="517" y="359" on="1"/>
        <pt x="517" y="298" on="0"/>
        <pt x="483" y="246" on="1"/>
        <pt x="553" y="178" on="1"/>
        <pt x="487" y="111" on="1"/>
        <pt x="418" y="179" on="1"/>
        <pt x="366" y="148" on="0"/>
        <pt x="306" y="148" on="1"/>
        <pt x="243" y="148" on="0"/>
        <pt x="194" y="179" on="1"/>
        <pt x="124" y="109" on="1"/>
      </contour>
      <contour>
        <pt x="188" y="359" on="1"/>
        <pt x="188" y="334" on="0"/>
        <pt x="206" y="291" on="0"/>
        <pt x="238" y="259" on="0"/>
        <pt x="281" y="241" on="0"/>
        <pt x="306" y="241" on="1"/>
        <pt x="330" y="241" on="0"/>
        <pt x="373" y="260" on="0"/>
        <pt x="405" y="292" on="0"/>
        <pt x="424" y="335" on="0"/>
        <pt x="424" y="359" on="1"/>
        <pt x="424" y="383" on="0"/>
        <pt x="405" y="425" on="0"/>
        <pt x="372" y="457" on="0"/>
        <pt x="330" y="476" on="0"/>
        <pt x="306" y="476" on="1"/>
        <pt x="282" y="476" on="0"/>
        <pt x="239" y="457" on="0"/>
        <pt x="207" y="426" on="0"/>
        <pt x="188" y="383" on="0"/>
      </contour>
    </TTGlyph>
    <TTGlyph name="d" xMin="35" yMin="-15" xMax="620" yMax="800">
      <contour>
        <pt x="35" y="232" on="1"/>
        <pt x="35" y="367" on="0"/>
        <pt x="206" y="515" on="0"/>
        <pt x="329" y="515" on="1"/>
        <pt x="360" y="515" on="0"/>
        <pt x="387" y="509" on="1"/>
        <pt x="387" y="709" on="1"/>
        <pt x="302" y="709" on="1"/>
        <pt x="302" y="762" on="1"/>
        <pt x="462" y="800" on="1"/>
        <pt x="542" y="800" on="1"/>
        <pt x="542" y="75" on="1"/>
        <pt x="620" y="75" on="1"/>
        <pt x="620" y="32" on="1"/>
        <pt x="614" y="27" on="0"/>
        <pt x="593" y="11" on="0"/>
        <pt x="531" y="-15" on="0"/>
        <pt x="503" y="-15" on="1"/>
        <pt x="461" y="-15" on="0"/>
        <pt x="404" y="25" on="0"/>
        <pt x="392" y="48" on="1"/>
        <pt x="337" y="-15" on="0"/>
        <pt x="257" y="-15" on="1"/>
        <pt x="166" y="-15" on="0"/>
        <pt x="35" y="112" on="0"/>
      </contour>
      <contour>
        <pt x="193" y="236" on="1"/>
        <pt x="193" y="154" on="0"/>
        <pt x="264" y="70" on="0"/>
        <pt x="299" y="70" on="1"/>
        <pt x="349" y="70" on="0"/>
        <pt x="387" y="107" on="1"/>
        <pt x="387" y="443" on="1"/>
        <pt x="359" y="450" on="0"/>
        <pt x="338" y="450" on="1"/>
        <pt x="272" y="450" on="0"/>
        <pt x="193" y="345" on="0"/>
      </contour>
    </TTGlyph>
    <TTGlyph name="degree" xMin="34" yMin="455" xMax="341" yMax="762">
      <contour>
        <pt x="78" y="500" on="1"/>
        <pt x="34" y="546" on="0"/>
        <pt x="34" y="609" on="1"/>
        <pt x="34" y="641" on="0"/>
        <pt x="58" y="697" on="0"/>
        <pt x="100" y="738" on="0"/>
        <pt x="156" y="762" on="0"/>
        <pt x="187" y="762" on="1"/>
        <pt x="218" y="762" on="0"/>
        <pt x="274" y="738" on="0"/>
        <pt x="316" y="697" on="0"/>
        <pt x="341" y="641" on="0"/>
        <pt x="341" y="609" on="1"/>
        <pt x="341" y="577" on="0"/>
        <pt x="317" y="521" on="0"/>
        <pt x="275" y="479" on="0"/>
        <pt x="219" y="455" on="0"/>
        <pt x="187" y="455" on="1"/>
        <pt x="123" y="455" on="0"/>
      </contour>
      <contour>
        <pt x="113" y="609" on="1"/>
        <pt x="113" y="578" on="0"/>
        <pt x="157" y="534" on="0"/>
        <pt x="187" y="534" on="1"/>
        <pt x="218" y="534" on="0"/>
        <pt x="262" y="578" on="0"/>
        <pt x="262" y="609" on="1"/>
        <pt x="262" y="639" on="0"/>
        <pt x="218" y="683" on="0"/>
        <pt x="187" y="683" on="1"/>
        <pt x="157" y="683" on="0"/>
        <pt x="113" y="639" on="0"/>
      </contour>
    </TTGlyph>
    <TTGlyph name="dieresis" xMin="32" yMin="608" xMax="391" yMax="767">
      <contour>
        <pt x="32" y="689" on="1"/>
        <pt x="32" y="722" on="0"/>
        <pt x="78" y="767" on="0"/>
        <pt x="111" y="767" on="1"/>
        <pt x="146" y="767" on="0"/>
        <pt x="191" y="722" on="0"/>
        <pt x="191" y="689" on="1"/>
        <pt x="191" y="654" on="0"/>
        <pt x="146" y="608" on="0"/>
        <pt x="111" y="608" on="1"/>
        <pt x="78" y="608" on="0"/>
        <pt x="32" y="654" on="0"/>
      </contour>
      <contour>
        <pt x="232" y="689" on="1"/>
        <pt x="232" y="722" on="0"/>
        <pt x="278" y="767" on="0"/>
        <pt x="311" y="767" on="1"/>
        <pt x="346" y="767" on="0"/>
        <pt x="391" y="722" on="0"/>
        <pt x="391" y="689" on="1"/>
        <pt x="391" y="654" on="0"/>
        <pt x="346" y="608" on="0"/>
        <pt x="311" y="608" on="1"/>
        <pt x="278" y="608" on="0"/>
        <pt x="232" y="654" on="0"/>
      </contour>
    </TTGlyph>
    <TTGlyph name="dieresis.case" xMin="22" yMin="740" xMax="401" yMax="899">
      <contour>
        <pt x="22" y="821" on="1"/>
        <pt x="22" y="854" on="0"/>
        <pt x="68" y="899" on="0"/>
        <pt x="101" y="899" on="1"/>
        <pt x="136" y="899" on="0"/>
        <pt x="181" y="854" on="0"/>
        <pt x="181" y="821" on="1"/>
        <pt x="181" y="786" on="0"/>
        <pt x="136" y="740" on="0"/>
        <pt x="101" y="740" on="1"/>
        <pt x="68" y="740" on="0"/>
        <pt x="22" y="786" on="0"/>
      </contour>
      <contour>
        <pt x="242" y="821" on="1"/>
        <pt x="242" y="854" on="0"/>
        <pt x="288" y="899" on="0"/>
        <pt x="321" y="899" on="1"/>
        <pt x="356" y="899" on="0"/>
        <pt x="401" y="854" on="0"/>
        <pt x="401" y="821" on="1"/>
        <pt x="401" y="786" on="0"/>
        <pt x="356" y="740" on="0"/>
        <pt x="321" y="740" on="1"/>
        <pt x="288" y="740" on="0"/>
        <pt x="242" y="786" on="0"/>
      </contour>
    </TTGlyph>
    <TTGlyph name="divide" xMin="47" yMin="119" xMax="496" yMax="594">
      <contour>
        <pt x="47" y="313" on="1"/>
        <pt x="47" y="399" on="1"/>
        <pt x="496" y="399" on="1"/>
        <pt x="496" y="313" on="1"/>
      </contour>
      <contour>
        <pt x="205" y="187" on="1"/>
        <pt x="205" y="215" on="0"/>
        <pt x="245" y="254" on="0"/>
        <pt x="272" y="254" on="1"/>
        <pt x="300" y="254" on="0"/>
        <pt x="339" y="215" on="0"/>
        <pt x="339" y="187" on="1"/>
        <pt x="339" y="160" on="0"/>
        <pt x="300" y="119" on="0"/>
        <pt x="272" y="119" on="1"/>
        <pt x="245" y="119" on="0"/>
        <pt x="205" y="160" on="0"/>
      </contour>
      <contour>
        <pt x="205" y="526" on="1"/>
        <pt x="205" y="554" on="0"/>
        <pt x="245" y="594" on="0"/>
        <pt x="272" y="594" on="1"/>
        <pt x="300" y="594" on="0"/>
        <pt x="339" y="554" on="0"/>
        <pt x="339" y="526" on="1"/>
        <pt x="339" y="499" on="0"/>
        <pt x="300" y="458" on="0"/>
        <pt x="272" y="458" on="1"/>
        <pt x="245" y="458" on="0"/>
        <pt x="205" y="499" on="0"/>
      </contour>
    </TTGlyph>
    <TTGlyph name="dollar" xMin="55" yMin="-83" xMax="569" yMax="777">
      <contour>
        <pt x="55" y="32" on="1"/>
        <pt x="55" y="216" on="1"/>
        <pt x="111" y="216" on="1"/>
        <pt x="162" y="68" on="1"/>
        <pt x="210" y="53" on="0"/>
        <pt x="273" y="53" on="1"/>
        <pt x="277" y="53" on="1"/>
        <pt x="277" y="304" on="1"/>
        <pt x="272" y="306" on="0"/>
        <pt x="253" y="315" on="0"/>
        <pt x="248" y="317" on="1"/>
        <pt x="163" y="354" on="0"/>
        <pt x="63" y="454" on="0"/>
        <pt x="63" y="534" on="1"/>
        <pt x="63" y="610" on="0"/>
        <pt x="181" y="706" on="0"/>
        <pt x="277" y="714" on="1"/>
        <pt x="277" y="777" on="1"/>
        <pt x="351" y="777" on="1"/>
        <pt x="351" y="714" on="1"/>
        <pt x="457" y="708" on="0"/>
        <pt x="525" y="684" on="1"/>
        <pt x="525" y="500" on="1"/>
        <pt x="469" y="500" on="1"/>
        <pt x="420" y="641" on="1"/>
        <pt x="394" y="646" on="0"/>
        <pt x="351" y="648" on="1"/>
        <pt x="351" y="429" on="1"/>
        <pt x="362" y="424" on="0"/>
        <pt x="371" y="421" on="1"/>
        <pt x="420" y="404" on="0"/>
        <pt x="500" y="353" on="0"/>
        <pt x="565" y="264" on="0"/>
        <pt x="569" y="210" on="1"/>
        <pt x="569" y="111" on="0"/>
        <pt x="451" y="-2" on="0"/>
        <pt x="351" y="-12" on="1"/>
        <pt x="351" y="-83" on="1"/>
        <pt x="277" y="-83" on="1"/>
        <pt x="277" y="-15" on="1"/>
        <pt x="147" y="-10" on="0"/>
      </contour>
      <contour>
        <pt x="195" y="562" on="1"/>
        <pt x="195" y="507" on="0"/>
        <pt x="277" y="462" on="1"/>
        <pt x="277" y="643" on="1"/>
        <pt x="238" y="634" on="0"/>
        <pt x="195" y="591" on="0"/>
      </contour>
      <contour>
        <pt x="351" y="65" on="1"/>
        <pt x="391" y="79" on="0"/>
        <pt x="438" y="133" on="0"/>
        <pt x="438" y="166" on="1"/>
        <pt x="438" y="227" on="0"/>
        <pt x="351" y="272" on="1"/>
      </contour>
    </TTGlyph>
    <TTGlyph name="dotlessi" xMin="30" yMin="0" xMax="356" yMax="500">
      <contour>
        <pt x="30" y="0" on="1"/>
        <pt x="30" y="53" on="1"/>
        <pt x="115" y="73" on="1"/>
        <pt x="115" y="409" on="1"/>
        <pt x="30" y="409" on="1"/>
        <pt x="30" y="462" on="1"/>
        <pt x="190" y="500" on="1"/>
        <pt x="271" y="500" on="1"/>
        <pt x="271" y="73" on="1"/>
        <pt x="356" y="53" on="1"/>
        <pt x="356" y="0" on="1"/>
      </contour>
    </TTGlyph>
    <TTGlyph name="e" xMin="35" yMin="-15" xMax="517" yMax="515">
      <contour>
        <pt x="35" y="256" on="1"/>
        <pt x="35" y="374" on="0"/>
        <pt x="168" y="515" on="0"/>
        <pt x="282" y="515" on="1"/>
        <pt x="398" y="515" on="0"/>
        <pt x="517" y="357" on="0"/>
        <pt x="517" y="241" on="1"/>
        <pt x="189" y="241" on="1"/>
        <pt x="196" y="167" on="0"/>
        <pt x="288" y="60" on="0"/>
        <pt x="360" y="60" on="1"/>
        <pt x="414" y="60" on="0"/>
        <pt x="476" y="83" on="1"/>
        <pt x="497" y="26" on="1"/>
        <pt x="404" y="-15" on="0"/>
        <pt x="315" y="-15" on="1"/>
        <pt x="186" y="-15" on="0"/>
        <pt x="35" y="136" on="0"/>
      </contour>
      <contour>
        <pt x="189" y="303" on="1"/>
        <pt x="358" y="314" on="1"/>
        <pt x="358" y="338" on="0"/>
        <pt x="352" y="379" on="0"/>
        <pt x="338" y="408" on="1"/>
        <pt x="313" y="450" on="0"/>
        <pt x="279" y="450" on="1"/>
        <pt x="239" y="450" on="0"/>
        <pt x="213" y="409" on="1"/>
        <pt x="198" y="384" on="0"/>
        <pt x="188" y="324" on="0"/>
      </contour>
    </TTGlyph>
    <TTGlyph name="eacute" xMin="35" yMin="-15" xMax="517" yMax="767">
      <component glyphName="e" x="0" y="0" flags="0x204"/>
      <component glyphName="acute" x="166" y="0" flags="0x4"/>
    </TTGlyph>
    <TTGlyph name="ecircumflex" xMin="35" yMin="-15" xMax="517" yMax="766">
      <component glyphName="e" x="0" y="0" flags="0x204"/>
      <component glyphName="circumflex" x="121" y="0" flags="0x4"/>
    </TTGlyph>
    <TTGlyph name="edieresis" xMin="35" yMin="-15" xMax="517" yMax="767">
      <component glyphName="e" x="0" y="0" flags="0x204"/>
      <component glyphName="dieresis" x="70" y="0" flags="0x4"/>
    </TTGlyph>
    <TTGlyph name="egrave" xMin="35" yMin="-15" xMax="517" yMax="767">
      <component glyphName="e" x="0" y="0" flags="0x204"/>
      <component glyphName="grave" x="224" y="0" flags="0x4"/>
    </TTGlyph>
    <TTGlyph name="eight" xMin="56" yMin="-15" xMax="537" yMax="715">
      <contour>
        <pt x="56" y="163" on="1"/>
        <pt x="56" y="266" on="0"/>
        <pt x="188" y="361" on="1"/>
        <pt x="74" y="447" on="0"/>
        <pt x="74" y="543" on="1"/>
        <pt x="74" y="628" on="0"/>
        <pt x="199" y="715" on="0"/>
        <pt x="295" y="715" on="1"/>
        <pt x="387" y="715" on="0"/>
        <pt x="511" y="629" on="0"/>
        <pt x="511" y="552" on="1"/>
        <pt x="511" y="461" on="0"/>
        <pt x="418" y="389" on="1"/>
        <pt x="537" y="305" on="0"/>
        <pt x="537" y="189" on="1"/>
        <pt x="537" y="99" on="0"/>
        <pt x="393" y="-15" on="0"/>
        <pt x="286" y="-15" on="1"/>
        <pt x="178" y="-15" on="0"/>
        <pt x="56" y="80" on="0"/>
      </contour>
      <contour>
        <pt x="176" y="162" on="1"/>
        <pt x="176" y="113" on="0"/>
        <pt x="235" y="51" on="0"/>
        <pt x="281" y="51" on="1"/>
        <pt x="324" y="51" on="0"/>
        <pt x="382" y="108" on="0"/>
        <pt x="382" y="158" on="1"/>
        <pt x="382" y="190" on="0"/>
        <pt x="341" y="251" on="0"/>
        <pt x="295" y="288" on="0"/>
        <pt x="252" y="317" on="1"/>
        <pt x="176" y="240" on="0"/>
      </contour>
      <contour>
        <pt x="228" y="568" on="1"/>
        <pt x="228" y="540" on="0"/>
        <pt x="265" y="488" on="0"/>
        <pt x="308" y="458" on="0"/>
        <pt x="348" y="433" on="1"/>
        <pt x="393" y="489" on="0"/>
        <pt x="393" y="551" on="1"/>
        <pt x="393" y="595" on="0"/>
        <pt x="346" y="646" on="0"/>
        <pt x="305" y="646" on="1"/>
        <pt x="275" y="646" on="0"/>
        <pt x="228" y="602" on="0"/>
      </contour>
    </TTGlyph>
    <TTGlyph name="emdash" xMin="53" yMin="231" xMax="1063" yMax="314">
      <contour>
        <pt x="53" y="231" on="1"/>
        <pt x="53" y="314" on="1"/>
        <pt x="1063" y="314" on="1"/>
        <pt x="1063" y="231" on="1"/>
      </contour>
    </TTGlyph>
    <TTGlyph name="endash" xMin="53" yMin="231" xMax="563" yMax="315">
      <contour>
        <pt x="53" y="231" on="1"/>
        <pt x="53" y="315" on="1"/>
        <pt x="563" y="315" on="1"/>
        <pt x="563" y="231" on="1"/>
      </contour>
    </TTGlyph>
    <TTGlyph name="equal" xMin="65" yMin="231" xMax="524" yMax="483">
      <contour>
        <pt x="65" y="231" on="1"/>
        <pt x="65" y="317" on="1"/>
        <pt x="524" y="317" on="1"/>
        <pt x="524" y="231" on="1"/>
      </contour>
      <contour>
        <pt x="65" y="396" on="1"/>
        <pt x="65" y="483" on="1"/>
        <pt x="524" y="483" on="1"/>
        <pt x="524" y="396" on="1"/>
      </contour>
    </TTGlyph>
    <TTGlyph name="eth" xMin="37" yMin="-16" xMax="580" yMax="770">
      <contour>
        <pt x="37" y="240" on="1"/>
        <pt x="37" y="343" on="0"/>
        <pt x="167" y="478" on="0"/>
        <pt x="270" y="478" on="1"/>
        <pt x="303" y="478" on="0"/>
        <pt x="381" y="452" on="0"/>
        <pt x="402" y="435" on="1"/>
        <pt x="378" y="538" on="0"/>
        <pt x="311" y="599" on="1"/>
        <pt x="179" y="518" on="1"/>
        <pt x="179" y="596" on="1"/>
        <pt x="251" y="640" on="1"/>
        <pt x="207" y="663" on="0"/>
        <pt x="149" y="672" on="1"/>
        <pt x="149" y="757" on="1"/>
        <pt x="255" y="749" on="0"/>
        <pt x="348" y="699" on="1"/>
        <pt x="464" y="770" on="1"/>
        <pt x="464" y="692" on="1"/>
        <pt x="410" y="659" on="1"/>
        <pt x="580" y="530" on="0"/>
        <pt x="580" y="310" on="1"/>
        <pt x="580" y="161" on="0"/>
        <pt x="433" y="-16" on="0"/>
        <pt x="290" y="-16" on="1"/>
        <pt x="163" y="-16" on="0"/>
        <pt x="37" y="119" on="0"/>
      </contour>
      <contour>
        <pt x="197" y="236" on="1"/>
        <pt x="197" y="156" on="0"/>
        <pt x="251" y="49" on="0"/>
        <pt x="300" y="49" on="1"/>
        <pt x="412" y="49" on="0"/>
        <pt x="412" y="274" on="1"/>
        <pt x="412" y="283" on="0"/>
        <pt x="407" y="358" on="1"/>
        <pt x="369" y="398" on="0"/>
        <pt x="324" y="398" on="1"/>
        <pt x="262" y="398" on="0"/>
        <pt x="197" y="325" on="0"/>
      </contour>
    </TTGlyph>
    <TTGlyph name="exclam" xMin="64" yMin="-15" xMax="235" yMax="700">
      <contour>
        <pt x="64" y="71" on="1"/>
        <pt x="64" y="105" on="0"/>
        <pt x="115" y="156" on="0"/>
        <pt x="150" y="156" on="1"/>
        <pt x="185" y="156" on="0"/>
        <pt x="235" y="106" on="0"/>
        <pt x="235" y="71" on="1"/>
        <pt x="235" y="38" on="0"/>
        <pt x="185" y="-15" on="0"/>
        <pt x="150" y="-15" on="1"/>
        <pt x="115" y="-15" on="0"/>
        <pt x="64" y="38" on="0"/>
      </contour>
      <contour>
        <pt x="75" y="700" on="1"/>
        <pt x="223" y="700" on="1"/>
        <pt x="203" y="208" on="1"/>
        <pt x="95" y="208" on="1"/>
      </contour>
    </TTGlyph>
    <TTGlyph name="exclamdown" xMin="56" yMin="-200" xMax="227" yMax="514">
      <component glyphName="exclam" x="-8" y="500" scalex="1.0" scaley="-0.999938964844" flags="0x4"/>
    </TTGlyph>
    <TTGlyph name="f" xMin="27" yMin="0" xMax="504" yMax="815">
      <contour>
        <pt x="27" y="0" on="1"/>
        <pt x="27" y="53" on="1"/>
        <pt x="112" y="73" on="1"/>
        <pt x="112" y="436" on="1"/>
        <pt x="28" y="436" on="1"/>
        <pt x="28" y="493" on="1"/>
        <pt x="112" y="499" on="1"/>
        <pt x="112" y="574" on="1"/>
        <pt x="112" y="691" on="0"/>
        <pt x="219" y="815" on="0"/>
        <pt x="319" y="815" on="1"/>
        <pt x="361" y="815" on="0"/>
        <pt x="453" y="798" on="0"/>
        <pt x="478" y="790" on="1"/>
        <pt x="503" y="782" on="1"/>
        <pt x="504" y="747" on="0"/>
        <pt x="469" y="680" on="0"/>
        <pt x="442" y="666" on="1"/>
        <pt x="359" y="750" on="1"/>
        <pt x="339" y="750" on="0"/>
        <pt x="310" y="738" on="0"/>
        <pt x="281" y="704" on="0"/>
        <pt x="266" y="630" on="0"/>
        <pt x="266" y="574" on="1"/>
        <pt x="266" y="509" on="1"/>
        <pt x="403" y="518" on="1"/>
        <pt x="403" y="436" on="1"/>
        <pt x="266" y="436" on="1"/>
        <pt x="266" y="73" on="1"/>
        <pt x="384" y="53" on="1"/>
        <pt x="384" y="0" on="1"/>
      </contour>
    </TTGlyph>
    <TTGlyph name="five" xMin="21" yMin="-15" xMax="507" yMax="771">
      <contour>
        <pt x="21" y="27" on="1"/>
        <pt x="45" y="81" on="1"/>
        <pt x="105" y="56" on="0"/>
        <pt x="157" y="56" on="1"/>
        <pt x="230" y="56" on="0"/>
        <pt x="325" y="138" on="0"/>
        <pt x="325" y="218" on="1"/>
        <pt x="325" y="294" on="0"/>
        <pt x="247" y="373" on="0"/>
        <pt x="181" y="373" on="1"/>
        <pt x="144" y="373" on="0"/>
        <pt x="97" y="362" on="1"/>
        <pt x="75" y="376" on="1"/>
        <pt x="104" y="700" on="1"/>
        <pt x="389" y="700" on="1"/>
        <pt x="456" y="771" on="1"/>
        <pt x="507" y="747" on="1"/>
        <pt x="437" y="574" on="1"/>
        <pt x="169" y="574" on="1"/>
        <pt x="156" y="440" on="1"/>
        <pt x="209" y="451" on="0"/>
        <pt x="253" y="451" on="1"/>
        <pt x="368" y="451" on="0"/>
        <pt x="490" y="326" on="0"/>
        <pt x="490" y="227" on="1"/>
        <pt x="490" y="149" on="0"/>
        <pt x="405" y="36" on="0"/>
        <pt x="280" y="-15" on="0"/>
        <pt x="208" y="-15" on="1"/>
        <pt x="97" y="-15" on="0"/>
        <pt x="23" y="26" on="1"/>
      </contour>
    </TTGlyph>
    <TTGlyph name="foundryicon" xMin="51" yMin="138" xMax="1007" yMax="316">
      <contour>
        <pt x="51" y="245" on="1"/>
        <pt x="51" y="278" on="0"/>
        <pt x="86" y="316" on="0"/>
        <pt x="119" y="316" on="1"/>
        <pt x="135" y="316" on="0"/>
        <pt x="158" y="309" on="1"/>
        <pt x="158" y="269" on="1"/>
        <pt x="127" y="269" on="1"/>
        <pt x="127" y="284" on="1"/>
        <pt x="124" y="285" on="0"/>
        <pt x="118" y="285" on="1"/>
        <pt x="89" y="285" on="0"/>
        <pt x="89" y="249" on="1"/>
        <pt x="89" y="212" on="0"/>
        <pt x="126" y="212" on="1"/>
        <pt x="158" y="212" on="1"/>
        <pt x="158" y="187" on="1"/>
        <pt x="140" y="179" on="0"/>
        <pt x="117" y="179" on="1"/>
        <pt x="86" y="179" on="0"/>
        <pt x="51" y="214" on="0"/>
      </contour>
      <contour>
        <pt x="166" y="251" on="1"/>
        <pt x="176" y="251" on="1"/>
        <pt x="200" y="182" on="1"/>
        <pt x="214" y="182" on="1"/>
        <pt x="209" y="171" on="0"/>
        <pt x="193" y="171" on="1"/>
        <pt x="176" y="171" on="1"/>
        <pt x="176" y="145" on="1"/>
        <pt x="183" y="138" on="0"/>
        <pt x="202" y="138" on="1"/>
        <pt x="235" y="138" on="0"/>
        <pt x="245" y="175" on="1"/>
        <pt x="268" y="251" on="1"/>
        <pt x="268" y="282" on="1"/>
        <pt x="225" y="282" on="1"/>
        <pt x="225" y="251" on="1"/>
        <pt x="234" y="251" on="1"/>
        <pt x="223" y="209" on="1"/>
        <pt x="218" y="233" on="1"/>
        <pt x="204" y="282" on="1"/>
        <pt x="166" y="282" on="1"/>
      </contour>
      <contour>
        <pt x="282" y="251" on="1"/>
        <pt x="294" y="251" on="1"/>
        <pt x="294" y="212" on="1"/>
        <pt x="284" y="212" on="1"/>
        <pt x="284" y="182" on="1"/>
        <pt x="346" y="182" on="1"/>
        <pt x="346" y="212" on="1"/>
        <pt x="329" y="212" on="1"/>
        <pt x="329" y="251" on="1"/>
        <pt x="363" y="251" on="1"/>
        <pt x="363" y="282" on="1"/>
        <pt x="357" y="284" on="0"/>
        <pt x="351" y="284" on="1"/>
        <pt x="343" y="284" on="0"/>
        <pt x="336" y="279" on="1"/>
        <pt x="329" y="272" on="0"/>
        <pt x="326" y="266" on="1"/>
        <pt x="316" y="282" on="1"/>
        <pt x="282" y="282" on="1"/>
      </contour>
      <contour>
        <pt x="371" y="230" on="1"/>
        <pt x="371" y="179" on="0"/>
        <pt x="424" y="179" on="1"/>
        <pt x="446" y="179" on="0"/>
        <pt x="461" y="186" on="1"/>
        <pt x="461" y="212" on="1"/>
        <pt x="432" y="212" on="1"/>
        <pt x="411" y="212" on="0"/>
        <pt x="407" y="224" on="1"/>
        <pt x="462" y="224" on="1"/>
        <pt x="464" y="238" on="0"/>
        <pt x="464" y="242" on="1"/>
        <pt x="464" y="260" on="0"/>
        <pt x="440" y="284" on="0"/>
        <pt x="420" y="284" on="1"/>
        <pt x="371" y="284" on="0"/>
      </contour>
      <contour>
        <pt x="406" y="242" on="1"/>
        <pt x="409" y="258" on="0"/>
        <pt x="419" y="258" on="1"/>
        <pt x="431" y="258" on="0"/>
        <pt x="431" y="242" on="1"/>
      </contour>
      <contour>
        <pt x="476" y="210" on="1"/>
        <pt x="476" y="240" on="0"/>
        <pt x="515" y="240" on="1"/>
        <pt x="531" y="240" on="1"/>
        <pt x="531" y="241" on="1"/>
        <pt x="531" y="251" on="0"/>
        <pt x="509" y="251" on="1"/>
        <pt x="484" y="251" on="1"/>
        <pt x="484" y="277" on="1"/>
        <pt x="505" y="284" on="0"/>
        <pt x="520" y="284" on="1"/>
        <pt x="566" y="284" on="0"/>
        <pt x="566" y="246" on="1"/>
        <pt x="566" y="212" on="1"/>
        <pt x="577" y="212" on="1"/>
        <pt x="577" y="185" on="1"/>
        <pt x="570" y="180" on="0"/>
        <pt x="557" y="180" on="1"/>
        <pt x="541" y="180" on="0"/>
        <pt x="535" y="187" on="1"/>
        <pt x="526" y="179" on="0"/>
        <pt x="510" y="179" on="1"/>
        <pt x="495" y="179" on="0"/>
        <pt x="476" y="195" on="0"/>
      </contour>
      <contour>
        <pt x="520" y="204" on="1"/>
        <pt x="527" y="204" on="0"/>
        <pt x="531" y="207" on="1"/>
        <pt x="531" y="222" on="1"/>
        <pt x="523" y="222" on="1"/>
        <pt x="510" y="222" on="0"/>
        <pt x="510" y="204" on="0"/>
      </contour>
      <contour>
        <pt x="577" y="285" on="1"/>
        <pt x="577" y="316" on="1"/>
        <pt x="624" y="316" on="1"/>
        <pt x="624" y="212" on="1"/>
        <pt x="638" y="212" on="1"/>
        <pt x="638" y="184" on="1"/>
        <pt x="629" y="180" on="0"/>
        <pt x="616" y="180" on="1"/>
        <pt x="589" y="180" on="0"/>
        <pt x="589" y="208" on="1"/>
        <pt x="589" y="285" on="1"/>
      </contour>
      <contour>
        <pt x="651" y="199" on="1"/>
        <pt x="651" y="219" on="0"/>
        <pt x="671" y="219" on="1"/>
        <pt x="693" y="219" on="0"/>
        <pt x="693" y="199" on="1"/>
        <pt x="693" y="180" on="0"/>
        <pt x="671" y="180" on="1"/>
        <pt x="651" y="180" on="0"/>
      </contour>
      <contour>
        <pt x="699" y="231" on="1"/>
        <pt x="699" y="256" on="0"/>
        <pt x="726" y="284" on="0"/>
        <pt x="772" y="284" on="0"/>
        <pt x="799" y="257" on="0"/>
        <pt x="799" y="207" on="0"/>
        <pt x="772" y="179" on="0"/>
        <pt x="748" y="179" on="1"/>
        <pt x="699" y="179" on="0"/>
      </contour>
      <contour>
        <pt x="735" y="232" on="1"/>
        <pt x="735" y="206" on="0"/>
        <pt x="763" y="206" on="0"/>
        <pt x="763" y="232" on="1"/>
        <pt x="763" y="256" on="0"/>
        <pt x="735" y="256" on="0"/>
      </contour>
      <contour>
        <pt x="811" y="251" on="1"/>
        <pt x="822" y="251" on="1"/>
        <pt x="822" y="212" on="1"/>
        <pt x="813" y="212" on="1"/>
        <pt x="813" y="182" on="1"/>
        <pt x="875" y="182" on="1"/>
        <pt x="875" y="212" on="1"/>
        <pt x="858" y="212" on="1"/>
        <pt x="858" y="251" on="1"/>
        <pt x="892" y="251" on="1"/>
        <pt x="892" y="282" on="1"/>
        <pt x="886" y="284" on="0"/>
        <pt x="880" y="284" on="1"/>
        <pt x="872" y="284" on="0"/>
        <pt x="865" y="279" on="1"/>
        <pt x="858" y="272" on="0"/>
        <pt x="855" y="266" on="1"/>
        <pt x="845" y="282" on="1"/>
        <pt x="811" y="282" on="1"/>
      </contour>
      <contour>
        <pt x="903" y="189" on="1"/>
        <pt x="903" y="207" on="0"/>
        <pt x="917" y="219" on="1"/>
        <pt x="903" y="227" on="0"/>
        <pt x="903" y="247" on="1"/>
        <pt x="903" y="263" on="0"/>
        <pt x="926" y="284" on="0"/>
        <pt x="946" y="284" on="1"/>
        <pt x="964" y="284" on="0"/>
        <pt x="977" y="274" on="1"/>
        <pt x="985" y="284" on="0"/>
        <pt x="996" y="284" on="1"/>
        <pt x="999" y="284" on="0"/>
        <pt x="1007" y="282" on="1"/>
        <pt x="1007" y="251" on="1"/>
        <pt x="991" y="251" on="1"/>
        <pt x="992" y="249" on="0"/>
        <pt x="992" y="246" on="1"/>
        <pt x="992" y="231" on="0"/>
        <pt x="969" y="211" on="0"/>
        <pt x="947" y="211" on="1"/>
        <pt x="938" y="211" on="0"/>
        <pt x="935" y="212" on="1"/>
        <pt x="935" y="197" on="1"/>
        <pt x="953" y="197" on="1"/>
        <pt x="992" y="197" on="0"/>
        <pt x="992" y="161" on="1"/>
        <pt x="992" y="153" on="0"/>
        <pt x="986" y="138" on="1"/>
        <pt x="959" y="138" on="1"/>
        <pt x="959" y="167" on="1"/>
        <pt x="913" y="167" on="1"/>
        <pt x="903" y="174" on="0"/>
      </contour>
      <contour>
        <pt x="948" y="232" on="1"/>
        <pt x="958" y="232" on="0"/>
        <pt x="958" y="262" on="0"/>
        <pt x="948" y="262" on="1"/>
        <pt x="936" y="262" on="0"/>
        <pt x="936" y="232" on="0"/>
      </contour>
    </TTGlyph>
    <TTGlyph name="four" xMin="12" yMin="-15" xMax="545" yMax="700">
      <contour>
        <pt x="12" y="128" on="1"/>
        <pt x="12" y="187" on="1"/>
        <pt x="393" y="700" on="1"/>
        <pt x="466" y="700" on="1"/>
        <pt x="466" y="207" on="1"/>
        <pt x="545" y="207" on="1"/>
        <pt x="545" y="128" on="1"/>
        <pt x="466" y="128" on="1"/>
        <pt x="466" y="-15" on="1"/>
        <pt x="319" y="-15" on="1"/>
        <pt x="319" y="128" on="1"/>
      </contour>
      <contour>
        <pt x="132" y="207" on="1"/>
        <pt x="319" y="207" on="1"/>
        <pt x="319" y="455" on="1"/>
      </contour>
    </TTGlyph>
    <TTGlyph name="foursuperior" xMin="16" yMin="286" xMax="340" yMax="710">
      <contour>
        <pt x="16" y="371" on="1"/>
        <pt x="16" y="405" on="1"/>
        <pt x="242" y="710" on="1"/>
        <pt x="294" y="710" on="1"/>
        <pt x="294" y="417" on="1"/>
        <pt x="340" y="417" on="1"/>
        <pt x="340" y="371" on="1"/>
        <pt x="294" y="371" on="1"/>
        <pt x="294" y="286" on="1"/>
        <pt x="194" y="286" on="1"/>
        <pt x="194" y="371" on="1"/>
      </contour>
      <contour>
        <pt x="194" y="422" on="1"/>
        <pt x="194" y="553" on="1"/>
        <pt x="95" y="422" on="1"/>
      </contour>
    </TTGlyph>
    <TTGlyph name="fraction" xMin="-13" yMin="0" xMax="424" yMax="714">
      <contour>
        <pt x="68" y="0" on="1"/>
        <pt x="-13" y="0" on="1"/>
        <pt x="344" y="714" on="1"/>
        <pt x="424" y="714" on="1"/>
      </contour>
    </TTGlyph>
    <TTGlyph name="g" xMin="8" yMin="-287" xMax="612" yMax="525">
      <contour>
        <pt x="8" y="-152" on="1"/>
        <pt x="8" y="-72" on="0"/>
        <pt x="97" y="-25" on="1"/>
        <pt x="70" y="-6" on="0"/>
        <pt x="54" y="24" on="1"/>
        <pt x="48" y="36" on="0"/>
        <pt x="41" y="68" on="0"/>
        <pt x="43" y="85" on="1"/>
        <pt x="158" y="184" on="1"/>
        <pt x="106" y="207" on="0"/>
        <pt x="48" y="286" on="0"/>
        <pt x="48" y="334" on="1"/>
        <pt x="48" y="406" on="0"/>
        <pt x="184" y="507" on="0"/>
        <pt x="288" y="507" on="1"/>
        <pt x="378" y="507" on="0"/>
        <pt x="444" y="467" on="1"/>
        <pt x="600" y="525" on="1"/>
        <pt x="612" y="501" on="0"/>
        <pt x="612" y="472" on="1"/>
        <pt x="612" y="438" on="0"/>
        <pt x="608" y="421" on="1"/>
        <pt x="498" y="421" on="1"/>
        <pt x="530" y="379" on="0"/>
        <pt x="530" y="334" on="1"/>
        <pt x="530" y="260" on="0"/>
        <pt x="399" y="161" on="0"/>
        <pt x="288" y="161" on="1"/>
        <pt x="252" y="161" on="0"/>
        <pt x="235" y="162" on="1"/>
        <pt x="191" y="101" on="1"/>
        <pt x="203" y="81" on="0"/>
        <pt x="245" y="72" on="0"/>
        <pt x="295" y="72" on="1"/>
        <pt x="368" y="72" on="1"/>
        <pt x="467" y="72" on="0"/>
        <pt x="574" y="-16" on="0"/>
        <pt x="574" y="-95" on="1"/>
        <pt x="574" y="-172" on="0"/>
        <pt x="425" y="-287" on="0"/>
        <pt x="291" y="-287" on="1"/>
        <pt x="8" y="-287" on="0"/>
      </contour>
      <contour>
        <pt x="160" y="-130" on="1"/>
        <pt x="160" y="-222" on="0"/>
        <pt x="288" y="-222" on="1"/>
        <pt x="372" y="-222" on="0"/>
        <pt x="462" y="-166" on="0"/>
        <pt x="462" y="-124" on="1"/>
        <pt x="462" y="-92" on="0"/>
        <pt x="410" y="-59" on="0"/>
        <pt x="341" y="-59" on="1"/>
        <pt x="182" y="-59" on="1"/>
        <pt x="160" y="-90" on="0"/>
      </contour>
      <contour>
        <pt x="288" y="225" on="1"/>
        <pt x="337" y="225" on="0"/>
        <pt x="385" y="286" on="0"/>
        <pt x="385" y="334" on="1"/>
        <pt x="385" y="382" on="0"/>
        <pt x="337" y="445" on="0"/>
        <pt x="288" y="445" on="1"/>
        <pt x="237" y="445" on="0"/>
        <pt x="193" y="382" on="0"/>
        <pt x="193" y="334" on="1"/>
        <pt x="193" y="286" on="0"/>
        <pt x="237" y="225" on="0"/>
      </contour>
    </TTGlyph>
    <TTGlyph name="germandbls" xMin="15" yMin="-15" xMax="693" yMax="760">
      <contour>
        <pt x="15" y="0" on="1"/>
        <pt x="15" y="53" on="1"/>
        <pt x="100" y="73" on="1"/>
        <pt x="100" y="538" on="1"/>
        <pt x="100" y="644" on="0"/>
        <pt x="238" y="760" on="0"/>
        <pt x="356" y="760" on="1"/>
        <pt x="479" y="760" on="0"/>
        <pt x="606" y="647" on="0"/>
        <pt x="606" y="538" on="1"/>
        <pt x="606" y="466" on="1"/>
        <pt x="493" y="466" on="1"/>
        <pt x="395" y="466" on="0"/>
        <pt x="395" y="413" on="1"/>
        <pt x="395" y="385" on="0"/>
        <pt x="457" y="335" on="0"/>
        <pt x="533" y="307" on="1"/>
        <pt x="620" y="274" on="0"/>
        <pt x="693" y="197" on="0"/>
        <pt x="693" y="135" on="1"/>
        <pt x="693" y="64" on="0"/>
        <pt x="564" y="-15" on="0"/>
        <pt x="462" y="-15" on="1"/>
        <pt x="387" y="-15" on="0"/>
        <pt x="312" y="8" on="1"/>
        <pt x="312" y="151" on="1"/>
        <pt x="368" y="151" on="1"/>
        <pt x="410" y="52" on="1"/>
        <pt x="421" y="50" on="0"/>
        <pt x="427" y="50" on="1"/>
        <pt x="482" y="50" on="0"/>
        <pt x="556" y="84" on="0"/>
        <pt x="556" y="116" on="1"/>
        <pt x="556" y="130" on="0"/>
        <pt x="543" y="152" on="0"/>
        <pt x="511" y="171" on="0"/>
        <pt x="484" y="182" on="0"/>
        <pt x="416" y="208" on="1"/>
        <pt x="281" y="264" on="0"/>
        <pt x="281" y="373" on="1"/>
        <pt x="281" y="437" on="0"/>
        <pt x="376" y="519" on="0"/>
        <pt x="453" y="529" on="1"/>
        <pt x="453" y="553" on="1"/>
        <pt x="453" y="630" on="0"/>
        <pt x="405" y="695" on="0"/>
        <pt x="356" y="695" on="1"/>
        <pt x="254" y="695" on="0"/>
        <pt x="254" y="538" on="1"/>
        <pt x="254" y="0" on="1"/>
      </contour>
    </TTGlyph>
    <TTGlyph name="grave" xMin="-107" yMin="564" xMax="113" yMax="767">
      <contour>
        <pt x="-107" y="715" on="1"/>
        <pt x="-61" y="757" on="0"/>
        <pt x="11" y="767" on="1"/>
        <pt x="113" y="594" on="1"/>
        <pt x="52" y="564" on="1"/>
      </contour>
    </TTGlyph>
    <TTGlyph name="grave.case" xMin="-22" yMin="728" xMax="216" yMax="904">
      <contour>
        <pt x="-22" y="809" on="1"/>
        <pt x="-6" y="843" on="0"/>
        <pt x="49" y="896" on="0"/>
        <pt x="73" y="904" on="1"/>
        <pt x="216" y="776" on="1"/>
        <pt x="177" y="728" on="1"/>
      </contour>
    </TTGlyph>
    <TTGlyph name="greater" xMin="72" yMin="93" xMax="502" yMax="622">
      <contour>
        <pt x="72" y="93" on="1"/>
        <pt x="72" y="193" on="1"/>
        <pt x="378" y="357" on="1"/>
        <pt x="72" y="522" on="1"/>
        <pt x="72" y="622" on="1"/>
        <pt x="502" y="391" on="1"/>
        <pt x="502" y="324" on="1"/>
      </contour>
    </TTGlyph>
    <TTGlyph name="guillemotleft" xMin="43" yMin="80" xMax="425" yMax="460">
      <contour>
        <pt x="43" y="254" on="1"/>
        <pt x="43" y="286" on="1"/>
        <pt x="196" y="460" on="1"/>
        <pt x="261" y="460" on="1"/>
        <pt x="190" y="270" on="1"/>
        <pt x="261" y="80" on="1"/>
        <pt x="196" y="80" on="1"/>
      </contour>
      <contour>
        <pt x="250" y="256" on="1"/>
        <pt x="250" y="284" on="1"/>
        <pt x="367" y="441" on="1"/>
        <pt x="425" y="441" on="1"/>
        <pt x="381" y="270" on="1"/>
        <pt x="425" y="99" on="1"/>
        <pt x="367" y="99" on="1"/>
      </contour>
    </TTGlyph>
    <TTGlyph name="guillemotright" xMin="67" yMin="80" xMax="449" yMax="460">
      <contour>
        <pt x="296" y="80" on="1"/>
        <pt x="231" y="80" on="1"/>
        <pt x="302" y="270" on="1"/>
        <pt x="231" y="460" on="1"/>
        <pt x="296" y="460" on="1"/>
        <pt x="449" y="286" on="1"/>
        <pt x="449" y="254" on="1"/>
      </contour>
      <contour>
        <pt x="125" y="99" on="1"/>
        <pt x="67" y="99" on="1"/>
        <pt x="111" y="270" on="1"/>
        <pt x="67" y="441" on="1"/>
        <pt x="125" y="441" on="1"/>
        <pt x="242" y="284" on="1"/>
        <pt x="242" y="256" on="1"/>
      </contour>
    </TTGlyph>
    <TTGlyph name="guilsinglleft" xMin="42" yMin="70" xMax="260" yMax="470">
      <contour>
        <pt x="42" y="254" on="1"/>
        <pt x="42" y="286" on="1"/>
        <pt x="205" y="470" on="1"/>
        <pt x="260" y="450" on="1"/>
        <pt x="189" y="270" on="1"/>
        <pt x="260" y="90" on="1"/>
        <pt x="205" y="70" on="1"/>
      </contour>
    </TTGlyph>
    <TTGlyph name="guilsinglright" xMin="55" yMin="70" xMax="273" yMax="470">
      <contour>
        <pt x="110" y="70" on="1"/>
        <pt x="55" y="90" on="1"/>
        <pt x="126" y="270" on="1"/>
        <pt x="55" y="450" on="1"/>
        <pt x="110" y="470" on="1"/>
        <pt x="273" y="286" on="1"/>
        <pt x="273" y="254" on="1"/>
      </contour>
    </TTGlyph>
    <TTGlyph name="h" xMin="15" yMin="0" xMax="659" yMax="800">
      <contour>
        <pt x="15" y="0" on="1"/>
        <pt x="15" y="53" on="1"/>
        <pt x="100" y="73" on="1"/>
        <pt x="100" y="709" on="1"/>
        <pt x="15" y="709" on="1"/>
        <pt x="15" y="762" on="1"/>
        <pt x="175" y="800" on="1"/>
        <pt x="254" y="800" on="1"/>
        <pt x="254" y="451" on="1"/>
        <pt x="315" y="515" on="0"/>
        <pt x="405" y="515" on="1"/>
        <pt x="444" y="515" on="0"/>
        <pt x="507" y="492" on="0"/>
        <pt x="550" y="450" on="0"/>
        <pt x="574" y="392" on="0"/>
        <pt x="574" y="358" on="1"/>
        <pt x="574" y="73" on="1"/>
        <pt x="659" y="53" on="1"/>
        <pt x="659" y="0" on="1"/>
        <pt x="355" y="0" on="1"/>
        <pt x="355" y="53" on="1"/>
        <pt x="420" y="73" on="1"/>
        <pt x="420" y="330" on="1"/>
        <pt x="420" y="380" on="0"/>
        <pt x="397" y="427" on="0"/>
        <pt x="359" y="427" on="1"/>
        <pt x="339" y="427" on="0"/>
        <pt x="285" y="407" on="0"/>
        <pt x="254" y="383" on="1"/>
        <pt x="254" y="73" on="1"/>
        <pt x="319" y="53" on="1"/>
        <pt x="319" y="0" on="1"/>
      </contour>
    </TTGlyph>
    <TTGlyph name="hyphen" xMin="58" yMin="226" xMax="277" yMax="322">
      <contour>
        <pt x="58" y="226" on="1"/>
        <pt x="58" y="322" on="1"/>
        <pt x="277" y="322" on="1"/>
        <pt x="277" y="226" on="1"/>
      </contour>
    </TTGlyph>
    <TTGlyph name="i" xMin="30" yMin="0" xMax="354" yMax="746">
      <contour>
        <pt x="30" y="0" on="1"/>
        <pt x="30" y="53" on="1"/>
        <pt x="115" y="73" on="1"/>
        <pt x="115" y="409" on="1"/>
        <pt x="30" y="409" on="1"/>
        <pt x="30" y="462" on="1"/>
        <pt x="190" y="500" on="1"/>
        <pt x="269" y="500" on="1"/>
        <pt x="269" y="73" on="1"/>
        <pt x="354" y="53" on="1"/>
        <pt x="354" y="0" on="1"/>
      </contour>
      <contour>
        <pt x="99" y="654" on="1"/>
        <pt x="99" y="693" on="0"/>
        <pt x="153" y="746" on="0"/>
        <pt x="192" y="746" on="1"/>
        <pt x="232" y="746" on="0"/>
        <pt x="285" y="693" on="0"/>
        <pt x="285" y="654" on="1"/>
        <pt x="285" y="614" on="0"/>
        <pt x="232" y="560" on="0"/>
        <pt x="192" y="560" on="1"/>
        <pt x="153" y="560" on="0"/>
        <pt x="99" y="614" on="0"/>
      </contour>
    </TTGlyph>
    <TTGlyph name="iacute" xMin="30" yMin="0" xMax="363" yMax="767">
      <component glyphName="dotlessi" x="0" y="0" flags="0x204"/>
      <component glyphName="acute" x="66" y="0" flags="0x4"/>
    </TTGlyph>
    <TTGlyph name="icircumflex" xMin="2" yMin="0" xMax="356" yMax="766">
      <component glyphName="dotlessi" x="0" y="0" flags="0x204"/>
      <component glyphName="circumflex" x="11" y="0" flags="0x4"/>
    </TTGlyph>
    <TTGlyph name="idieresis" xMin="5" yMin="0" xMax="364" yMax="767">
      <component glyphName="dotlessi" x="0" y="0" flags="0x204"/>
      <component glyphName="dieresis" x="-27" y="0" flags="0x4"/>
    </TTGlyph>
    <TTGlyph name="igrave" xMin="30" yMin="0" xMax="356" yMax="767">
      <component glyphName="dotlessi" x="0" y="0" flags="0x204"/>
      <component glyphName="grave" x="140" y="0" flags="0x4"/>
    </TTGlyph>
    <TTGlyph name="j" xMin="-5" yMin="-319" xMax="270" yMax="746">
      <contour>
        <pt x="-5" y="-262" on="1"/>
        <pt x="48" y="-217" on="0"/>
        <pt x="100" y="-95" on="0"/>
        <pt x="100" y="0" on="1"/>
        <pt x="100" y="409" on="1"/>
        <pt x="15" y="409" on="1"/>
        <pt x="15" y="462" on="1"/>
        <pt x="175" y="500" on="1"/>
        <pt x="254" y="500" on="1"/>
        <pt x="254" y="0" on="1"/>
        <pt x="254" y="-200" on="0"/>
        <pt x="36" y="-319" on="1"/>
      </contour>
      <contour>
        <pt x="84" y="654" on="1"/>
        <pt x="84" y="693" on="0"/>
        <pt x="138" y="746" on="0"/>
        <pt x="177" y="746" on="1"/>
        <pt x="217" y="746" on="0"/>
        <pt x="270" y="693" on="0"/>
        <pt x="270" y="654" on="1"/>
        <pt x="270" y="614" on="0"/>
        <pt x="217" y="560" on="0"/>
        <pt x="177" y="560" on="1"/>
        <pt x="138" y="560" on="0"/>
        <pt x="84" y="614" on="0"/>
      </contour>
    </TTGlyph>
    <TTGlyph name="k" xMin="15" yMin="0" xMax="638" yMax="800">
      <contour>
        <pt x="15" y="0" on="1"/>
        <pt x="15" y="53" on="1"/>
        <pt x="100" y="73" on="1"/>
        <pt x="100" y="709" on="1"/>
        <pt x="15" y="709" on="1"/>
        <pt x="15" y="762" on="1"/>
        <pt x="175" y="800" on="1"/>
        <pt x="254" y="800" on="1"/>
        <pt x="254" y="73" on="1"/>
        <pt x="319" y="53" on="1"/>
        <pt x="319" y="0" on="1"/>
      </contour>
      <contour>
        <pt x="272" y="241" on="1"/>
        <pt x="448" y="432" on="1"/>
        <pt x="388" y="447" on="1"/>
        <pt x="388" y="500" on="1"/>
        <pt x="623" y="500" on="1"/>
        <pt x="623" y="447" on="1"/>
        <pt x="532" y="428" on="1"/>
        <pt x="417" y="301" on="1"/>
        <pt x="558" y="72" on="1"/>
        <pt x="638" y="53" on="1"/>
        <pt x="638" y="0" on="1"/>
        <pt x="418" y="0" on="1"/>
      </contour>
    </TTGlyph>
    <TTGlyph name="l" xMin="15" yMin="0" xMax="339" yMax="800">
      <contour>
        <pt x="15" y="0" on="1"/>
        <pt x="15" y="53" on="1"/>
        <pt x="100" y="73" on="1"/>
        <pt x="100" y="709" on="1"/>
        <pt x="15" y="709" on="1"/>
        <pt x="15" y="762" on="1"/>
        <pt x="175" y="800" on="1"/>
        <pt x="254" y="800" on="1"/>
        <pt x="254" y="73" on="1"/>
        <pt x="339" y="53" on="1"/>
        <pt x="339" y="0" on="1"/>
      </contour>
    </TTGlyph>
    <TTGlyph name="less" xMin="39" yMin="93" xMax="469" yMax="622">
      <contour>
        <pt x="39" y="324" on="1"/>
        <pt x="39" y="391" on="1"/>
        <pt x="469" y="622" on="1"/>
        <pt x="469" y="522" on="1"/>
        <pt x="163" y="357" on="1"/>
        <pt x="469" y="193" on="1"/>
        <pt x="469" y="93" on="1"/>
      </contour>
    </TTGlyph>
    <TTGlyph name="logicalnot" xMin="52" yMin="123" xMax="491" yMax="399">
      <contour>
        <pt x="52" y="316" on="1"/>
        <pt x="52" y="399" on="1"/>
        <pt x="491" y="399" on="1"/>
        <pt x="491" y="123" on="1"/>
        <pt x="406" y="123" on="1"/>
        <pt x="406" y="316" on="1"/>
      </contour>
    </TTGlyph>
    <TTGlyph name="m" xMin="30" yMin="0" xMax="993" yMax="515">
      <contour>
        <pt x="30" y="0" on="1"/>
        <pt x="30" y="53" on="1"/>
        <pt x="115" y="73" on="1"/>
        <pt x="115" y="409" on="1"/>
        <pt x="30" y="409" on="1"/>
        <pt x="30" y="462" on="1"/>
        <pt x="190" y="500" on="1"/>
        <pt x="269" y="500" on="1"/>
        <pt x="269" y="459" on="1"/>
        <pt x="337" y="515" on="0"/>
        <pt x="417" y="515" on="1"/>
        <pt x="518" y="515" on="0"/>
        <pt x="565" y="443" on="1"/>
        <pt x="644" y="515" on="0"/>
        <pt x="737" y="515" on="1"/>
        <pt x="815" y="515" on="0"/>
        <pt x="908" y="427" on="0"/>
        <pt x="908" y="358" on="1"/>
        <pt x="908" y="73" on="1"/>
        <pt x="993" y="53" on="1"/>
        <pt x="993" y="0" on="1"/>
        <pt x="689" y="0" on="1"/>
        <pt x="689" y="53" on="1"/>
        <pt x="754" y="73" on="1"/>
        <pt x="754" y="345" on="1"/>
        <pt x="754" y="391" on="0"/>
        <pt x="718" y="427" on="0"/>
        <pt x="680" y="427" on="1"/>
        <pt x="638" y="427" on="0"/>
        <pt x="586" y="387" on="1"/>
        <pt x="589" y="372" on="0"/>
        <pt x="589" y="358" on="1"/>
        <pt x="589" y="73" on="1"/>
        <pt x="654" y="53" on="1"/>
        <pt x="654" y="0" on="1"/>
        <pt x="369" y="0" on="1"/>
        <pt x="369" y="53" on="1"/>
        <pt x="434" y="73" on="1"/>
        <pt x="434" y="345" on="1"/>
        <pt x="434" y="391" on="0"/>
        <pt x="398" y="427" on="0"/>
        <pt x="361" y="427" on="1"/>
        <pt x="320" y="427" on="0"/>
        <pt x="269" y="391" on="1"/>
        <pt x="269" y="73" on="1"/>
        <pt x="334" y="53" on="1"/>
        <pt x="334" y="0" on="1"/>
      </contour>
    </TTGlyph>
    <TTGlyph name="macron" xMin="0" yMin="617" xMax="459" yMax="700">
      <contour>
        <pt x="0" y="617" on="1"/>
        <pt x="0" y="700" on="1"/>
        <pt x="459" y="700" on="1"/>
        <pt x="459" y="617" on="1"/>
      </contour>
    </TTGlyph>
    <TTGlyph name="minus" xMin="65" yMin="313" xMax="515" yMax="399">
      <contour>
        <pt x="65" y="313" on="1"/>
        <pt x="65" y="399" on="1"/>
        <pt x="515" y="399" on="1"/>
        <pt x="515" y="313" on="1"/>
      </contour>
    </TTGlyph>
    <TTGlyph name="mu" xMin="90" yMin="-250" xMax="642" yMax="500">
      <contour>
        <pt x="90" y="-192" on="1"/>
        <pt x="90" y="500" on="1"/>
        <pt x="244" y="500" on="1"/>
        <pt x="244" y="159" on="1"/>
        <pt x="244" y="109" on="0"/>
        <pt x="277" y="65" on="0"/>
        <pt x="320" y="65" on="1"/>
        <pt x="367" y="65" on="0"/>
        <pt x="410" y="102" on="1"/>
        <pt x="410" y="500" on="1"/>
        <pt x="564" y="500" on="1"/>
        <pt x="564" y="153" on="1"/>
        <pt x="564" y="107" on="0"/>
        <pt x="605" y="74" on="0"/>
        <pt x="630" y="74" on="1"/>
        <pt x="642" y="74" on="1"/>
        <pt x="642" y="32" on="1"/>
        <pt x="637" y="27" on="0"/>
        <pt x="619" y="11" on="0"/>
        <pt x="555" y="-15" on="0"/>
        <pt x="518" y="-15" on="1"/>
        <pt x="441" y="-15" on="0"/>
        <pt x="414" y="41" on="1"/>
        <pt x="362" y="-15" on="0"/>
        <pt x="283" y="-15" on="1"/>
        <pt x="213" y="-15" on="0"/>
        <pt x="176" y="32" on="1"/>
        <pt x="176" y="-105" on="0"/>
        <pt x="260" y="-217" on="1"/>
        <pt x="204" y="-250" on="0"/>
        <pt x="143" y="-250" on="1"/>
        <pt x="90" y="-250" on="0"/>
      </contour>
    </TTGlyph>
    <TTGlyph name="multiply" xMin="50" yMin="135" xMax="494" yMax="579">
      <contour>
        <pt x="50" y="518" on="1"/>
        <pt x="111" y="579" on="1"/>
        <pt x="272" y="418" on="1"/>
        <pt x="433" y="579" on="1"/>
        <pt x="494" y="518" on="1"/>
        <pt x="333" y="357" on="1"/>
        <pt x="494" y="195" on="1"/>
        <pt x="434" y="135" on="1"/>
        <pt x="273" y="296" on="1"/>
        <pt x="112" y="136" on="1"/>
        <pt x="51" y="197" on="1"/>
        <pt x="211" y="357" on="1"/>
      </contour>
    </TTGlyph>
    <TTGlyph name="n" xMin="30" yMin="0" xMax="674" yMax="515">
      <contour>
        <pt x="30" y="0" on="1"/>
        <pt x="30" y="53" on="1"/>
        <pt x="115" y="73" on="1"/>
        <pt x="115" y="409" on="1"/>
        <pt x="30" y="409" on="1"/>
        <pt x="30" y="462" on="1"/>
        <pt x="190" y="500" on="1"/>
        <pt x="269" y="500" on="1"/>
        <pt x="269" y="451" on="1"/>
        <pt x="330" y="515" on="0"/>
        <pt x="420" y="515" on="1"/>
        <pt x="459" y="515" on="0"/>
        <pt x="522" y="492" on="0"/>
        <pt x="565" y="450" on="0"/>
        <pt x="589" y="392" on="0"/>
        <pt x="589" y="358" on="1"/>
        <pt x="589" y="73" on="1"/>
        <pt x="674" y="53" on="1"/>
        <pt x="674" y="0" on="1"/>
        <pt x="370" y="0" on="1"/>
        <pt x="370" y="53" on="1"/>
        <pt x="435" y="73" on="1"/>
        <pt x="435" y="330" on="1"/>
        <pt x="435" y="361" on="0"/>
        <pt x="428" y="399" on="0"/>
        <pt x="412" y="420" on="0"/>
        <pt x="385" y="427" on="0"/>
        <pt x="365" y="427" on="1"/>
        <pt x="327" y="427" on="0"/>
        <pt x="269" y="383" on="1"/>
        <pt x="269" y="73" on="1"/>
        <pt x="334" y="53" on="1"/>
        <pt x="334" y="0" on="1"/>
      </contour>
    </TTGlyph>
    <TTGlyph name="nine" xMin="31" yMin="-15" xMax="534" yMax="715">
      <contour>
        <pt x="31" y="487" on="1"/>
        <pt x="31" y="584" on="0"/>
        <pt x="160" y="715" on="0"/>
        <pt x="271" y="715" on="1"/>
        <pt x="395" y="715" on="0"/>
        <pt x="534" y="541" on="0"/>
        <pt x="534" y="400" on="1"/>
        <pt x="534" y="218" on="0"/>
        <pt x="307" y="-15" on="0"/>
        <pt x="123" y="-15" on="1"/>
        <pt x="115" y="-15" on="1"/>
        <pt x="116" y="53" on="1"/>
        <pt x="223" y="53" on="0"/>
        <pt x="353" y="194" on="0"/>
        <pt x="373" y="312" on="1"/>
        <pt x="316" y="259" on="0"/>
        <pt x="239" y="259" on="1"/>
        <pt x="138" y="259" on="0"/>
        <pt x="31" y="389" on="0"/>
      </contour>
      <contour>
        <pt x="195" y="504" on="1"/>
        <pt x="195" y="432" on="0"/>
        <pt x="255" y="350" on="0"/>
        <pt x="304" y="350" on="1"/>
        <pt x="347" y="350" on="0"/>
        <pt x="380" y="372" on="1"/>
        <pt x="380" y="378" on="0"/>
        <pt x="381" y="402" on="0"/>
        <pt x="381" y="409" on="1"/>
        <pt x="381" y="524" on="0"/>
        <pt x="339" y="650" on="0"/>
        <pt x="286" y="650" on="1"/>
        <pt x="249" y="650" on="0"/>
        <pt x="195" y="561" on="0"/>
      </contour>
    </TTGlyph>
    <TTGlyph name="nonbreakingspace" xMin="0" yMin="0" xMax="0" yMax="0">
      <component glyphName="space" x="0" y="0" flags="0x204"/>
    </TTGlyph>
    <TTGlyph name="ntilde" xMin="30" yMin="0" xMax="674" yMax="747">
      <component glyphName="n" x="0" y="0" flags="0x204"/>
      <component glyphName="tilde" x="122" y="2" flags="0x4"/>
    </TTGlyph>
    <TTGlyph name="numbersign" xMin="46" yMin="0" xMax="564" yMax="715">
      <contour>
        <pt x="46" y="191" on="1"/>
        <pt x="46" y="274" on="1"/>
        <pt x="141" y="274" on="1"/>
        <pt x="174" y="446" on="1"/>
        <pt x="73" y="446" on="1"/>
        <pt x="73" y="529" on="1"/>
        <pt x="189" y="529" on="1"/>
        <pt x="223" y="715" on="1"/>
        <pt x="309" y="715" on="1"/>
        <pt x="274" y="529" on="1"/>
        <pt x="389" y="529" on="1"/>
        <pt x="424" y="715" on="1"/>
        <pt x="510" y="715" on="1"/>
        <pt x="474" y="529" on="1"/>
        <pt x="564" y="529" on="1"/>
        <pt x="564" y="446" on="1"/>
        <pt x="459" y="446" on="1"/>
        <pt x="426" y="274" on="1"/>
        <pt x="537" y="274" on="1"/>
        <pt x="537" y="191" on="1"/>
        <pt x="410" y="191" on="1"/>
        <pt x="375" y="0" on="1"/>
        <pt x="290" y="0" on="1"/>
        <pt x="325" y="191" on="1"/>
        <pt x="211" y="191" on="1"/>
        <pt x="175" y="0" on="1"/>
        <pt x="90" y="0" on="1"/>
        <pt x="125" y="191" on="1"/>
      </contour>
      <contour>
        <pt x="226" y="274" on="1"/>
        <pt x="341" y="274" on="1"/>
        <pt x="374" y="446" on="1"/>
        <pt x="259" y="446" on="1"/>
      </contour>
    </TTGlyph>
    <TTGlyph name="o" xMin="33" yMin="-15" xMax="572" yMax="515">
      <contour>
        <pt x="303" y="-15" on="1"/>
        <pt x="246" y="-15" on="0"/>
        <pt x="147" y="25" on="0"/>
        <pt x="75" y="95" on="0"/>
        <pt x="33" y="193" on="0"/>
        <pt x="33" y="251" on="1"/>
        <pt x="33" y="309" on="0"/>
        <pt x="75" y="406" on="0"/>
        <pt x="147" y="476" on="0"/>
        <pt x="246" y="515" on="0"/>
        <pt x="303" y="515" on="1"/>
        <pt x="360" y="515" on="0"/>
        <pt x="458" y="476" on="0"/>
        <pt x="531" y="406" on="0"/>
        <pt x="572" y="309" on="0"/>
        <pt x="572" y="251" on="1"/>
        <pt x="572" y="194" on="0"/>
        <pt x="531" y="96" on="0"/>
        <pt x="458" y="25" on="0"/>
        <pt x="360" y="-15" on="0"/>
      </contour>
      <contour>
        <pt x="194" y="251" on="1"/>
        <pt x="194" y="157" on="0"/>
        <pt x="249" y="50" on="0"/>
        <pt x="303" y="50" on="1"/>
        <pt x="357" y="50" on="0"/>
        <pt x="412" y="157" on="0"/>
        <pt x="412" y="251" on="1"/>
        <pt x="412" y="344" on="0"/>
        <pt x="357" y="450" on="0"/>
        <pt x="303" y="450" on="1"/>
        <pt x="249" y="450" on="0"/>
        <pt x="194" y="344" on="0"/>
      </contour>
    </TTGlyph>
    <TTGlyph name="oacute" xMin="33" yMin="-15" xMax="572" yMax="767">
      <component glyphName="o" x="0" y="0" flags="0x204"/>
      <component glyphName="acute" x="188" y="0" flags="0x4"/>
    </TTGlyph>
    <TTGlyph name="ocircumflex" xMin="33" yMin="-15" xMax="572" yMax="766">
      <component glyphName="o" x="0" y="0" flags="0x204"/>
      <component glyphName="circumflex" x="143" y="0" flags="0x4"/>
    </TTGlyph>
    <TTGlyph name="odieresis" xMin="33" yMin="-15" xMax="572" yMax="767">
      <component glyphName="o" x="0" y="0" flags="0x204"/>
      <component glyphName="dieresis" x="102" y="0" flags="0x4"/>
    </TTGlyph>
    <TTGlyph name="oe" xMin="34" yMin="-15" xMax="887" yMax="515">
      <contour>
        <pt x="296" y="515" on="1"/>
        <pt x="418" y="515" on="0"/>
        <pt x="490" y="420" on="1"/>
        <pt x="555" y="515" on="0"/>
        <pt x="674" y="515" on="1"/>
        <pt x="729" y="515" on="0"/>
        <pt x="809" y="473" on="0"/>
        <pt x="862" y="399" on="0"/>
        <pt x="887" y="299" on="0"/>
        <pt x="887" y="241" on="1"/>
        <pt x="580" y="241" on="1"/>
        <pt x="593" y="60" on="0"/>
        <pt x="737" y="60" on="1"/>
        <pt x="789" y="60" on="0"/>
        <pt x="852" y="83" on="1"/>
        <pt x="867" y="26" on="1"/>
        <pt x="773" y="-15" on="0"/>
        <pt x="692" y="-15" on="1"/>
        <pt x="562" y="-15" on="0"/>
        <pt x="493" y="84" on="1"/>
        <pt x="422" y="-15" on="0"/>
        <pt x="296" y="-15" on="1"/>
        <pt x="239" y="-15" on="0"/>
        <pt x="143" y="24" on="0"/>
        <pt x="73" y="95" on="0"/>
        <pt x="34" y="192" on="0"/>
        <pt x="34" y="250" on="1"/>
        <pt x="34" y="308" on="0"/>
        <pt x="73" y="405" on="0"/>
        <pt x="143" y="476" on="0"/>
        <pt x="239" y="515" on="0"/>
      </contour>
      <contour>
        <pt x="296" y="50" on="1"/>
        <pt x="397" y="50" on="0"/>
        <pt x="397" y="250" on="1"/>
        <pt x="397" y="450" on="0"/>
        <pt x="296" y="450" on="1"/>
        <pt x="193" y="450" on="0"/>
        <pt x="193" y="250" on="1"/>
        <pt x="193" y="50" on="0"/>
      </contour>
      <contour>
        <pt x="580" y="300" on="1"/>
        <pt x="742" y="317" on="1"/>
        <pt x="746" y="375" on="0"/>
        <pt x="710" y="450" on="0"/>
        <pt x="674" y="450" on="1"/>
        <pt x="592" y="450" on="0"/>
      </contour>
    </TTGlyph>
    <TTGlyph name="ograve" xMin="33" yMin="-15" xMax="572" yMax="767">
      <component glyphName="o" x="0" y="0" flags="0x204"/>
      <component glyphName="grave" x="246" y="0" flags="0x4"/>
    </TTGlyph>
    <TTGlyph name="one" xMin="26" yMin="0" xMax="409" yMax="700">
      <contour>
        <pt x="26" y="589" on="1"/>
        <pt x="237" y="700" on="1"/>
        <pt x="324" y="700" on="1"/>
        <pt x="324" y="69" on="1"/>
        <pt x="409" y="53" on="1"/>
        <pt x="409" y="0" on="1"/>
        <pt x="47" y="0" on="1"/>
        <pt x="47" y="53" on="1"/>
        <pt x="162" y="73" on="1"/>
        <pt x="162" y="589" on="1"/>
        <pt x="42" y="538" on="1"/>
      </contour>
    </TTGlyph>
    <TTGlyph name="onehalf" xMin="42" yMin="0" xMax="844" yMax="714">
      <component glyphName="onesuperior" x="3" y="0" flags="0x4"/>
      <component glyphName="twosuperior" x="508" y="-284" flags="0x4"/>
      <component glyphName="fraction" x="234" y="0" flags="0x4"/>
    </TTGlyph>
    <TTGlyph name="onequarter" xMin="41" yMin="0" xMax="773" yMax="714">
      <component glyphName="onesuperior" x="2" y="0" flags="0x4"/>
      <component glyphName="foursuperior" x="433" y="-285" flags="0x4"/>
      <component glyphName="fraction" x="233" y="0" flags="0x4"/>
    </TTGlyph>
    <TTGlyph name="onesuperior" xMin="39" yMin="285" xMax="277" yMax="710">
      <contour>
        <pt x="39" y="644" on="1"/>
        <pt x="165" y="710" on="1"/>
        <pt x="226" y="710" on="1"/>
        <pt x="226" y="326" on="1"/>
        <pt x="277" y="317" on="1"/>
        <pt x="277" y="285" on="1"/>
        <pt x="52" y="285" on="1"/>
        <pt x="52" y="317" on="1"/>
        <pt x="120" y="329" on="1"/>
        <pt x="120" y="644" on="1"/>
        <pt x="49" y="613" on="1"/>
      </contour>
    </TTGlyph>
    <TTGlyph name="ordfeminine" xMin="38" yMin="396" xMax="370" yMax="714">
      <contour>
        <pt x="38" y="479" on="1"/>
        <pt x="38" y="530" on="0"/>
        <pt x="133" y="586" on="0"/>
        <pt x="220" y="586" on="1"/>
        <pt x="220" y="604" on="1"/>
        <pt x="220" y="632" on="0"/>
        <pt x="216" y="658" on="0"/>
        <pt x="198" y="677" on="0"/>
        <pt x="180" y="677" on="1"/>
        <pt x="105" y="611" on="1"/>
        <pt x="62" y="634" on="0"/>
        <pt x="62" y="686" on="1"/>
        <pt x="119" y="714" on="0"/>
        <pt x="189" y="714" on="1"/>
        <pt x="256" y="714" on="0"/>
        <pt x="323" y="659" on="0"/>
        <pt x="323" y="611" on="1"/>
        <pt x="323" y="451" on="1"/>
        <pt x="370" y="451" on="1"/>
        <pt x="370" y="424" on="1"/>
        <pt x="342" y="396" on="0"/>
        <pt x="296" y="396" on="1"/>
        <pt x="251" y="396" on="0"/>
        <pt x="228" y="427" on="1"/>
        <pt x="188" y="396" on="0"/>
        <pt x="133" y="396" on="1"/>
        <pt x="92" y="396" on="0"/>
        <pt x="38" y="439" on="0"/>
      </contour>
      <contour>
        <pt x="145" y="485" on="1"/>
        <pt x="145" y="468" on="0"/>
        <pt x="164" y="450" on="0"/>
        <pt x="180" y="450" on="1"/>
        <pt x="204" y="450" on="0"/>
        <pt x="220" y="467" on="1"/>
        <pt x="220" y="547" on="1"/>
        <pt x="190" y="544" on="0"/>
        <pt x="145" y="511" on="0"/>
      </contour>
    </TTGlyph>
    <TTGlyph name="ordmasculine" xMin="37" yMin="394" xMax="356" yMax="715">
      <contour>
        <pt x="37" y="556" on="1"/>
        <pt x="37" y="626" on="0"/>
        <pt x="118" y="715" on="0"/>
        <pt x="196" y="715" on="1"/>
        <pt x="275" y="715" on="0"/>
        <pt x="356" y="626" on="0"/>
        <pt x="356" y="556" on="1"/>
        <pt x="356" y="484" on="0"/>
        <pt x="275" y="394" on="0"/>
        <pt x="196" y="394" on="1"/>
        <pt x="118" y="394" on="0"/>
        <pt x="37" y="484" on="0"/>
      </contour>
      <contour>
        <pt x="142" y="556" on="1"/>
        <pt x="142" y="436" on="0"/>
        <pt x="196" y="436" on="1"/>
        <pt x="251" y="436" on="0"/>
        <pt x="251" y="556" on="1"/>
        <pt x="251" y="674" on="0"/>
        <pt x="196" y="674" on="1"/>
        <pt x="142" y="674" on="0"/>
      </contour>
    </TTGlyph>
    <TTGlyph name="oslash" xMin="33" yMin="-71" xMax="572" yMax="569">
      <contour>
        <pt x="303" y="-15" on="1"/>
        <pt x="249" y="-15" on="0"/>
        <pt x="202" y="2" on="1"/>
        <pt x="162" y="-71" on="1"/>
        <pt x="97" y="-71" on="1"/>
        <pt x="151" y="28" on="1"/>
        <pt x="129" y="42" on="0"/>
        <pt x="111" y="60" on="1"/>
        <pt x="75" y="95" on="0"/>
        <pt x="33" y="193" on="0"/>
        <pt x="33" y="251" on="1"/>
        <pt x="33" y="309" on="0"/>
        <pt x="75" y="406" on="0"/>
        <pt x="147" y="476" on="0"/>
        <pt x="246" y="515" on="0"/>
        <pt x="303" y="515" on="1"/>
        <pt x="359" y="515" on="0"/>
        <pt x="408" y="496" on="1"/>
        <pt x="448" y="569" on="1"/>
        <pt x="512" y="569" on="1"/>
        <pt x="458" y="470" on="1"/>
        <pt x="477" y="457" on="0"/>
        <pt x="494" y="441" on="1"/>
        <pt x="531" y="406" on="0"/>
        <pt x="572" y="309" on="0"/>
        <pt x="572" y="251" on="1"/>
        <pt x="572" y="194" on="0"/>
        <pt x="531" y="96" on="0"/>
        <pt x="458" y="25" on="0"/>
        <pt x="360" y="-15" on="0"/>
      </contour>
      <contour>
        <pt x="194" y="251" on="1"/>
        <pt x="194" y="181" on="0"/>
        <pt x="209" y="134" on="1"/>
        <pt x="367" y="422" on="1"/>
        <pt x="342" y="450" on="0"/>
        <pt x="303" y="450" on="1"/>
        <pt x="249" y="450" on="0"/>
        <pt x="194" y="344" on="0"/>
      </contour>
      <contour>
        <pt x="303" y="50" on="1"/>
        <pt x="357" y="50" on="0"/>
        <pt x="412" y="157" on="0"/>
        <pt x="412" y="251" on="1"/>
        <pt x="412" y="316" on="0"/>
        <pt x="398" y="361" on="1"/>
        <pt x="241" y="74" on="1"/>
        <pt x="266" y="50" on="0"/>
      </contour>
    </TTGlyph>
    <TTGlyph name="otilde" xMin="33" yMin="-15" xMax="572" yMax="747">
      <component glyphName="o" x="0" y="0" flags="0x204"/>
      <component glyphName="tilde" x="70" y="2" flags="0x4"/>
    </TTGlyph>
    <TTGlyph name="p" xMin="15" yMin="-300" xMax="606" yMax="515">
      <contour>
        <pt x="15" y="-247" on="1"/>
        <pt x="100" y="-227" on="1"/>
        <pt x="100" y="409" on="1"/>
        <pt x="15" y="409" on="1"/>
        <pt x="15" y="462" on="1"/>
        <pt x="175" y="500" on="1"/>
        <pt x="254" y="500" on="1"/>
        <pt x="254" y="452" on="1"/>
        <pt x="315" y="515" on="0"/>
        <pt x="400" y="515" on="1"/>
        <pt x="442" y="515" on="0"/>
        <pt x="517" y="482" on="0"/>
        <pt x="573" y="419" on="0"/>
        <pt x="606" y="327" on="0"/>
        <pt x="606" y="269" on="1"/>
        <pt x="606" y="201" on="0"/>
        <pt x="559" y="95" on="0"/>
        <pt x="479" y="23" on="0"/>
        <pt x="372" y="-15" on="0"/>
        <pt x="312" y="-15" on="1"/>
        <pt x="273" y="-15" on="0"/>
        <pt x="254" y="-9" on="1"/>
        <pt x="254" y="-227" on="1"/>
        <pt x="359" y="-247" on="1"/>
        <pt x="359" y="-300" on="1"/>
        <pt x="15" y="-300" on="1"/>
      </contour>
      <contour>
        <pt x="254" y="60" on="1"/>
        <pt x="277" y="50" on="0"/>
        <pt x="303" y="50" on="1"/>
        <pt x="367" y="50" on="0"/>
        <pt x="447" y="159" on="0"/>
        <pt x="447" y="265" on="1"/>
        <pt x="447" y="346" on="0"/>
        <pt x="391" y="424" on="0"/>
        <pt x="342" y="424" on="1"/>
        <pt x="320" y="424" on="0"/>
        <pt x="269" y="404" on="0"/>
        <pt x="254" y="389" on="1"/>
      </contour>
    </TTGlyph>
    <TTGlyph name="paragraph" xMin="36" yMin="-112" xMax="617" yMax="760">
      <contour>
        <pt x="36" y="582" on="1"/>
        <pt x="36" y="760" on="0"/>
        <pt x="261" y="760" on="1"/>
        <pt x="617" y="760" on="1"/>
        <pt x="617" y="707" on="1"/>
        <pt x="532" y="687" on="1"/>
        <pt x="532" y="-112" on="1"/>
        <pt x="440" y="-112" on="1"/>
        <pt x="440" y="682" on="1"/>
        <pt x="361" y="682" on="1"/>
        <pt x="361" y="-112" on="1"/>
        <pt x="269" y="-112" on="1"/>
        <pt x="269" y="386" on="1"/>
        <pt x="259" y="386" on="1"/>
        <pt x="36" y="386" on="0"/>
      </contour>
    </TTGlyph>
    <TTGlyph name="parenleft" xMin="30" yMin="-307" xMax="345" yMax="807">
      <contour>
        <pt x="30" y="250" on="1"/>
        <pt x="30" y="426" on="0"/>
        <pt x="186" y="720" on="0"/>
        <pt x="309" y="807" on="1"/>
        <pt x="344" y="761" on="1"/>
        <pt x="250" y="667" on="0"/>
        <pt x="148" y="397" on="0"/>
        <pt x="148" y="250" on="1"/>
        <pt x="148" y="101" on="0"/>
        <pt x="251" y="-170" on="0"/>
        <pt x="345" y="-263" on="1"/>
        <pt x="309" y="-307" on="1"/>
        <pt x="186" y="-224" on="0"/>
        <pt x="30" y="71" on="0"/>
      </contour>
    </TTGlyph>
    <TTGlyph name="parenright" xMin="-1" yMin="-307" xMax="314" yMax="807">
      <contour>
        <pt x="-1" y="-263" on="1"/>
        <pt x="93" y="-170" on="0"/>
        <pt x="195" y="101" on="0"/>
        <pt x="195" y="250" on="1"/>
        <pt x="195" y="398" on="0"/>
        <pt x="93" y="668" on="0"/>
        <pt x="-1" y="761" on="1"/>
        <pt x="34" y="807" on="1"/>
        <pt x="157" y="720" on="0"/>
        <pt x="314" y="425" on="0"/>
        <pt x="314" y="250" on="1"/>
        <pt x="314" y="71" on="0"/>
        <pt x="157" y="-224" on="0"/>
        <pt x="34" y="-307" on="1"/>
      </contour>
    </TTGlyph>
    <TTGlyph name="percent" xMin="39" yMin="-15" xMax="707" yMax="715">
      <contour>
        <pt x="80" y="420" on="1"/>
        <pt x="39" y="470" on="0"/>
        <pt x="39" y="543" on="1"/>
        <pt x="39" y="580" on="0"/>
        <pt x="60" y="643" on="0"/>
        <pt x="101" y="689" on="0"/>
        <pt x="159" y="715" on="0"/>
        <pt x="196" y="715" on="1"/>
        <pt x="233" y="715" on="0"/>
        <pt x="292" y="688" on="0"/>
        <pt x="331" y="642" on="0"/>
        <pt x="352" y="579" on="0"/>
        <pt x="352" y="543" on="1"/>
        <pt x="352" y="507" on="0"/>
        <pt x="331" y="444" on="0"/>
        <pt x="292" y="397" on="0"/>
        <pt x="233" y="371" on="0"/>
        <pt x="196" y="371" on="1"/>
        <pt x="122" y="371" on="0"/>
      </contour>
      <contour>
        <pt x="196" y="420" on="1"/>
        <pt x="246" y="420" on="0"/>
        <pt x="246" y="543" on="1"/>
        <pt x="246" y="666" on="0"/>
        <pt x="196" y="666" on="1"/>
        <pt x="145" y="666" on="0"/>
        <pt x="145" y="543" on="1"/>
        <pt x="145" y="420" on="0"/>
      </contour>
      <contour>
        <pt x="155" y="0" on="1"/>
        <pt x="504" y="700" on="1"/>
        <pt x="589" y="700" on="1"/>
        <pt x="241" y="0" on="1"/>
      </contour>
      <contour>
        <pt x="434" y="34" on="1"/>
        <pt x="393" y="84" on="0"/>
        <pt x="393" y="157" on="1"/>
        <pt x="393" y="194" on="0"/>
        <pt x="414" y="257" on="0"/>
        <pt x="455" y="303" on="0"/>
        <pt x="513" y="329" on="0"/>
        <pt x="550" y="329" on="1"/>
        <pt x="587" y="329" on="0"/>
        <pt x="646" y="302" on="0"/>
        <pt x="686" y="255" on="0"/>
        <pt x="707" y="193" on="0"/>
        <pt x="707" y="157" on="1"/>
        <pt x="707" y="121" on="0"/>
        <pt x="686" y="58" on="0"/>
        <pt x="646" y="12" on="0"/>
        <pt x="587" y="-15" on="0"/>
        <pt x="550" y="-15" on="1"/>
        <pt x="476" y="-15" on="0"/>
      </contour>
      <contour>
        <pt x="499" y="157" on="1"/>
        <pt x="499" y="34" on="0"/>
        <pt x="550" y="34" on="1"/>
        <pt x="601" y="34" on="0"/>
        <pt x="601" y="157" on="1"/>
        <pt x="601" y="279" on="0"/>
        <pt x="550" y="279" on="1"/>
        <pt x="499" y="279" on="0"/>
      </contour>
    </TTGlyph>
    <TTGlyph name="period" xMin="41" yMin="-23" xMax="212" yMax="148">
      <contour>
        <pt x="41" y="63" on="1"/>
        <pt x="41" y="97" on="0"/>
        <pt x="92" y="148" on="0"/>
        <pt x="127" y="148" on="1"/>
        <pt x="162" y="148" on="0"/>
        <pt x="212" y="98" on="0"/>
        <pt x="212" y="63" on="1"/>
        <pt x="212" y="30" on="0"/>
        <pt x="162" y="-23" on="0"/>
        <pt x="127" y="-23" on="1"/>
        <pt x="92" y="-23" on="0"/>
        <pt x="41" y="30" on="0"/>
      </contour>
    </TTGlyph>
    <TTGlyph name="periodcentered" xMin="45" yMin="210" xMax="223" yMax="388">
      <contour>
        <pt x="45" y="300" on="1"/>
        <pt x="45" y="335" on="0"/>
        <pt x="98" y="388" on="0"/>
        <pt x="135" y="388" on="1"/>
        <pt x="171" y="388" on="0"/>
        <pt x="223" y="336" on="0"/>
        <pt x="223" y="300" on="1"/>
        <pt x="223" y="265" on="0"/>
        <pt x="171" y="210" on="0"/>
        <pt x="135" y="210" on="1"/>
        <pt x="98" y="210" on="0"/>
        <pt x="45" y="265" on="0"/>
      </contour>
    </TTGlyph>
    <TTGlyph name="plus" xMin="43" yMin="127" xMax="502" yMax="585">
      <contour>
        <pt x="43" y="313" on="1"/>
        <pt x="43" y="399" on="1"/>
        <pt x="229" y="399" on="1"/>
        <pt x="229" y="585" on="1"/>
        <pt x="315" y="585" on="1"/>
        <pt x="315" y="399" on="1"/>
        <pt x="502" y="399" on="1"/>
        <pt x="502" y="313" on="1"/>
        <pt x="315" y="313" on="1"/>
        <pt x="315" y="127" on="1"/>
        <pt x="229" y="127" on="1"/>
        <pt x="229" y="313" on="1"/>
      </contour>
    </TTGlyph>
    <TTGlyph name="plusminus" xMin="53" yMin="0" xMax="502" yMax="585">
      <contour>
        <pt x="53" y="0" on="1"/>
        <pt x="53" y="87" on="1"/>
        <pt x="502" y="87" on="1"/>
        <pt x="502" y="0" on="1"/>
      </contour>
      <contour>
        <pt x="53" y="313" on="1"/>
        <pt x="53" y="399" on="1"/>
        <pt x="229" y="399" on="1"/>
        <pt x="229" y="585" on="1"/>
        <pt x="315" y="585" on="1"/>
        <pt x="315" y="399" on="1"/>
        <pt x="502" y="399" on="1"/>
        <pt x="502" y="313" on="1"/>
        <pt x="315" y="313" on="1"/>
        <pt x="315" y="127" on="1"/>
        <pt x="229" y="127" on="1"/>
        <pt x="229" y="313" on="1"/>
      </contour>
    </TTGlyph>
    <TTGlyph name="q" xMin="35" yMin="-300" xMax="626" yMax="515">
      <contour>
        <pt x="35" y="232" on="1"/>
        <pt x="35" y="366" on="0"/>
        <pt x="219" y="515" on="0"/>
        <pt x="344" y="515" on="1"/>
        <pt x="458" y="515" on="0"/>
        <pt x="541" y="464" on="1"/>
        <pt x="541" y="-227" on="1"/>
        <pt x="626" y="-247" on="1"/>
        <pt x="626" y="-300" on="1"/>
        <pt x="281" y="-300" on="1"/>
        <pt x="281" y="-247" on="1"/>
        <pt x="386" y="-227" on="1"/>
        <pt x="386" y="31" on="1"/>
        <pt x="341" y="-15" on="0"/>
        <pt x="256" y="-15" on="1"/>
        <pt x="216" y="-15" on="0"/>
        <pt x="139" y="15" on="0"/>
        <pt x="74" y="72" on="0"/>
        <pt x="35" y="170" on="0"/>
      </contour>
      <contour>
        <pt x="193" y="236" on="1"/>
        <pt x="193" y="158" on="0"/>
        <pt x="263" y="76" on="0"/>
        <pt x="314" y="76" on="1"/>
        <pt x="356" y="76" on="0"/>
        <pt x="386" y="99" on="1"/>
        <pt x="386" y="447" on="1"/>
        <pt x="370" y="450" on="0"/>
        <pt x="353" y="450" on="1"/>
        <pt x="193" y="450" on="0"/>
      </contour>
    </TTGlyph>
    <TTGlyph name="question" xMin="36" yMin="-15" xMax="450" yMax="715">
      <contour>
        <pt x="36" y="667" on="1"/>
        <pt x="45" y="672" on="0"/>
        <pt x="79" y="688" on="0"/>
        <pt x="183" y="715" on="0"/>
        <pt x="236" y="715" on="1"/>
        <pt x="343" y="715" on="0"/>
        <pt x="450" y="625" on="0"/>
        <pt x="450" y="544" on="1"/>
        <pt x="450" y="470" on="0"/>
        <pt x="356" y="360" on="0"/>
        <pt x="255" y="285" on="1"/>
        <pt x="240" y="192" on="1"/>
        <pt x="180" y="192" on="1"/>
        <pt x="165" y="314" on="1"/>
        <pt x="212" y="367" on="0"/>
        <pt x="256" y="425" on="0"/>
        <pt x="293" y="510" on="0"/>
        <pt x="293" y="554" on="1"/>
        <pt x="293" y="600" on="0"/>
        <pt x="238" y="663" on="0"/>
        <pt x="201" y="663" on="1"/>
        <pt x="83" y="550" on="1"/>
        <pt x="40" y="592" on="0"/>
      </contour>
      <contour>
        <pt x="124" y="71" on="1"/>
        <pt x="124" y="105" on="0"/>
        <pt x="175" y="156" on="0"/>
        <pt x="210" y="156" on="1"/>
        <pt x="245" y="156" on="0"/>
        <pt x="295" y="106" on="0"/>
        <pt x="295" y="71" on="1"/>
        <pt x="295" y="38" on="0"/>
        <pt x="245" y="-15" on="0"/>
        <pt x="210" y="-15" on="1"/>
        <pt x="175" y="-15" on="0"/>
        <pt x="124" y="38" on="0"/>
      </contour>
    </TTGlyph>
    <TTGlyph name="questiondown" xMin="38" yMin="-215" xMax="452" yMax="514">
      <component glyphName="question" x="488" y="500" scale="-0.999938964844" flags="0x4"/>
    </TTGlyph>
    <TTGlyph name="quotedbl" xMin="38" yMin="480" xMax="337" yMax="715">
      <contour>
        <pt x="212" y="715" on="1"/>
        <pt x="337" y="715" on="1"/>
        <pt x="307" y="480" on="1"/>
        <pt x="241" y="480" on="1"/>
      </contour>
      <contour>
        <pt x="38" y="715" on="1"/>
        <pt x="164" y="715" on="1"/>
        <pt x="134" y="480" on="1"/>
        <pt x="68" y="480" on="1"/>
      </contour>
    </TTGlyph>
    <TTGlyph name="quotedblbase" xMin="25" yMin="-177" xMax="427" yMax="141">
      <component glyphName="comma" x="0" y="0" flags="0x4"/>
      <component glyphName="comma" x="205" y="0" flags="0x4"/>
    </TTGlyph>
    <TTGlyph name="quotedblleft" xMin="37" yMin="430" xMax="439" yMax="747">
      <component glyphName="comma" x="259" y="571" scale="-0.999938964844" flags="0x4"/>
      <component glyphName="comma" x="464" y="571" scale="-0.999938964844" flags="0x4"/>
    </TTGlyph>
    <TTGlyph name="quotedblright" xMin="37" yMin="419" xMax="439" yMax="737">
      <component glyphName="comma" x="12" y="596" flags="0x4"/>
      <component glyphName="comma" x="217" y="596" flags="0x4"/>
    </TTGlyph>
    <TTGlyph name="quoteleft" xMin="36" yMin="428" xMax="233" yMax="745">
      <component glyphName="comma" x="258" y="569" scale="-0.999938964844" flags="0x4"/>
    </TTGlyph>
    <TTGlyph name="quoteright" xMin="37" yMin="419" xMax="234" yMax="737">
      <component glyphName="comma" x="12" y="596" flags="0x4"/>
    </TTGlyph>
    <TTGlyph name="quotesinglbase" xMin="25" yMin="-177" xMax="222" yMax="141">
      <component glyphName="comma" x="0" y="0" flags="0x204"/>
    </TTGlyph>
    <TTGlyph name="quotesingle" xMin="38" yMin="480" xMax="174" yMax="715">
      <contour>
        <pt x="38" y="715" on="1"/>
        <pt x="174" y="715" on="1"/>
        <pt x="144" y="480" on="1"/>
        <pt x="68" y="480" on="1"/>
      </contour>
    </TTGlyph>
    <TTGlyph name="r" xMin="30" yMin="0" xMax="453" yMax="515">
      <contour>
        <pt x="30" y="0" on="1"/>
        <pt x="30" y="53" on="1"/>
        <pt x="115" y="73" on="1"/>
        <pt x="115" y="409" on="1"/>
        <pt x="30" y="409" on="1"/>
        <pt x="30" y="462" on="1"/>
        <pt x="190" y="500" on="1"/>
        <pt x="269" y="500" on="1"/>
        <pt x="269" y="440" on="1"/>
        <pt x="344" y="515" on="0"/>
        <pt x="447" y="515" on="1"/>
        <pt x="453" y="496" on="0"/>
        <pt x="453" y="473" on="1"/>
        <pt x="453" y="427" on="0"/>
        <pt x="443" y="387" on="1"/>
        <pt x="317" y="408" on="1"/>
        <pt x="293" y="397" on="0"/>
        <pt x="269" y="376" on="1"/>
        <pt x="269" y="73" on="1"/>
        <pt x="374" y="53" on="1"/>
        <pt x="374" y="0" on="1"/>
      </contour>
    </TTGlyph>
    <TTGlyph name="registered" xMin="47" yMin="-10" xMax="782" yMax="725">
      <contour>
        <pt x="415" y="725" on="1"/>
        <pt x="490" y="725" on="0"/>
        <pt x="624" y="666" on="0"/>
        <pt x="724" y="566" on="0"/>
        <pt x="782" y="432" on="0"/>
        <pt x="782" y="357" on="1"/>
        <pt x="782" y="282" on="0"/>
        <pt x="724" y="149" on="0"/>
        <pt x="625" y="49" on="0"/>
        <pt x="491" y="-10" on="0"/>
        <pt x="415" y="-10" on="1"/>
        <pt x="339" y="-10" on="0"/>
        <pt x="205" y="48" on="0"/>
        <pt x="105" y="148" on="0"/>
        <pt x="47" y="281" on="0"/>
        <pt x="47" y="357" on="1"/>
        <pt x="47" y="433" on="0"/>
        <pt x="105" y="567" on="0"/>
        <pt x="205" y="667" on="0"/>
        <pt x="339" y="725" on="0"/>
      </contour>
      <contour>
        <pt x="201" y="571" on="1"/>
        <pt x="112" y="482" on="0"/>
        <pt x="112" y="357" on="1"/>
        <pt x="112" y="295" on="0"/>
        <pt x="160" y="185" on="0"/>
        <pt x="242" y="103" on="0"/>
        <pt x="353" y="55" on="0"/>
        <pt x="415" y="55" on="1"/>
        <pt x="477" y="55" on="0"/>
        <pt x="587" y="103" on="0"/>
        <pt x="669" y="185" on="0"/>
        <pt x="716" y="295" on="0"/>
        <pt x="716" y="357" on="1"/>
        <pt x="716" y="419" on="0"/>
        <pt x="668" y="529" on="0"/>
        <pt x="586" y="612" on="0"/>
        <pt x="477" y="660" on="0"/>
        <pt x="415" y="660" on="1"/>
        <pt x="290" y="660" on="0"/>
      </contour>
      <contour>
        <pt x="220" y="150" on="1"/>
        <pt x="220" y="184" on="1"/>
        <pt x="276" y="197" on="1"/>
        <pt x="276" y="523" on="1"/>
        <pt x="220" y="536" on="1"/>
        <pt x="220" y="570" on="1"/>
        <pt x="408" y="570" on="1"/>
        <pt x="575" y="570" on="0"/>
        <pt x="575" y="454" on="1"/>
        <pt x="575" y="376" on="0"/>
        <pt x="489" y="340" on="1"/>
        <pt x="567" y="196" on="1"/>
        <pt x="615" y="181" on="1"/>
        <pt x="615" y="150" on="1"/>
        <pt x="487" y="150" on="1"/>
        <pt x="394" y="332" on="1"/>
        <pt x="374" y="332" on="1"/>
        <pt x="374" y="197" on="1"/>
        <pt x="429" y="184" on="1"/>
        <pt x="429" y="150" on="1"/>
      </contour>
      <contour>
        <pt x="374" y="374" on="1"/>
        <pt x="390" y="374" on="1"/>
        <pt x="432" y="374" on="0"/>
        <pt x="475" y="417" on="0"/>
        <pt x="475" y="454" on="1"/>
        <pt x="475" y="486" on="0"/>
        <pt x="432" y="526" on="0"/>
        <pt x="390" y="526" on="1"/>
        <pt x="374" y="526" on="1"/>
      </contour>
    </TTGlyph>
    <TTGlyph name="ring" xMin="20" yMin="566" xMax="258" yMax="805">
      <contour>
        <pt x="20" y="686" on="1"/>
        <pt x="20" y="710" on="0"/>
        <pt x="39" y="754" on="0"/>
        <pt x="71" y="786" on="0"/>
        <pt x="115" y="805" on="0"/>
        <pt x="139" y="805" on="1"/>
        <pt x="163" y="805" on="0"/>
        <pt x="207" y="786" on="0"/>
        <pt x="239" y="754" on="0"/>
        <pt x="258" y="710" on="0"/>
        <pt x="258" y="686" on="1"/>
        <pt x="258" y="661" on="0"/>
        <pt x="239" y="618" on="0"/>
        <pt x="207" y="585" on="0"/>
        <pt x="164" y="566" on="0"/>
        <pt x="139" y="566" on="1"/>
        <pt x="114" y="566" on="0"/>
        <pt x="71" y="585" on="0"/>
        <pt x="39" y="618" on="0"/>
        <pt x="20" y="661" on="0"/>
      </contour>
      <contour>
        <pt x="182" y="686" on="1"/>
        <pt x="182" y="702" on="0"/>
        <pt x="156" y="729" on="0"/>
        <pt x="139" y="729" on="1"/>
        <pt x="122" y="729" on="0"/>
        <pt x="96" y="703" on="0"/>
        <pt x="96" y="686" on="1"/>
        <pt x="96" y="669" on="0"/>
        <pt x="122" y="643" on="0"/>
        <pt x="139" y="643" on="1"/>
        <pt x="156" y="643" on="0"/>
        <pt x="182" y="669" on="0"/>
      </contour>
    </TTGlyph>
    <TTGlyph name="ring.case" xMin="20" yMin="693" xMax="258" yMax="932">
      <contour>
        <pt x="20" y="813" on="1"/>
        <pt x="20" y="837" on="0"/>
        <pt x="39" y="881" on="0"/>
        <pt x="71" y="913" on="0"/>
        <pt x="115" y="932" on="0"/>
        <pt x="139" y="932" on="1"/>
        <pt x="163" y="932" on="0"/>
        <pt x="207" y="913" on="0"/>
        <pt x="239" y="881" on="0"/>
        <pt x="258" y="837" on="0"/>
        <pt x="258" y="813" on="1"/>
        <pt x="258" y="788" on="0"/>
        <pt x="239" y="745" on="0"/>
        <pt x="207" y="712" on="0"/>
        <pt x="164" y="693" on="0"/>
        <pt x="139" y="693" on="1"/>
        <pt x="114" y="693" on="0"/>
        <pt x="71" y="712" on="0"/>
        <pt x="39" y="745" on="0"/>
        <pt x="20" y="788" on="0"/>
      </contour>
      <contour>
        <pt x="182" y="813" on="1"/>
        <pt x="182" y="829" on="0"/>
        <pt x="156" y="856" on="0"/>
        <pt x="139" y="856" on="1"/>
        <pt x="122" y="856" on="0"/>
        <pt x="96" y="830" on="0"/>
        <pt x="96" y="813" on="1"/>
        <pt x="96" y="796" on="0"/>
        <pt x="122" y="770" on="0"/>
        <pt x="139" y="770" on="1"/>
        <pt x="156" y="770" on="0"/>
        <pt x="182" y="796" on="0"/>
      </contour>
    </TTGlyph>
    <TTGlyph name="s" xMin="42" yMin="-15" xMax="447" yMax="515">
      <contour>
        <pt x="42" y="8" on="1"/>
        <pt x="42" y="151" on="1"/>
        <pt x="98" y="151" on="1"/>
        <pt x="134" y="52" on="1"/>
        <pt x="170" y="50" on="0"/>
        <pt x="191" y="50" on="1"/>
        <pt x="308" y="50" on="0"/>
        <pt x="308" y="101" on="1"/>
        <pt x="308" y="122" on="0"/>
        <pt x="266" y="153" on="0"/>
        <pt x="228" y="171" on="0"/>
        <pt x="175" y="194" on="1"/>
        <pt x="106" y="224" on="0"/>
        <pt x="43" y="301" on="0"/>
        <pt x="43" y="362" on="1"/>
        <pt x="43" y="437" on="0"/>
        <pt x="164" y="515" on="0"/>
        <pt x="262" y="515" on="1"/>
        <pt x="351" y="515" on="0"/>
        <pt x="415" y="496" on="1"/>
        <pt x="415" y="360" on="1"/>
        <pt x="363" y="360" on="1"/>
        <pt x="332" y="448" on="1"/>
        <pt x="302" y="453" on="0"/>
        <pt x="272" y="453" on="1"/>
        <pt x="176" y="453" on="0"/>
        <pt x="176" y="406" on="1"/>
        <pt x="176" y="394" on="0"/>
        <pt x="194" y="368" on="0"/>
        <pt x="241" y="342" on="0"/>
        <pt x="292" y="320" on="1"/>
        <pt x="383" y="279" on="0"/>
        <pt x="447" y="202" on="0"/>
        <pt x="447" y="137" on="1"/>
        <pt x="447" y="63" on="0"/>
        <pt x="325" y="-15" on="0"/>
        <pt x="224" y="-15" on="1"/>
        <pt x="129" y="-15" on="0"/>
      </contour>
    </TTGlyph>
    <TTGlyph name="section" xMin="55" yMin="-83" xMax="488" yMax="759">
      <contour>
        <pt x="55" y="346" on="1"/>
        <pt x="55" y="428" on="0"/>
        <pt x="141" y="475" on="1"/>
        <pt x="57" y="530" on="0"/>
        <pt x="57" y="606" on="1"/>
        <pt x="57" y="674" on="0"/>
        <pt x="180" y="759" on="0"/>
        <pt x="266" y="759" on="1"/>
        <pt x="368" y="759" on="0"/>
        <pt x="443" y="733" on="1"/>
        <pt x="443" y="576" on="1"/>
        <pt x="393" y="576" on="1"/>
        <pt x="352" y="688" on="1"/>
        <pt x="315" y="695" on="0"/>
        <pt x="298" y="695" on="1"/>
        <pt x="246" y="695" on="0"/>
        <pt x="199" y="658" on="0"/>
        <pt x="199" y="631" on="1"/>
        <pt x="199" y="564" on="0"/>
        <pt x="291" y="528" on="1"/>
        <pt x="325" y="515" on="0"/>
        <pt x="369" y="494" on="0"/>
        <pt x="428" y="458" on="0"/>
        <pt x="463" y="421" on="0"/>
        <pt x="488" y="365" on="0"/>
        <pt x="488" y="333" on="1"/>
        <pt x="488" y="294" on="0"/>
        <pt x="446" y="222" on="0"/>
        <pt x="414" y="197" on="1"/>
        <pt x="485" y="145" on="0"/>
        <pt x="485" y="72" on="1"/>
        <pt x="485" y="-2" on="0"/>
        <pt x="351" y="-83" on="0"/>
        <pt x="255" y="-83" on="1"/>
        <pt x="150" y="-83" on="0"/>
        <pt x="68" y="-43" on="1"/>
        <pt x="68" y="113" on="1"/>
        <pt x="118" y="113" on="1"/>
        <pt x="161" y="-4" on="1"/>
        <pt x="199" y="-16" on="0"/>
        <pt x="222" y="-16" on="1"/>
        <pt x="335" y="-16" on="0"/>
        <pt x="335" y="62" on="1"/>
        <pt x="335" y="94" on="0"/>
        <pt x="292" y="136" on="0"/>
        <pt x="234" y="162" on="1"/>
        <pt x="139" y="202" on="0"/>
        <pt x="55" y="284" on="0"/>
      </contour>
      <contour>
        <pt x="147" y="372" on="1"/>
        <pt x="147" y="351" on="0"/>
        <pt x="166" y="318" on="0"/>
        <pt x="209" y="291" on="0"/>
        <pt x="243" y="276" on="0"/>
        <pt x="275" y="264" on="1"/>
        <pt x="342" y="237" on="0"/>
        <pt x="360" y="228" on="1"/>
        <pt x="387" y="258" on="0"/>
        <pt x="387" y="298" on="1"/>
        <pt x="387" y="341" on="0"/>
        <pt x="321" y="395" on="0"/>
        <pt x="251" y="423" on="1"/>
        <pt x="215" y="437" on="0"/>
        <pt x="196" y="446" on="1"/>
        <pt x="147" y="415" on="0"/>
      </contour>
    </TTGlyph>
    <TTGlyph name="semicolon" xMin="43" yMin="-177" xMax="240" yMax="488">
      <contour>
        <pt x="43" y="-135" on="1"/>
        <pt x="102" y="-74" on="0"/>
        <pt x="136" y="-5" on="1"/>
        <pt x="55" y="46" on="1"/>
        <pt x="55" y="87" on="0"/>
        <pt x="110" y="141" on="0"/>
        <pt x="147" y="141" on="1"/>
        <pt x="192" y="141" on="0"/>
        <pt x="240" y="90" on="0"/>
        <pt x="240" y="43" on="1"/>
        <pt x="240" y="-15" on="0"/>
        <pt x="143" y="-143" on="0"/>
        <pt x="90" y="-177" on="1"/>
      </contour>
      <contour>
        <pt x="59" y="403" on="1"/>
        <pt x="59" y="437" on="0"/>
        <pt x="110" y="488" on="0"/>
        <pt x="145" y="488" on="1"/>
        <pt x="180" y="488" on="0"/>
        <pt x="230" y="438" on="0"/>
        <pt x="230" y="403" on="1"/>
        <pt x="230" y="370" on="0"/>
        <pt x="180" y="317" on="0"/>
        <pt x="145" y="317" on="1"/>
        <pt x="110" y="317" on="0"/>
        <pt x="59" y="370" on="0"/>
      </contour>
    </TTGlyph>
    <TTGlyph name="seven" xMin="26" yMin="0" xMax="496" yMax="700">
      <contour>
        <pt x="26" y="495" on="1"/>
        <pt x="54" y="700" on="1"/>
        <pt x="496" y="700" on="1"/>
        <pt x="496" y="656" on="1"/>
        <pt x="298" y="386" on="0"/>
        <pt x="259" y="0" on="1"/>
        <pt x="99" y="0" on="1"/>
        <pt x="116" y="137" on="0"/>
        <pt x="255" y="455" on="0"/>
        <pt x="336" y="573" on="1"/>
        <pt x="117" y="573" on="1"/>
        <pt x="80" y="495" on="1"/>
      </contour>
    </TTGlyph>
    <TTGlyph name="six" xMin="46" yMin="-15" xMax="549" yMax="707">
      <contour>
        <pt x="46" y="300" on="1"/>
        <pt x="46" y="481" on="0"/>
        <pt x="271" y="707" on="0"/>
        <pt x="465" y="707" on="1"/>
        <pt x="463" y="639" on="1"/>
        <pt x="357" y="639" on="0"/>
        <pt x="227" y="503" on="0"/>
        <pt x="207" y="388" on="1"/>
        <pt x="266" y="440" on="0"/>
        <pt x="341" y="440" on="1"/>
        <pt x="442" y="440" on="0"/>
        <pt x="549" y="310" on="0"/>
        <pt x="549" y="212" on="1"/>
        <pt x="549" y="116" on="0"/>
        <pt x="420" y="-15" on="0"/>
        <pt x="309" y="-15" on="1"/>
        <pt x="185" y="-15" on="0"/>
        <pt x="46" y="159" on="0"/>
      </contour>
      <contour>
        <pt x="199" y="291" on="1"/>
        <pt x="199" y="216" on="0"/>
        <pt x="214" y="116" on="0"/>
        <pt x="257" y="50" on="0"/>
        <pt x="293" y="50" on="1"/>
        <pt x="331" y="50" on="0"/>
        <pt x="385" y="138" on="0"/>
        <pt x="385" y="195" on="1"/>
        <pt x="385" y="267" on="0"/>
        <pt x="325" y="349" on="0"/>
        <pt x="276" y="349" on="1"/>
        <pt x="231" y="349" on="0"/>
        <pt x="200" y="327" on="1"/>
        <pt x="199" y="315" on="0"/>
      </contour>
    </TTGlyph>
    <TTGlyph name="slash" xMin="29" yMin="0" xMax="434" yMax="700">
      <contour>
        <pt x="29" y="0" on="1"/>
        <pt x="340" y="700" on="1"/>
        <pt x="434" y="700" on="1"/>
        <pt x="124" y="0" on="1"/>
      </contour>
    </TTGlyph>
    <TTGlyph name="sterling" xMin="52" yMin="0" xMax="520" yMax="715">
      <contour>
        <pt x="52" y="0" on="1"/>
        <pt x="52" y="55" on="1"/>
        <pt x="181" y="151" on="0"/>
        <pt x="181" y="267" on="1"/>
        <pt x="181" y="294" on="0"/>
        <pt x="167" y="333" on="1"/>
        <pt x="59" y="333" on="1"/>
        <pt x="59" y="390" on="1"/>
        <pt x="137" y="395" on="1"/>
        <pt x="105" y="452" on="1"/>
        <pt x="101" y="459" on="0"/>
        <pt x="70" y="530" on="0"/>
        <pt x="70" y="564" on="1"/>
        <pt x="70" y="641" on="0"/>
        <pt x="204" y="715" on="0"/>
        <pt x="294" y="715" on="1"/>
        <pt x="409" y="715" on="0"/>
        <pt x="506" y="665" on="1"/>
        <pt x="504" y="632" on="0"/>
        <pt x="472" y="559" on="0"/>
        <pt x="445" y="538" on="1"/>
        <pt x="331" y="656" on="1"/>
        <pt x="278" y="656" on="0"/>
        <pt x="237" y="590" on="0"/>
        <pt x="237" y="545" on="1"/>
        <pt x="237" y="493" on="0"/>
        <pt x="277" y="405" on="1"/>
        <pt x="415" y="415" on="1"/>
        <pt x="405" y="333" on="1"/>
        <pt x="305" y="333" on="1"/>
        <pt x="314" y="304" on="0"/>
        <pt x="314" y="274" on="1"/>
        <pt x="314" y="200" on="0"/>
        <pt x="234" y="127" on="1"/>
        <pt x="428" y="127" on="1"/>
        <pt x="466" y="205" on="1"/>
        <pt x="520" y="205" on="1"/>
        <pt x="492" y="0" on="1"/>
      </contour>
    </TTGlyph>
    <TTGlyph name="t" xMin="28" yMin="-15" xMax="374" yMax="591">
      <contour>
        <pt x="28" y="430" on="1"/>
        <pt x="28" y="470" on="1"/>
        <pt x="198" y="591" on="1"/>
        <pt x="235" y="591" on="1"/>
        <pt x="235" y="495" on="1"/>
        <pt x="359" y="500" on="1"/>
        <pt x="359" y="430" on="1"/>
        <pt x="235" y="430" on="1"/>
        <pt x="235" y="144" on="1"/>
        <pt x="235" y="95" on="0"/>
        <pt x="257" y="55" on="0"/>
        <pt x="291" y="55" on="1"/>
        <pt x="316" y="55" on="0"/>
        <pt x="358" y="73" on="1"/>
        <pt x="374" y="17" on="1"/>
        <pt x="314" y="-15" on="0"/>
        <pt x="247" y="-15" on="1"/>
        <pt x="81" y="-15" on="0"/>
        <pt x="81" y="139" on="1"/>
        <pt x="81" y="430" on="1"/>
      </contour>
    </TTGlyph>
    <TTGlyph name="thorn" xMin="-14" yMin="-270" xMax="557" yMax="801">
      <contour>
        <pt x="-14" y="-217" on="1"/>
        <pt x="71" y="-197" on="1"/>
        <pt x="71" y="710" on="1"/>
        <pt x="-14" y="710" on="1"/>
        <pt x="-14" y="763" on="1"/>
        <pt x="146" y="801" on="1"/>
        <pt x="228" y="801" on="1"/>
        <pt x="228" y="480" on="1"/>
        <pt x="279" y="515" on="0"/>
        <pt x="349" y="515" on="1"/>
        <pt x="439" y="515" on="0"/>
        <pt x="557" y="390" on="0"/>
        <pt x="557" y="268" on="1"/>
        <pt x="557" y="131" on="0"/>
        <pt x="403" y="-15" on="0"/>
        <pt x="278" y="-15" on="1"/>
        <pt x="248" y="-15" on="0"/>
        <pt x="228" y="-11" on="1"/>
        <pt x="228" y="-197" on="1"/>
        <pt x="333" y="-217" on="1"/>
        <pt x="333" y="-270" on="1"/>
        <pt x="-14" y="-270" on="1"/>
      </contour>
      <contour>
        <pt x="228" y="54" on="1"/>
        <pt x="244" y="50" on="0"/>
        <pt x="269" y="50" on="1"/>
        <pt x="391" y="50" on="0"/>
        <pt x="391" y="264" on="1"/>
        <pt x="391" y="430" on="0"/>
        <pt x="297" y="430" on="1"/>
        <pt x="263" y="430" on="0"/>
        <pt x="228" y="414" on="1"/>
      </contour>
    </TTGlyph>
    <TTGlyph name="three" xMin="21" yMin="-15" xMax="502" yMax="715">
      <contour>
        <pt x="21" y="26" on="1"/>
        <pt x="42" y="85" on="1"/>
        <pt x="119" y="57" on="0"/>
        <pt x="183" y="57" on="1"/>
        <pt x="253" y="57" on="0"/>
        <pt x="335" y="134" on="0"/>
        <pt x="335" y="191" on="1"/>
        <pt x="335" y="259" on="0"/>
        <pt x="238" y="335" on="0"/>
        <pt x="157" y="335" on="1"/>
        <pt x="157" y="400" on="1"/>
        <pt x="217" y="400" on="0"/>
        <pt x="299" y="480" on="0"/>
        <pt x="299" y="546" on="1"/>
        <pt x="299" y="595" on="0"/>
        <pt x="244" y="658" on="0"/>
        <pt x="214" y="658" on="1"/>
        <pt x="102" y="546" on="1"/>
        <pt x="85" y="558" on="0"/>
        <pt x="51" y="639" on="0"/>
        <pt x="49" y="667" on="1"/>
        <pt x="58" y="672" on="0"/>
        <pt x="90" y="688" on="0"/>
        <pt x="189" y="715" on="0"/>
        <pt x="240" y="715" on="1"/>
        <pt x="357" y="715" on="0"/>
        <pt x="465" y="626" on="0"/>
        <pt x="465" y="553" on="1"/>
        <pt x="465" y="495" on="0"/>
        <pt x="381" y="402" on="0"/>
        <pt x="305" y="379" on="1"/>
        <pt x="400" y="364" on="0"/>
        <pt x="502" y="265" on="0"/>
        <pt x="502" y="193" on="1"/>
        <pt x="502" y="90" on="0"/>
        <pt x="346" y="-15" on="0"/>
        <pt x="224" y="-15" on="1"/>
        <pt x="114" y="-15" on="0"/>
      </contour>
    </TTGlyph>
    <TTGlyph name="threequarters" xMin="40" yMin="0" xMax="802" yMax="714">
      <component glyphName="foursuperior" x="462" y="-285" flags="0x4"/>
      <component glyphName="threesuperior" x="6" y="0" flags="0x4"/>
      <component glyphName="fraction" x="262" y="0" flags="0x4"/>
    </TTGlyph>
    <TTGlyph name="threesuperior" xMin="34" yMin="276" xMax="335" yMax="710">
      <contour>
        <pt x="34" y="300" on="1"/>
        <pt x="47" y="340" on="1"/>
        <pt x="90" y="324" on="0"/>
        <pt x="131" y="324" on="1"/>
        <pt x="173" y="324" on="0"/>
        <pt x="226" y="368" on="0"/>
        <pt x="226" y="401" on="1"/>
        <pt x="226" y="441" on="0"/>
        <pt x="170" y="484" on="0"/>
        <pt x="125" y="484" on="1"/>
        <pt x="125" y="522" on="1"/>
        <pt x="160" y="528" on="0"/>
        <pt x="204" y="575" on="0"/>
        <pt x="204" y="609" on="1"/>
        <pt x="204" y="637" on="0"/>
        <pt x="177" y="672" on="0"/>
        <pt x="158" y="676" on="1"/>
        <pt x="92" y="609" on="1"/>
        <pt x="76" y="621" on="0"/>
        <pt x="52" y="665" on="0"/>
        <pt x="51" y="681" on="1"/>
        <pt x="106" y="710" on="0"/>
        <pt x="174" y="710" on="1"/>
        <pt x="245" y="710" on="0"/>
        <pt x="313" y="657" on="0"/>
        <pt x="313" y="614" on="1"/>
        <pt x="313" y="575" on="0"/>
        <pt x="258" y="518" on="0"/>
        <pt x="213" y="510" on="1"/>
        <pt x="335" y="496" on="0"/>
        <pt x="335" y="399" on="1"/>
        <pt x="335" y="339" on="0"/>
        <pt x="234" y="276" on="0"/>
        <pt x="155" y="276" on="1"/>
        <pt x="90" y="276" on="0"/>
      </contour>
    </TTGlyph>
    <TTGlyph name="tilde" xMin="24" yMin="601" xMax="445" yMax="745">
      <contour>
        <pt x="24" y="661" on="1"/>
        <pt x="55" y="701" on="0"/>
        <pt x="129" y="745" on="0"/>
        <pt x="167" y="745" on="1"/>
        <pt x="199" y="745" on="0"/>
        <pt x="284" y="691" on="0"/>
        <pt x="313" y="691" on="1"/>
        <pt x="353" y="691" on="0"/>
        <pt x="408" y="735" on="1"/>
        <pt x="445" y="696" on="1"/>
        <pt x="427" y="662" on="0"/>
        <pt x="346" y="601" on="0"/>
        <pt x="297" y="601" on="1"/>
        <pt x="265" y="601" on="0"/>
        <pt x="181" y="655" on="0"/>
        <pt x="152" y="655" on="1"/>
        <pt x="129" y="655" on="0"/>
        <pt x="82" y="630" on="0"/>
        <pt x="60" y="618" on="1"/>
      </contour>
    </TTGlyph>
    <TTGlyph name="tilde.case" xMin="8" yMin="742" xMax="429" yMax="886">
      <contour>
        <pt x="8" y="802" on="1"/>
        <pt x="39" y="842" on="0"/>
        <pt x="113" y="886" on="0"/>
        <pt x="151" y="886" on="1"/>
        <pt x="183" y="886" on="0"/>
        <pt x="268" y="832" on="0"/>
        <pt x="297" y="832" on="1"/>
        <pt x="337" y="832" on="0"/>
        <pt x="392" y="876" on="1"/>
        <pt x="429" y="837" on="1"/>
        <pt x="411" y="803" on="0"/>
        <pt x="330" y="742" on="0"/>
        <pt x="281" y="742" on="1"/>
        <pt x="249" y="742" on="0"/>
        <pt x="165" y="796" on="0"/>
        <pt x="136" y="796" on="1"/>
        <pt x="113" y="796" on="0"/>
        <pt x="66" y="771" on="0"/>
        <pt x="44" y="759" on="1"/>
      </contour>
    </TTGlyph>
    <TTGlyph name="two" xMin="31" yMin="0" xMax="506" yMax="715">
      <contour>
        <pt x="31" y="0" on="1"/>
        <pt x="31" y="70" on="1"/>
        <pt x="46" y="85" on="0"/>
        <pt x="89" y="132" on="0"/>
        <pt x="178" y="242" on="0"/>
        <pt x="246" y="348" on="0"/>
        <pt x="300" y="481" on="0"/>
        <pt x="300" y="534" on="1"/>
        <pt x="300" y="584" on="0"/>
        <pt x="256" y="656" on="0"/>
        <pt x="221" y="656" on="1"/>
        <pt x="103" y="538" on="1"/>
        <pt x="50" y="587" on="0"/>
        <pt x="46" y="665" on="1"/>
        <pt x="143" y="715" on="0"/>
        <pt x="258" y="715" on="1"/>
        <pt x="351" y="715" on="0"/>
        <pt x="467" y="633" on="0"/>
        <pt x="467" y="548" on="1"/>
        <pt x="467" y="363" on="0"/>
        <pt x="204" y="127" on="1"/>
        <pt x="413" y="127" on="1"/>
        <pt x="452" y="205" on="1"/>
        <pt x="506" y="205" on="1"/>
        <pt x="478" y="0" on="1"/>
      </contour>
    </TTGlyph>
    <TTGlyph name="twosuperior" xMin="44" yMin="285" xMax="336" yMax="710">
      <contour>
        <pt x="44" y="285" on="1"/>
        <pt x="44" y="327" on="1"/>
        <pt x="61" y="343" on="0"/>
        <pt x="124" y="415" on="0"/>
        <pt x="204" y="552" on="0"/>
        <pt x="204" y="603" on="1"/>
        <pt x="204" y="634" on="0"/>
        <pt x="183" y="675" on="0"/>
        <pt x="162" y="675" on="1"/>
        <pt x="92" y="595" on="1"/>
        <pt x="52" y="632" on="0"/>
        <pt x="48" y="680" on="1"/>
        <pt x="105" y="710" on="0"/>
        <pt x="184" y="710" on="1"/>
        <pt x="240" y="710" on="0"/>
        <pt x="313" y="661" on="0"/>
        <pt x="313" y="611" on="1"/>
        <pt x="313" y="551" on="0"/>
        <pt x="223" y="434" on="0"/>
        <pt x="152" y="371" on="1"/>
        <pt x="281" y="371" on="1"/>
        <pt x="304" y="417" on="1"/>
        <pt x="336" y="417" on="1"/>
        <pt x="319" y="285" on="1"/>
      </contour>
    </TTGlyph>
    <TTGlyph name="u" xMin="9" yMin="-15" xMax="654" yMax="500">
      <contour>
        <pt x="9" y="447" on="1"/>
        <pt x="9" y="500" on="1"/>
        <pt x="248" y="500" on="1"/>
        <pt x="248" y="155" on="1"/>
        <pt x="248" y="104" on="0"/>
        <pt x="273" y="65" on="0"/>
        <pt x="311" y="65" on="1"/>
        <pt x="340" y="65" on="0"/>
        <pt x="402" y="95" on="0"/>
        <pt x="421" y="120" on="1"/>
        <pt x="421" y="427" on="1"/>
        <pt x="356" y="447" on="1"/>
        <pt x="356" y="500" on="1"/>
        <pt x="576" y="500" on="1"/>
        <pt x="576" y="75" on="1"/>
        <pt x="654" y="75" on="1"/>
        <pt x="654" y="32" on="1"/>
        <pt x="632" y="17" on="0"/>
        <pt x="605" y="4" on="0"/>
        <pt x="572" y="-9" on="0"/>
        <pt x="537" y="-15" on="0"/>
        <pt x="522" y="-15" on="1"/>
        <pt x="450" y="-15" on="0"/>
        <pt x="421" y="50" on="1"/>
        <pt x="350" y="-15" on="0"/>
        <pt x="247" y="-15" on="1"/>
        <pt x="94" y="-15" on="0"/>
        <pt x="94" y="142" on="1"/>
        <pt x="94" y="427" on="1"/>
      </contour>
    </TTGlyph>
    <TTGlyph name="uacute" xMin="9" yMin="-15" xMax="654" yMax="767">
      <component glyphName="u" x="0" y="0" flags="0x204"/>
      <component glyphName="acute" x="203" y="0" flags="0x4"/>
    </TTGlyph>
    <TTGlyph name="ucircumflex" xMin="9" yMin="-15" xMax="654" yMax="766">
      <component glyphName="u" x="0" y="0" flags="0x204"/>
      <component glyphName="circumflex" x="158" y="0" flags="0x4"/>
    </TTGlyph>
    <TTGlyph name="udieresis" xMin="9" yMin="-15" xMax="654" yMax="767">
      <component glyphName="u" x="0" y="0" flags="0x204"/>
      <component glyphName="dieresis" x="107" y="0" flags="0x4"/>
    </TTGlyph>
    <TTGlyph name="ugrave" xMin="9" yMin="-15" xMax="654" yMax="767">
      <component glyphName="u" x="0" y="0" flags="0x204"/>
      <component glyphName="grave" x="261" y="0" flags="0x4"/>
    </TTGlyph>
    <TTGlyph name="underscore" xMin="134" yMin="-142" xMax="593" yMax="-68">
      <contour>
        <pt x="134" y="-68" on="1"/>
        <pt x="593" y="-68" on="1"/>
        <pt x="593" y="-142" on="1"/>
        <pt x="134" y="-142" on="1"/>
      </contour>
    </TTGlyph>
    <TTGlyph name="uni00AD" xMin="52" yMin="307" xMax="312" yMax="407">
      <contour>
        <pt x="52" y="307" on="1"/>
        <pt x="52" y="407" on="1"/>
        <pt x="312" y="407" on="1"/>
        <pt x="312" y="307" on="1"/>
      </contour>
    </TTGlyph>
    <TTGlyph name="v" xMin="-4" yMin="-7" xMax="585" yMax="500">
      <contour>
        <pt x="-4" y="447" on="1"/>
        <pt x="-4" y="500" on="1"/>
        <pt x="302" y="500" on="1"/>
        <pt x="302" y="447" on="1"/>
        <pt x="234" y="431" on="1"/>
        <pt x="335" y="192" on="1"/>
        <pt x="434" y="430" on="1"/>
        <pt x="368" y="447" on="1"/>
        <pt x="368" y="500" on="1"/>
        <pt x="585" y="500" on="1"/>
        <pt x="585" y="447" on="1"/>
        <pt x="501" y="425" on="1"/>
        <pt x="323" y="-7" on="1"/>
        <pt x="253" y="-7" on="1"/>
        <pt x="68" y="426" on="1"/>
      </contour>
    </TTGlyph>
    <TTGlyph name="w" xMin="-3" yMin="-7" xMax="834" yMax="500">
      <contour>
        <pt x="-3" y="447" on="1"/>
        <pt x="-3" y="500" on="1"/>
        <pt x="299" y="500" on="1"/>
        <pt x="299" y="447" on="1"/>
        <pt x="228" y="429" on="1"/>
        <pt x="310" y="209" on="1"/>
        <pt x="408" y="500" on="1"/>
        <pt x="510" y="500" on="1"/>
        <pt x="613" y="213" on="1"/>
        <pt x="687" y="429" on="1"/>
        <pt x="607" y="447" on="1"/>
        <pt x="607" y="500" on="1"/>
        <pt x="834" y="500" on="1"/>
        <pt x="834" y="447" on="1"/>
        <pt x="753" y="425" on="1"/>
        <pt x="609" y="-7" on="1"/>
        <pt x="527" y="-7" on="1"/>
        <pt x="413" y="312" on="1"/>
        <pt x="306" y="-7" on="1"/>
        <pt x="224" y="-7" on="1"/>
        <pt x="64" y="429" on="1"/>
      </contour>
    </TTGlyph>
    <TTGlyph name="x" xMin="9" yMin="0" xMax="602" yMax="500">
      <contour>
        <pt x="9" y="0" on="1"/>
        <pt x="9" y="53" on="1"/>
        <pt x="96" y="70" on="1"/>
        <pt x="229" y="228" on="1"/>
        <pt x="101" y="430" on="1"/>
        <pt x="22" y="447" on="1"/>
        <pt x="22" y="500" on="1"/>
        <pt x="337" y="500" on="1"/>
        <pt x="337" y="447" on="1"/>
        <pt x="285" y="437" on="1"/>
        <pt x="350" y="336" on="1"/>
        <pt x="430" y="431" on="1"/>
        <pt x="375" y="447" on="1"/>
        <pt x="375" y="500" on="1"/>
        <pt x="599" y="500" on="1"/>
        <pt x="599" y="447" on="1"/>
        <pt x="512" y="428" on="1"/>
        <pt x="386" y="279" on="1"/>
        <pt x="520" y="68" on="1"/>
        <pt x="602" y="53" on="1"/>
        <pt x="602" y="0" on="1"/>
        <pt x="279" y="0" on="1"/>
        <pt x="279" y="53" on="1"/>
        <pt x="333" y="61" on="1"/>
        <pt x="265" y="171" on="1"/>
        <pt x="177" y="67" on="1"/>
        <pt x="230" y="53" on="1"/>
        <pt x="230" y="0" on="1"/>
      </contour>
    </TTGlyph>
    <TTGlyph name="y" xMin="-5" yMin="-299" xMax="617" yMax="500">
      <contour>
        <pt x="-5" y="447" on="1"/>
        <pt x="-5" y="500" on="1"/>
        <pt x="304" y="500" on="1"/>
        <pt x="304" y="447" on="1"/>
        <pt x="238" y="435" on="1"/>
        <pt x="367" y="178" on="1"/>
        <pt x="461" y="428" on="1"/>
        <pt x="385" y="447" on="1"/>
        <pt x="385" y="500" on="1"/>
        <pt x="617" y="500" on="1"/>
        <pt x="617" y="447" on="1"/>
        <pt x="534" y="424" on="1"/>
        <pt x="255" y="-299" on="1"/>
        <pt x="237" y="-299" on="1"/>
        <pt x="207" y="-299" on="0"/>
        <pt x="154" y="-273" on="0"/>
        <pt x="143" y="-254" on="1"/>
        <pt x="288" y="-23" on="1"/>
        <pt x="70" y="426" on="1"/>
      </contour>
    </TTGlyph>
    <TTGlyph name="yacute" xMin="-5" yMin="-299" xMax="617" yMax="767">
      <component glyphName="y" x="0" y="0" flags="0x204"/>
      <component glyphName="acute" x="211" y="0" flags="0x4"/>
    </TTGlyph>
    <TTGlyph name="ydieresis" xMin="-5" yMin="-299" xMax="617" yMax="767">
      <component glyphName="y" x="0" y="0" flags="0x204"/>
      <component glyphName="dieresis" x="115" y="0" flags="0x4"/>
    </TTGlyph>
    <TTGlyph name="yen" xMin="34" yMin="0" xMax="749" yMax="700">
      <contour>
        <pt x="34" y="644" on="1"/>
        <pt x="34" y="700" on="1"/>
        <pt x="361" y="700" on="1"/>
        <pt x="361" y="644" on="1"/>
        <pt x="296" y="631" on="1"/>
        <pt x="440" y="421" on="1"/>
        <pt x="567" y="624" on="1"/>
        <pt x="494" y="644" on="1"/>
        <pt x="494" y="700" on="1"/>
        <pt x="749" y="700" on="1"/>
        <pt x="749" y="644" on="1"/>
        <pt x="656" y="622" on="1"/>
        <pt x="504" y="379" on="1"/>
        <pt x="632" y="386" on="1"/>
        <pt x="623" y="304" on="1"/>
        <pt x="477" y="304" on="1"/>
        <pt x="477" y="262" on="1"/>
        <pt x="632" y="270" on="1"/>
        <pt x="623" y="188" on="1"/>
        <pt x="477" y="188" on="1"/>
        <pt x="477" y="78" on="1"/>
        <pt x="568" y="56" on="1"/>
        <pt x="568" y="0" on="1"/>
        <pt x="222" y="0" on="1"/>
        <pt x="222" y="56" on="1"/>
        <pt x="314" y="78" on="1"/>
        <pt x="314" y="188" on="1"/>
        <pt x="147" y="188" on="1"/>
        <pt x="147" y="245" on="1"/>
        <pt x="314" y="253" on="1"/>
        <pt x="314" y="304" on="1"/>
        <pt x="147" y="304" on="1"/>
        <pt x="147" y="361" on="1"/>
        <pt x="292" y="368" on="1"/>
        <pt x="114" y="624" on="1"/>
      </contour>
    </TTGlyph>
    <TTGlyph name="z" xMin="28" yMin="0" xMax="470" yMax="500">
      <contour>
        <pt x="28" y="0" on="1"/>
        <pt x="28" y="50" on="1"/>
        <pt x="281" y="436" on="1"/>
        <pt x="145" y="436" on="1"/>
        <pt x="97" y="335" on="1"/>
        <pt x="51" y="335" on="1"/>
        <pt x="62" y="500" on="1"/>
        <pt x="470" y="500" on="1"/>
        <pt x="470" y="451" on="1"/>
        <pt x="219" y="65" on="1"/>
        <pt x="369" y="65" on="1"/>
        <pt x="421" y="176" on="1"/>
        <pt x="470" y="176" on="1"/>
        <pt x="460" y="0" on="1"/>
      </contour>
    </TTGlyph>
    <TTGlyph name="zero" xMin="48" yMin="-15" xMax="584" yMax="715">
      <contour>
        <pt x="48" y="350" on="1"/>
        <pt x="48" y="506" on="0"/>
        <pt x="192" y="715" on="0"/>
        <pt x="316" y="715" on="1"/>
        <pt x="440" y="715" on="0"/>
        <pt x="584" y="506" on="0"/>
        <pt x="584" y="350" on="1"/>
        <pt x="584" y="191" on="0"/>
        <pt x="440" y="-15" on="0"/>
        <pt x="316" y="-15" on="1"/>
        <pt x="192" y="-15" on="0"/>
        <pt x="48" y="191" on="0"/>
      </contour>
      <contour>
        <pt x="316" y="646" on="1"/>
        <pt x="214" y="646" on="0"/>
        <pt x="214" y="350" on="1"/>
        <pt x="214" y="54" on="0"/>
        <pt x="316" y="54" on="1"/>
        <pt x="418" y="54" on="0"/>
        <pt x="418" y="350" on="1"/>
        <pt x="418" y="646" on="0"/>
      </contour>
    </TTGlyph>
</ttFont>
